Junicode-Bold.ufo
<glyph name="exclam" format="1">
  <advance width="518"/>
  <unicode hex="0021"/>
  <outline>
    <contour>
      <point x="418" y="117" type="qcurve" smooth="yes"/>
      <point x="418" y="56"/>
      <point x="330" y="-25"/>
      <point x="195" y="-25"/>
      <point x="104" y="61"/>
      <point x="104" y="184"/>
      <point x="186" y="279"/>
      <point x="340" y="279"/>
      <point x="418" y="185"/>
    </contour>
    <contour>
      <point x="401" y="1280" type="qcurve" smooth="yes"/>
      <point x="401" y="1161"/>
      <point x="332" y="686" type="qcurve" smooth="yes"/>
      <point x="320" y="596"/>
      <point x="311" y="440" type="qcurve" smooth="yes"/>
      <point x="311" y="420"/>
      <point x="211" y="420"/>
      <point x="209" y="440" type="qcurve" smooth="yes"/>
      <point x="207" y="542"/>
      <point x="129" y="1214"/>
      <point x="129" y="1247" type="qcurve" smooth="yes"/>
      <point x="129" y="1319"/>
      <point x="213" y="1399"/>
      <point x="264" y="1399" type="qcurve" smooth="yes"/>
      <point x="332" y="1399"/>
      <point x="401" y="1329"/>
    </contour>
  </outline>
</glyph>
<glyph name="numbersign" format="1">
  <advance width="1013"/>
  <unicode hex="0023"/>
  <outline>
    <contour>
      <point x="993" y="934" type="line"/>
      <point x="993" y="803" type="line"/>
      <point x="780" y="803" type="line"/>
      <point x="702" y="514" type="line"/>
      <point x="883" y="514" type="line"/>
      <point x="883" y="381" type="line"/>
      <point x="668" y="381" type="line"/>
      <point x="569" y="10" type="line"/>
      <point x="434" y="10" type="line"/>
      <point x="532" y="381" type="line"/>
      <point x="352" y="381" type="line"/>
      <point x="254" y="10" type="line"/>
      <point x="119" y="10" type="line"/>
      <point x="219" y="381" type="line"/>
      <point x="25" y="381" type="line"/>
      <point x="25" y="514" type="line"/>
      <point x="254" y="514" type="line"/>
      <point x="330" y="803" type="line"/>
      <point x="135" y="803" type="line"/>
      <point x="135" y="934" type="line"/>
      <point x="365" y="934" type="line"/>
      <point x="449" y="1249" type="line"/>
      <point x="584" y="1249" type="line"/>
      <point x="500" y="934" type="line"/>
      <point x="680" y="934" type="line"/>
      <point x="764" y="1249" type="line"/>
      <point x="899" y="1249" type="line"/>
      <point x="815" y="934" type="line"/>
    </contour>
    <contour>
      <point x="645" y="803" type="line"/>
      <point x="465" y="803" type="line"/>
      <point x="389" y="514" type="line"/>
      <point x="569" y="514" type="line"/>
    </contour>
  </outline>
</glyph>
<glyph name="dollar" format="1">
  <advance width="1028"/>
  <unicode hex="0024"/>
  <outline>
    <contour>
      <point x="936" y="408" type="qcurve" smooth="yes"/>
      <point x="936" y="218"/>
      <point x="727" y="-4"/>
      <point x="563" y="-16" type="qcurve"/>
      <point x="563" y="-150" type="line" smooth="yes"/>
      <point x="563" y="-166"/>
      <point x="438" y="-164"/>
      <point x="438" y="-150" type="qcurve" smooth="yes"/>
      <point x="438" y="-14" type="line"/>
      <point x="286" y="6"/>
      <point x="158" y="76" type="qcurve"/>
      <point x="105" y="223"/>
      <point x="104" y="358" type="qcurve" smooth="yes"/>
      <point x="104" y="368"/>
      <point x="106" y="375" type="qcurve" smooth="yes"/>
      <point x="108" y="400"/>
      <point x="197" y="401"/>
      <point x="199" y="381" type="qcurve" smooth="yes"/>
      <point x="207" y="272"/>
      <point x="348" y="115"/>
      <point x="438" y="88" type="qcurve"/>
      <point x="438" y="580" type="line"/>
      <point x="260" y="646"/>
      <point x="98" y="823"/>
      <point x="98" y="995" type="qcurve" smooth="yes"/>
      <point x="98" y="1099"/>
      <point x="276" y="1309"/>
      <point x="438" y="1329" type="qcurve"/>
      <point x="438" y="1466" type="line" smooth="yes"/>
      <point x="438" y="1482"/>
      <point x="563" y="1481"/>
      <point x="563" y="1466" type="qcurve" smooth="yes"/>
      <point x="563" y="1329" type="line"/>
      <point x="655" y="1325"/>
      <point x="756" y="1300"/>
      <point x="784" y="1300"/>
      <point x="799" y="1303" type="qcurve"/>
      <point x="844" y="1172"/>
      <point x="844" y="1032" type="qcurve" smooth="yes"/>
      <point x="844" y="1020"/>
      <point x="760" y="1008"/>
      <point x="756" y="1022" type="qcurve" smooth="yes"/>
      <point x="731" y="1133"/>
      <point x="616" y="1231"/>
      <point x="563" y="1241" type="qcurve"/>
      <point x="563" y="797" type="line"/>
      <point x="813" y="721"/>
      <point x="936" y="517"/>
    </contour>
    <contour>
      <point x="438" y="840" type="qcurve"/>
      <point x="438" y="1245" type="line"/>
      <point x="297" y="1196"/>
      <point x="297" y="1044" type="qcurve" smooth="yes"/>
      <point x="297" y="895"/>
    </contour>
    <contour>
      <point x="737" y="301" type="qcurve" smooth="yes"/>
      <point x="737" y="461"/>
      <point x="563" y="532" type="qcurve"/>
      <point x="563" y="74" type="line"/>
      <point x="737" y="117"/>
    </contour>
  </outline>
</glyph>
<glyph name="percent" format="1">
  <advance width="1820"/>
  <unicode hex="0025"/>
  <outline>
    <contour>
      <point x="791" y="973" type="qcurve" smooth="yes"/>
      <point x="791" y="811"/>
      <point x="713" y="692" type="qcurve" smooth="yes"/>
      <point x="617" y="547"/>
      <point x="442" y="547" type="qcurve" smooth="yes"/>
      <point x="282" y="547"/>
      <point x="180" y="692" type="qcurve" smooth="yes"/>
      <point x="98" y="811"/>
      <point x="98" y="973" type="qcurve" smooth="yes"/>
      <point x="98" y="1125"/>
      <point x="170" y="1243" type="qcurve" smooth="yes"/>
      <point x="266" y="1399"/>
      <point x="618" y="1399"/>
      <point x="717" y="1243" type="qcurve" smooth="yes"/>
      <point x="791" y="1125"/>
    </contour>
    <contour>
      <point x="584" y="975" type="qcurve" smooth="yes"/>
      <point x="584" y="1311"/>
      <point x="442" y="1311" type="qcurve" smooth="yes"/>
      <point x="305" y="1311"/>
      <point x="305" y="975" type="qcurve" smooth="yes"/>
      <point x="305" y="635"/>
      <point x="442" y="635" type="qcurve" smooth="yes"/>
      <point x="584" y="635"/>
    </contour>
    <contour>
      <point x="1432" y="1370" type="qcurve" smooth="yes"/>
      <point x="557" y="-82" type="line" smooth="yes"/>
      <point x="549" y="-94"/>
      <point x="496" y="-61" type="qcurve" smooth="yes"/>
      <point x="453" y="-32"/>
      <point x="459" y="-20" type="qcurve" smooth="yes"/>
      <point x="1331" y="1427" type="line" smooth="yes"/>
      <point x="1337" y="1439"/>
      <point x="1393" y="1409" type="qcurve" smooth="yes"/>
      <point x="1440" y="1382"/>
    </contour>
    <contour>
      <point x="1800" y="406" type="qcurve" smooth="yes"/>
      <point x="1800" y="244"/>
      <point x="1722" y="125" type="qcurve" smooth="yes"/>
      <point x="1626" y="-20"/>
      <point x="1452" y="-20" type="qcurve" smooth="yes"/>
      <point x="1292" y="-20"/>
      <point x="1190" y="125" type="qcurve" smooth="yes"/>
      <point x="1108" y="244"/>
      <point x="1108" y="406" type="qcurve" smooth="yes"/>
      <point x="1108" y="558"/>
      <point x="1182" y="676" type="qcurve" smooth="yes"/>
      <point x="1278" y="832"/>
      <point x="1452" y="831" type="qcurve" smooth="yes"/>
      <point x="1630" y="831"/>
      <point x="1726" y="676" type="qcurve" smooth="yes"/>
      <point x="1800" y="558"/>
    </contour>
    <contour>
      <point x="1593" y="408" type="qcurve" smooth="yes"/>
      <point x="1593" y="744"/>
      <point x="1452" y="743" type="qcurve" smooth="yes"/>
      <point x="1315" y="743"/>
      <point x="1315" y="408" type="qcurve" smooth="yes"/>
      <point x="1315" y="68"/>
      <point x="1452" y="68" type="qcurve" smooth="yes"/>
      <point x="1593" y="68"/>
    </contour>
  </outline>
</glyph>
<glyph name="ampersand" format="1">
  <advance width="1701"/>
  <unicode hex="0026"/>
  <outline>
    <contour>
      <point x="1694" y="193" type="qcurve" smooth="yes"/>
      <point x="1710" y="177"/>
      <point x="1708" y="164" type="qcurve" smooth="yes"/>
      <point x="1708" y="158"/>
      <point x="1706" y="154" type="qcurve" smooth="yes"/>
      <point x="1610" y="27"/>
      <point x="1444" y="-14" type="qcurve" smooth="yes"/>
      <point x="1385" y="-28"/>
      <point x="1323" y="-29" type="qcurve" smooth="yes"/>
      <point x="1120" y="-29"/>
      <point x="958" y="199" type="qcurve"/>
      <point x="733" y="-26"/>
      <point x="496" y="-29" type="qcurve" smooth="yes"/>
      <point x="250" y="-29"/>
      <point x="129" y="123" type="qcurve" smooth="yes"/>
      <point x="39" y="238"/>
      <point x="39" y="373" type="qcurve" smooth="yes"/>
      <point x="41" y="615"/>
      <point x="385" y="793" type="qcurve"/>
      <point x="221" y="912"/>
      <point x="221" y="1063" type="qcurve" smooth="yes"/>
      <point x="221" y="1198"/>
      <point x="326" y="1286" type="qcurve" smooth="yes"/>
      <point x="428" y="1372"/>
      <point x="557" y="1372" type="qcurve" smooth="yes"/>
      <point x="725" y="1372"/>
      <point x="821" y="1249" type="qcurve" smooth="yes"/>
      <point x="868" y="1190"/>
      <point x="870" y="1096" type="qcurve" smooth="yes"/>
      <point x="870" y="957"/>
      <point x="690" y="850" type="qcurve"/>
      <point x="887" y="711"/>
      <point x="1051" y="477" type="qcurve"/>
      <point x="1219" y="715"/>
      <point x="1219" y="760" type="qcurve" smooth="yes"/>
      <point x="1219" y="819"/>
      <point x="1094" y="819" type="qcurve" smooth="yes"/>
      <point x="1078" y="819"/>
      <point x="1077" y="920"/>
      <point x="1094" y="920" type="qcurve" smooth="yes"/>
      <point x="1178" y="914"/>
      <point x="1366" y="911" type="qcurve" smooth="yes"/>
      <point x="1554" y="911"/>
      <point x="1608" y="920" type="qcurve" smooth="yes"/>
      <point x="1622" y="920"/>
      <point x="1622" y="819"/>
      <point x="1608" y="819" type="qcurve" smooth="yes"/>
      <point x="1469" y="819"/>
      <point x="1395" y="760" type="qcurve" smooth="yes"/>
      <point x="1336" y="705"/>
      <point x="1272" y="606" type="qcurve" smooth="yes"/>
      <point x="1196" y="491"/>
      <point x="1112" y="383" type="qcurve"/>
      <point x="1278" y="135"/>
      <point x="1460" y="135" type="qcurve" smooth="yes"/>
      <point x="1591" y="135"/>
      <point x="1657" y="201" type="qcurve" smooth="yes"/>
      <point x="1661" y="205"/>
      <point x="1667" y="205" type="qcurve" smooth="yes"/>
      <point x="1680" y="205"/>
    </contour>
    <contour>
      <point x="676" y="1102" type="qcurve" smooth="yes"/>
      <point x="676" y="1274"/>
      <point x="551" y="1274" type="qcurve" smooth="yes"/>
      <point x="432" y="1274"/>
      <point x="432" y="1110" type="qcurve" smooth="yes"/>
      <point x="432" y="1010"/>
      <point x="596" y="907" type="qcurve"/>
      <point x="676" y="985"/>
    </contour>
    <contour>
      <point x="903" y="279" type="qcurve"/>
      <point x="706" y="576"/>
      <point x="471" y="735" type="qcurve"/>
      <point x="258" y="608"/>
      <point x="258" y="414" type="qcurve" smooth="yes"/>
      <point x="258" y="277"/>
      <point x="344" y="184" type="qcurve" smooth="yes"/>
      <point x="434" y="90"/>
      <point x="580" y="90" type="qcurve" smooth="yes"/>
      <point x="733" y="91"/>
    </contour>
  </outline>
</glyph>
<glyph name="quotesingle" format="1">
  <advance width="419"/>
  <unicode hex="0027"/>
  <outline>
    <contour>
      <point x="344" y="1374" type="qcurve" smooth="yes"/>
      <point x="344" y="1358"/>
      <point x="305" y="1151" type="qcurve" smooth="yes"/>
      <point x="272" y="979"/>
      <point x="272" y="944" type="qcurve" smooth="yes"/>
      <point x="272" y="930"/>
      <point x="213" y="930" type="qcurve" smooth="yes"/>
      <point x="152" y="930"/>
      <point x="152" y="944" type="qcurve" smooth="yes"/>
      <point x="152" y="1005"/>
      <point x="100" y="1253" type="qcurve" smooth="yes"/>
      <point x="80" y="1345"/>
      <point x="80" y="1372" type="qcurve" smooth="yes"/>
      <point x="80" y="1481"/>
      <point x="213" y="1481" type="qcurve" smooth="yes"/>
      <point x="344" y="1480"/>
    </contour>
  </outline>
</glyph>
<glyph name="parenleft" format="1">
  <advance width="673"/>
  <unicode hex="0028"/>
  <outline>
    <contour>
      <point x="653" y="1483" type="qcurve" smooth="yes"/>
      <point x="653" y="1458"/>
      <point x="627" y="1427" type="qcurve" smooth="yes"/>
      <point x="623" y="1423" type="line" smooth="yes"/>
      <point x="338" y="1136"/>
      <point x="338" y="588" type="qcurve" smooth="yes"/>
      <point x="338" y="29"/>
      <point x="623" y="-250" type="qcurve" smooth="yes"/>
      <point x="650" y="-277"/>
      <point x="649" y="-309" type="qcurve" smooth="yes"/>
      <point x="649" y="-354"/>
      <point x="606" y="-354" type="qcurve" smooth="yes"/>
      <point x="571" y="-354"/>
      <point x="543" y="-330" type="qcurve" smooth="yes"/>
      <point x="422" y="-217"/>
      <point x="362" y="-143" type="qcurve" smooth="yes"/>
      <point x="122" y="156"/>
      <point x="123" y="588" type="qcurve" smooth="yes"/>
      <point x="123" y="846"/>
      <point x="264" y="1141" type="qcurve" smooth="yes"/>
      <point x="356" y="1340"/>
      <point x="543" y="1505" type="qcurve" smooth="yes"/>
      <point x="570" y="1530"/>
      <point x="606" y="1530" type="qcurve" smooth="yes"/>
      <point x="653" y="1530"/>
    </contour>
  </outline>
</glyph>
<glyph name="parenright" format="1">
  <advance width="673"/>
  <unicode hex="0029"/>
  <outline>
    <contour>
      <point x="553" y="588" type="qcurve" smooth="yes"/>
      <point x="553" y="332"/>
      <point x="412" y="35" type="qcurve" smooth="yes"/>
      <point x="320" y="-162"/>
      <point x="133" y="-330" type="qcurve" smooth="yes"/>
      <point x="106" y="-355"/>
      <point x="70" y="-354" type="qcurve" smooth="yes"/>
      <point x="27" y="-354"/>
      <point x="27" y="-313" type="qcurve" smooth="yes"/>
      <point x="27" y="-282"/>
      <point x="53" y="-256" type="qcurve" smooth="yes"/>
      <point x="225" y="-82"/>
      <point x="299" y="223" type="qcurve" smooth="yes"/>
      <point x="340" y="395"/>
      <point x="338" y="588" type="qcurve" smooth="yes"/>
      <point x="338" y="959"/>
      <point x="197" y="1229" type="qcurve" smooth="yes"/>
      <point x="136" y="1346"/>
      <point x="53" y="1425" type="qcurve" smooth="yes"/>
      <point x="28" y="1452"/>
      <point x="29" y="1485" type="qcurve" smooth="yes"/>
      <point x="29" y="1530"/>
      <point x="70" y="1530" type="qcurve" smooth="yes"/>
      <point x="107" y="1530"/>
      <point x="133" y="1505" type="qcurve" smooth="yes"/>
      <point x="250" y="1396"/>
      <point x="305" y="1329" type="qcurve" smooth="yes"/>
      <point x="553" y="1026"/>
    </contour>
  </outline>
</glyph>
<glyph name="asterisk" format="1">
  <advance width="827"/>
  <unicode hex="002A"/>
  <outline>
    <contour>
      <point x="356" y="641" type="line"/>
      <point x="356" y="915" type="line"/>
      <point x="121" y="778" type="line"/>
      <point x="66" y="874" type="line"/>
      <point x="301" y="1012" type="line"/>
      <point x="66" y="1147" type="line"/>
      <point x="121" y="1243" type="line"/>
      <point x="356" y="1108" type="line"/>
      <point x="356" y="1380" type="line"/>
      <point x="467" y="1380" type="line"/>
      <point x="467" y="1108" type="line"/>
      <point x="702" y="1243" type="line"/>
      <point x="758" y="1147" type="line"/>
      <point x="522" y="1012" type="line"/>
      <point x="758" y="874" type="line"/>
      <point x="702" y="778" type="line"/>
      <point x="467" y="915" type="line"/>
      <point x="467" y="641" type="line"/>
    </contour>
  </outline>
</glyph>
<glyph name="comma" format="1">
  <advance width="518"/>
  <unicode hex="002C"/>
  <outline>
    <contour>
      <point x="453" y="49" type="qcurve" smooth="yes"/>
      <point x="453" y="-84"/>
      <point x="264" y="-315"/>
      <point x="145" y="-373" type="qcurve" smooth="yes"/>
      <point x="122" y="-383"/>
      <point x="96" y="-344"/>
      <point x="109" y="-330" type="qcurve" smooth="yes"/>
      <point x="246" y="-168"/>
      <point x="246" y="-63" type="qcurve" smooth="yes"/>
      <point x="246" y="-43"/>
      <point x="180" y="-20"/>
      <point x="92" y="72"/>
      <point x="92" y="193"/>
      <point x="188" y="268"/>
      <point x="324" y="268"/>
      <point x="453" y="145"/>
    </contour>
  </outline>
</glyph>
<glyph name="hyphen" format="1">
  <advance width="825"/>
  <unicode hex="002D"/>
  <outline>
    <contour>
      <point x="698" y="610" type="line" smooth="yes"/>
      <point x="718" y="610"/>
      <point x="719" y="479"/>
      <point x="696" y="479" type="qcurve" smooth="yes"/>
      <point x="125" y="479" type="line" smooth="yes"/>
      <point x="107" y="479"/>
      <point x="106" y="610"/>
      <point x="125" y="610" type="qcurve" smooth="yes"/>
    </contour>
  </outline>
</glyph>
<glyph name="period" format="1">
  <advance width="518"/>
  <unicode hex="002E"/>
  <outline>
    <contour>
      <point x="418" y="109" type="qcurve" smooth="yes"/>
      <point x="418" y="54"/>
      <point x="328" y="-27"/>
      <point x="199" y="-25"/>
      <point x="104" y="61"/>
      <point x="104" y="188"/>
      <point x="186" y="279"/>
      <point x="340" y="279"/>
      <point x="418" y="181"/>
    </contour>
  </outline>
</glyph>
<glyph name="zero" format="1">
  <advance width="954"/>
  <unicode hex="0030"/>
  <outline>
    <contour>
      <point x="924" y="643" type="qcurve" smooth="yes"/>
      <point x="924" y="440"/>
      <point x="854" y="270" type="qcurve" smooth="yes"/>
      <point x="737" y="-17"/>
      <point x="477" y="-16" type="qcurve" smooth="yes"/>
      <point x="209" y="-16"/>
      <point x="96" y="274" type="qcurve" smooth="yes"/>
      <point x="33" y="442"/>
      <point x="33" y="668" type="qcurve" smooth="yes"/>
      <point x="33" y="899"/>
      <point x="111" y="1071" type="qcurve" smooth="yes"/>
      <point x="228" y="1331"/>
      <point x="479" y="1333" type="qcurve" smooth="yes"/>
      <point x="741" y="1333"/>
      <point x="854" y="1049" type="qcurve" smooth="yes"/>
      <point x="924" y="874"/>
    </contour>
    <contour>
      <point x="672" y="633" type="line" smooth="yes"/>
      <point x="672" y="907"/>
      <point x="633" y="1069" type="qcurve" smooth="yes"/>
      <point x="592" y="1243"/>
      <point x="481" y="1243" type="qcurve" smooth="yes"/>
      <point x="323" y="1243"/>
      <point x="289" y="889" type="qcurve" smooth="yes"/>
      <point x="281" y="801"/>
      <point x="281" y="680" type="qcurve" smooth="yes"/>
      <point x="281" y="422"/>
      <point x="309" y="297" type="qcurve" smooth="yes"/>
      <point x="360" y="76"/>
      <point x="475" y="76" type="qcurve" smooth="yes"/>
      <point x="672" y="76"/>
      <point x="672" y="571" type="qcurve" smooth="yes"/>
    </contour>
  </outline>
</glyph>
<glyph name="one" format="1">
  <advance width="954"/>
  <unicode hex="0031"/>
  <outline>
    <contour>
      <point x="614" y="283" type="line" smooth="yes"/>
      <point x="614" y="156"/>
      <point x="649" y="113" type="qcurve" smooth="yes"/>
      <point x="686" y="70"/>
      <point x="776" y="68" type="qcurve" smooth="yes"/>
      <point x="790" y="68"/>
      <point x="791" y="-8"/>
      <point x="776" y="-8" type="qcurve" smooth="yes"/>
      <point x="696" y="0"/>
      <point x="494" y="0" type="qcurve" smooth="yes"/>
      <point x="289" y="0"/>
      <point x="209" y="-8" type="qcurve" smooth="yes"/>
      <point x="195" y="-8"/>
      <point x="195" y="68"/>
      <point x="209" y="68" type="qcurve" smooth="yes"/>
      <point x="318" y="68"/>
      <point x="354" y="119" type="qcurve" smooth="yes"/>
      <point x="387" y="164"/>
      <point x="387" y="281" type="qcurve" smooth="yes"/>
      <point x="387" y="1087" type="line" smooth="yes"/>
      <point x="387" y="1153"/>
      <point x="367" y="1145" type="qcurve" smooth="yes"/>
      <point x="263" y="1110"/>
      <point x="205" y="1081" type="qcurve" smooth="yes"/>
      <point x="185" y="1071"/>
      <point x="164" y="1135"/>
      <point x="182" y="1141" type="qcurve" smooth="yes"/>
      <point x="313" y="1196"/>
      <point x="530" y="1354" type="qcurve" smooth="yes"/>
      <point x="557" y="1374"/>
      <point x="578" y="1374" type="qcurve" smooth="yes"/>
      <point x="621" y="1374"/>
      <point x="621" y="1321" type="qcurve" smooth="yes"/>
      <point x="615" y="1249"/>
      <point x="614" y="1161" type="qcurve" smooth="yes"/>
    </contour>
  </outline>
</glyph>
<glyph name="two" format="1">
  <advance width="954"/>
  <unicode hex="0032"/>
  <outline>
    <contour>
      <point x="799" y="31" type="line" smooth="yes"/>
      <point x="783" y="-8"/>
      <point x="719" y="-8" type="qcurve" smooth="yes"/>
      <point x="584" y="0"/>
      <point x="473" y="0" type="qcurve" smooth="yes"/>
      <point x="393" y="0" type="line" smooth="yes"/>
      <point x="231" y="0"/>
      <point x="51" y="-8" type="qcurve" smooth="yes"/>
      <point x="-2" y="-8"/>
      <point x="-2" y="39" type="qcurve" smooth="yes"/>
      <point x="-2" y="59"/>
      <point x="18" y="80" type="qcurve" smooth="yes"/>
      <point x="178" y="240"/>
      <point x="334" y="451" type="qcurve" smooth="yes"/>
      <point x="590" y="797"/>
      <point x="588" y="979" type="qcurve" smooth="yes"/>
      <point x="584" y="1184"/>
      <point x="416" y="1184" type="qcurve" smooth="yes"/>
      <point x="266" y="1184"/>
      <point x="174" y="1020" type="qcurve" smooth="yes"/>
      <point x="162" y="997"/>
      <point x="127" y="1022" type="qcurve" smooth="yes"/>
      <point x="100" y="1038"/>
      <point x="109" y="1055" type="qcurve" smooth="yes"/>
      <point x="191" y="1213"/>
      <point x="319" y="1286" type="qcurve" smooth="yes"/>
      <point x="403" y="1333"/>
      <point x="496" y="1333" type="qcurve" smooth="yes"/>
      <point x="660" y="1333"/>
      <point x="758" y="1223" type="qcurve" smooth="yes"/>
      <point x="844" y="1127"/>
      <point x="844" y="989" type="qcurve" smooth="yes"/>
      <point x="844" y="799"/>
      <point x="569" y="489" type="qcurve" smooth="yes"/>
      <point x="510" y="423"/>
      <point x="279" y="193" type="qcurve"/>
      <point x="575" y="193" type="line" smooth="yes"/>
      <point x="690" y="193"/>
      <point x="733" y="211" type="qcurve" smooth="yes"/>
      <point x="782" y="234"/>
      <point x="811" y="291" type="qcurve" smooth="yes"/>
      <point x="821" y="311"/>
      <point x="864" y="295" type="qcurve" smooth="yes"/>
      <point x="903" y="281"/>
      <point x="897" y="266" type="qcurve" smooth="yes"/>
    </contour>
  </outline>
</glyph>
<glyph name="three" format="1">
  <advance width="954"/>
  <unicode hex="0033"/>
  <outline>
    <contour>
      <point x="856" y="426" type="qcurve" smooth="yes"/>
      <point x="856" y="252"/>
      <point x="731" y="125" type="qcurve" smooth="yes"/>
      <point x="588" y="-22"/>
      <point x="371" y="-23" type="qcurve" smooth="yes"/>
      <point x="228" y="-23"/>
      <point x="137" y="27" type="qcurve" smooth="yes"/>
      <point x="57" y="70"/>
      <point x="59" y="143" type="qcurve" smooth="yes"/>
      <point x="59" y="239"/>
      <point x="180" y="240" type="qcurve" smooth="yes"/>
      <point x="225" y="240"/>
      <point x="272" y="184" type="qcurve" smooth="yes"/>
      <point x="324" y="125" type="line" smooth="yes"/>
      <point x="369" y="78"/>
      <point x="424" y="78" type="qcurve" smooth="yes"/>
      <point x="524" y="78"/>
      <point x="578" y="211" type="qcurve" smooth="yes"/>
      <point x="613" y="297"/>
      <point x="612" y="401" type="qcurve" smooth="yes"/>
      <point x="612" y="534"/>
      <point x="530" y="610" type="qcurve" smooth="yes"/>
      <point x="464" y="673"/>
      <point x="367" y="674" type="qcurve" smooth="yes"/>
      <point x="308" y="674"/>
      <point x="260" y="657" type="qcurve"/>
      <point x="231" y="657"/>
      <point x="231" y="713" type="qcurve" smooth="yes"/>
      <point x="231" y="764"/>
      <point x="254" y="764" type="qcurve" smooth="yes"/>
      <point x="408" y="764"/>
      <point x="496" y="848" type="qcurve" smooth="yes"/>
      <point x="564" y="914"/>
      <point x="563" y="1008" type="qcurve" smooth="yes"/>
      <point x="563" y="1108"/>
      <point x="508" y="1163" type="qcurve" smooth="yes"/>
      <point x="469" y="1204"/>
      <point x="412" y="1204" type="qcurve" smooth="yes"/>
      <point x="322" y="1204"/>
      <point x="244" y="1120" type="qcurve" smooth="yes"/>
      <point x="213" y="1087"/>
      <point x="188" y="1049" type="qcurve" smooth="yes"/>
      <point x="174" y="1029"/>
      <point x="139" y="1057" type="qcurve" smooth="yes"/>
      <point x="112" y="1077"/>
      <point x="123" y="1094" type="qcurve" smooth="yes"/>
      <point x="217" y="1235"/>
      <point x="305" y="1286" type="qcurve" smooth="yes"/>
      <point x="383" y="1331"/>
      <point x="479" y="1333" type="qcurve" smooth="yes"/>
      <point x="612" y="1333"/>
      <point x="702" y="1239" type="qcurve" smooth="yes"/>
      <point x="788" y="1153"/>
      <point x="788" y="1032" type="qcurve" smooth="yes"/>
      <point x="788" y="862"/>
      <point x="616" y="760" type="qcurve"/>
      <point x="856" y="688"/>
    </contour>
  </outline>
</glyph>
<glyph name="four" format="1">
  <advance width="954"/>
  <unicode hex="0034"/>
  <outline>
    <contour>
      <point x="768" y="156" type="line" smooth="yes"/>
      <point x="768" y="68"/>
      <point x="870" y="68" type="qcurve" smooth="yes"/>
      <point x="884" y="68"/>
      <point x="885" y="-8"/>
      <point x="870" y="-8" type="qcurve" smooth="yes"/>
      <point x="790" y="0"/>
      <point x="662" y="0" type="qcurve" smooth="yes"/>
      <point x="484" y="0"/>
      <point x="399" y="-8" type="qcurve" smooth="yes"/>
      <point x="385" y="-8"/>
      <point x="385" y="68"/>
      <point x="399" y="68" type="qcurve" smooth="yes"/>
      <point x="540" y="68"/>
      <point x="541" y="156" type="qcurve" smooth="yes"/>
      <point x="541" y="371" type="line"/>
      <point x="80" y="371" type="line" smooth="yes"/>
      <point x="-6" y="371"/>
      <point x="-6" y="428" type="qcurve" smooth="yes"/>
      <point x="-6" y="477"/>
      <point x="45" y="551" type="qcurve" smooth="yes"/>
      <point x="334" y="934" type="line" smooth="yes"/>
      <point x="522" y="1184"/>
      <point x="571" y="1264" type="qcurve" smooth="yes"/>
      <point x="666" y="1413" type="line" smooth="yes"/>
      <point x="680" y="1429"/>
      <point x="711" y="1430" type="qcurve" smooth="yes"/>
      <point x="797" y="1430"/>
      <point x="795" y="1376" type="qcurve" smooth="yes"/>
      <point x="795" y="1368"/>
      <point x="791" y="1360" type="qcurve" smooth="yes"/>
      <point x="174" y="545" type="line" smooth="yes"/>
      <point x="166" y="533"/>
      <point x="166" y="522" type="qcurve" smooth="yes"/>
      <point x="166" y="504"/>
      <point x="184" y="504" type="qcurve" smooth="yes"/>
      <point x="541" y="504" type="line"/>
      <point x="541" y="932" type="line" smooth="yes"/>
      <point x="541" y="955"/>
      <point x="653" y="954" type="qcurve" smooth="yes"/>
      <point x="768" y="954"/>
      <point x="768" y="932" type="qcurve" smooth="yes"/>
      <point x="768" y="504" type="line"/>
      <point x="891" y="504" type="line" smooth="yes"/>
      <point x="905" y="504"/>
      <point x="905" y="438" type="qcurve" smooth="yes"/>
      <point x="905" y="370"/>
      <point x="891" y="371" type="qcurve" smooth="yes"/>
      <point x="768" y="371" type="line"/>
    </contour>
  </outline>
</glyph>
<glyph name="five" format="1">
  <advance width="954"/>
  <unicode hex="0035"/>
  <outline>
    <contour>
      <point x="850" y="504" type="qcurve" smooth="yes"/>
      <point x="850" y="309"/>
      <point x="733" y="168" type="qcurve" smooth="yes"/>
      <point x="583" y="-14"/>
      <point x="334" y="-16" type="qcurve" smooth="yes"/>
      <point x="187" y="-16"/>
      <point x="111" y="35" type="qcurve" smooth="yes"/>
      <point x="56" y="72"/>
      <point x="55" y="129" type="qcurve" smooth="yes"/>
      <point x="55" y="182"/>
      <point x="90" y="209" type="qcurve" smooth="yes"/>
      <point x="121" y="232"/>
      <point x="170" y="231" type="qcurve" smooth="yes"/>
      <point x="231" y="231"/>
      <point x="274" y="178" type="qcurve" smooth="yes"/>
      <point x="348" y="92"/>
      <point x="418" y="92" type="qcurve" smooth="yes"/>
      <point x="524" y="90"/>
      <point x="598" y="201" type="qcurve" smooth="yes"/>
      <point x="659" y="291"/>
      <point x="659" y="397" type="qcurve" smooth="yes"/>
      <point x="659" y="551"/>
      <point x="555" y="635" type="qcurve" smooth="yes"/>
      <point x="471" y="703"/>
      <point x="344" y="702" type="qcurve" smooth="yes"/>
      <point x="278" y="702"/>
      <point x="207" y="682" type="qcurve" smooth="yes"/>
      <point x="191" y="678"/>
      <point x="180" y="678" type="qcurve" smooth="yes"/>
      <point x="143" y="678"/>
      <point x="147" y="711" type="qcurve" smooth="yes"/>
      <point x="190" y="990"/>
      <point x="244" y="1262" type="qcurve" smooth="yes"/>
      <point x="254" y="1317"/>
      <point x="313" y="1317" type="qcurve" smooth="yes"/>
      <point x="815" y="1317" type="line" smooth="yes"/>
      <point x="821" y="1317"/>
      <point x="821" y="1296" type="qcurve" smooth="yes"/>
      <point x="821" y="1278"/>
      <point x="815" y="1241" type="qcurve" smooth="yes"/>
      <point x="799" y="1128"/>
      <point x="780" y="1130" type="qcurve" smooth="yes"/>
      <point x="365" y="1130" type="line" smooth="yes"/>
      <point x="330" y="1130"/>
      <point x="328" y="1116" type="qcurve" smooth="yes"/>
      <point x="305" y="1024"/>
      <point x="297" y="926" type="qcurve" smooth="yes"/>
      <point x="297" y="910"/>
      <point x="311" y="911" type="qcurve" smooth="yes"/>
      <point x="352" y="917"/>
      <point x="383" y="918" type="qcurve" smooth="yes"/>
      <point x="614" y="918"/>
      <point x="741" y="793" type="qcurve" smooth="yes"/>
      <point x="850" y="682"/>
    </contour>
  </outline>
</glyph>
<glyph name="six" format="1">
  <advance width="954"/>
  <unicode hex="0036"/>
  <outline>
    <contour>
      <point x="901" y="406" type="qcurve" smooth="yes"/>
      <point x="901" y="240"/>
      <point x="793" y="123" type="qcurve" smooth="yes"/>
      <point x="668" y="-14"/>
      <point x="473" y="-16" type="qcurve" smooth="yes"/>
      <point x="248" y="-16"/>
      <point x="137" y="170" type="qcurve" smooth="yes"/>
      <point x="61" y="299"/>
      <point x="63" y="475" type="qcurve" smooth="yes"/>
      <point x="63" y="731"/>
      <point x="242" y="977" type="qcurve" smooth="yes"/>
      <point x="447" y="1260"/>
      <point x="762" y="1384" type="qcurve" smooth="yes"/>
      <point x="764" y="1384"/>
      <point x="768" y="1386" type="qcurve" smooth="yes"/>
      <point x="782" y="1386"/>
      <point x="793" y="1360" type="qcurve" smooth="yes"/>
      <point x="799" y="1344"/>
      <point x="799" y="1323"/>
      <point x="793" y="1321" type="qcurve" smooth="yes"/>
      <point x="553" y="1190"/>
      <point x="422" y="934" type="qcurve" smooth="yes"/>
      <point x="361" y="813"/>
      <point x="330" y="686" type="qcurve"/>
      <point x="389" y="762"/>
      <point x="485" y="788" type="qcurve" smooth="yes"/>
      <point x="518" y="796"/>
      <point x="549" y="797" type="qcurve" smooth="yes"/>
      <point x="711" y="797"/>
      <point x="813" y="666" type="qcurve" smooth="yes"/>
      <point x="901" y="556"/>
    </contour>
    <contour>
      <point x="682" y="348" type="qcurve" smooth="yes"/>
      <point x="682" y="448"/>
      <point x="623" y="547" type="qcurve" smooth="yes"/>
      <point x="564" y="643"/>
      <point x="469" y="643" type="qcurve" smooth="yes"/>
      <point x="379" y="643"/>
      <point x="309" y="565" type="qcurve"/>
      <point x="301" y="524"/>
      <point x="301" y="473" type="qcurve" smooth="yes"/>
      <point x="301" y="88"/>
      <point x="498" y="88" type="qcurve" smooth="yes"/>
      <point x="604" y="88"/>
      <point x="653" y="201" type="qcurve" smooth="yes"/>
      <point x="682" y="266"/>
    </contour>
  </outline>
</glyph>
<glyph name="seven" format="1">
  <advance width="954"/>
  <unicode hex="0037"/>
  <outline>
    <contour>
      <point x="406" y="0" type="line" smooth="yes"/>
      <point x="398" y="-23"/>
      <point x="313" y="-23" type="qcurve" smooth="yes"/>
      <point x="225" y="-23"/>
      <point x="178" y="2" type="qcurve" smooth="yes"/>
      <point x="174" y="6"/>
      <point x="174" y="20" type="qcurve" smooth="yes"/>
      <point x="723" y="1141" type="line"/>
      <point x="426" y="1141" type="line" smooth="yes"/>
      <point x="311" y="1141"/>
      <point x="254" y="1112" type="qcurve" smooth="yes"/>
      <point x="191" y="1079"/>
      <point x="160" y="1012" type="qcurve" smooth="yes"/>
      <point x="154" y="996"/>
      <point x="119" y="995" type="qcurve" smooth="yes"/>
      <point x="66" y="995"/>
      <point x="70" y="1018" type="qcurve" smooth="yes"/>
      <point x="121" y="1260" type="line" smooth="yes"/>
      <point x="129" y="1299"/>
      <point x="139" y="1309" type="qcurve" smooth="yes"/>
      <point x="149" y="1317"/>
      <point x="176" y="1317" type="qcurve" smooth="yes"/>
      <point x="858" y="1317" type="line" smooth="yes"/>
      <point x="913" y="1317"/>
      <point x="913" y="1284" type="qcurve" smooth="yes"/>
      <point x="913" y="1276"/>
      <point x="909" y="1264" type="qcurve" smooth="yes"/>
    </contour>
  </outline>
</glyph>
<glyph name="eight" format="1">
  <advance width="954"/>
  <unicode hex="0038"/>
  <outline>
    <contour>
      <point x="889" y="348" type="qcurve" smooth="yes"/>
      <point x="889" y="190"/>
      <point x="768" y="86" type="qcurve" smooth="yes"/>
      <point x="645" y="-16"/>
      <point x="477" y="-16" type="qcurve" smooth="yes"/>
      <point x="307" y="-16"/>
      <point x="190" y="76" type="qcurve" smooth="yes"/>
      <point x="67" y="172"/>
      <point x="68" y="334" type="qcurve" smooth="yes"/>
      <point x="68" y="512"/>
      <point x="322" y="662" type="qcurve"/>
      <point x="105" y="795"/>
      <point x="104" y="989" type="qcurve" smooth="yes"/>
      <point x="104" y="1134"/>
      <point x="213" y="1237" type="qcurve" smooth="yes"/>
      <point x="317" y="1333"/>
      <point x="477" y="1333" type="qcurve" smooth="yes"/>
      <point x="659" y="1333"/>
      <point x="762" y="1235" type="qcurve" smooth="yes"/>
      <point x="848" y="1151"/>
      <point x="846" y="1018" type="qcurve" smooth="yes"/>
      <point x="846" y="838"/>
      <point x="635" y="717" type="qcurve"/>
      <point x="889" y="565"/>
    </contour>
    <contour>
      <point x="633" y="979" type="qcurve" smooth="yes"/>
      <point x="633" y="1118"/>
      <point x="565" y="1188" type="qcurve" smooth="yes"/>
      <point x="520" y="1233"/>
      <point x="453" y="1233" type="qcurve" smooth="yes"/>
      <point x="365" y="1233"/>
      <point x="319" y="1153" type="qcurve" smooth="yes"/>
      <point x="294" y="1108"/>
      <point x="295" y="1053" type="qcurve" smooth="yes"/>
      <point x="295" y="918"/>
      <point x="524" y="780" type="qcurve"/>
      <point x="633" y="844"/>
    </contour>
    <contour>
      <point x="672" y="281" type="qcurve" smooth="yes"/>
      <point x="672" y="447"/>
      <point x="426" y="596" type="qcurve"/>
      <point x="297" y="520"/>
      <point x="297" y="352" type="qcurve" smooth="yes"/>
      <point x="297" y="235"/>
      <point x="358" y="154" type="qcurve" smooth="yes"/>
      <point x="417" y="76"/>
      <point x="598" y="76"/>
      <point x="645" y="166" type="qcurve" smooth="yes"/>
      <point x="672" y="218"/>
    </contour>
  </outline>
</glyph>
<glyph name="nine" format="1">
  <advance width="954"/>
  <unicode hex="0039"/>
  <outline>
    <contour>
      <point x="893" y="854" type="qcurve" smooth="yes"/>
      <point x="893" y="549"/>
      <point x="657" y="283" type="qcurve" smooth="yes"/>
      <point x="481" y="84"/>
      <point x="215" y="-41" type="qcurve" smooth="yes"/>
      <point x="197" y="-49"/>
      <point x="176" y="-8" type="qcurve" smooth="yes"/>
      <point x="164" y="17"/>
      <point x="166" y="29" type="qcurve" smooth="yes"/>
      <point x="166" y="39"/>
      <point x="172" y="43" type="qcurve" smooth="yes"/>
      <point x="375" y="156"/>
      <point x="477" y="301" type="qcurve" smooth="yes"/>
      <point x="563" y="420"/>
      <point x="625" y="627" type="qcurve"/>
      <point x="578" y="580"/>
      <point x="496" y="551" type="qcurve" smooth="yes"/>
      <point x="453" y="537"/>
      <point x="416" y="535" type="qcurve" smooth="yes"/>
      <point x="250" y="535"/>
      <point x="154" y="645" type="qcurve" smooth="yes"/>
      <point x="56" y="760"/>
      <point x="55" y="893" type="qcurve" smooth="yes"/>
      <point x="55" y="1081"/>
      <point x="166" y="1202" type="qcurve" smooth="yes"/>
      <point x="287" y="1333"/>
      <point x="483" y="1333" type="qcurve" smooth="yes"/>
      <point x="690" y="1333"/>
      <point x="803" y="1167" type="qcurve" smooth="yes"/>
      <point x="893" y="1032"/>
    </contour>
    <contour>
      <point x="653" y="852" type="qcurve" smooth="yes"/>
      <point x="653" y="1227"/>
      <point x="453" y="1227" type="qcurve" smooth="yes"/>
      <point x="347" y="1227"/>
      <point x="303" y="1094" type="qcurve" smooth="yes"/>
      <point x="285" y="1033"/>
      <point x="285" y="958" type="qcurve" smooth="yes"/>
      <point x="285" y="854"/>
      <point x="340" y="768" type="qcurve" smooth="yes"/>
      <point x="397" y="676"/>
      <point x="481" y="674" type="qcurve" smooth="yes"/>
      <point x="581" y="674"/>
      <point x="641" y="733" type="qcurve"/>
      <point x="653" y="778"/>
    </contour>
  </outline>
</glyph>
<glyph name="colon" format="1">
  <advance width="591"/>
  <unicode hex="003A"/>
  <outline>
    <contour>
      <point x="483" y="702" type="qcurve" smooth="yes"/>
      <point x="483" y="636"/>
      <point x="397" y="563"/>
      <point x="272" y="563"/>
      <point x="186" y="645"/>
      <point x="186" y="764"/>
      <point x="264" y="852"/>
      <point x="408" y="852"/>
      <point x="483" y="759"/>
    </contour>
    <contour>
      <point x="483" y="113" type="qcurve" smooth="yes"/>
      <point x="483" y="47"/>
      <point x="397" y="-27"/>
      <point x="272" y="-27"/>
      <point x="186" y="55"/>
      <point x="186" y="174"/>
      <point x="264" y="262"/>
      <point x="408" y="262"/>
      <point x="483" y="170"/>
    </contour>
  </outline>
</glyph>
<glyph name="semicolon" format="1">
  <advance width="591"/>
  <unicode hex="003B"/>
  <outline>
    <contour>
      <point x="526" y="49" type="qcurve" smooth="yes"/>
      <point x="526" y="-88"/>
      <point x="338" y="-317"/>
      <point x="219" y="-373" type="qcurve" smooth="yes"/>
      <point x="196" y="-383"/>
      <point x="170" y="-344"/>
      <point x="182" y="-330" type="qcurve" smooth="yes"/>
      <point x="319" y="-168"/>
      <point x="319" y="-63" type="qcurve" smooth="yes"/>
      <point x="319" y="-43"/>
      <point x="254" y="-20"/>
      <point x="166" y="72"/>
      <point x="166" y="193"/>
      <point x="262" y="268"/>
      <point x="397" y="268"/>
      <point x="526" y="145"/>
    </contour>
    <contour>
      <point x="455" y="707" type="qcurve" smooth="yes"/>
      <point x="455" y="646"/>
      <point x="371" y="563"/>
      <point x="246" y="563"/>
      <point x="156" y="645"/>
      <point x="156" y="770"/>
      <point x="240" y="856"/>
      <point x="377" y="856"/>
      <point x="455" y="768"/>
    </contour>
  </outline>
</glyph>
<glyph name="equal" format="1">
  <advance width="997"/>
  <unicode hex="003D"/>
  <outline>
    <contour>
      <point x="897" y="575" type="line"/>
      <point x="68" y="575" type="line"/>
      <point x="68" y="717" type="line"/>
      <point x="897" y="717" type="line"/>
    </contour>
    <contour>
      <point x="897" y="268" type="line"/>
      <point x="68" y="268" type="line"/>
      <point x="68" y="410" type="line"/>
      <point x="897" y="410" type="line"/>
    </contour>
  </outline>
</glyph>
<glyph name="at" format="1">
  <advance width="1595"/>
  <unicode hex="0040"/>
  <outline>
    <contour>
      <point x="1198" y="109" type="qcurve" smooth="yes"/>
      <point x="1210" y="86"/>
      <point x="1194" y="76" type="qcurve" smooth="yes"/>
      <point x="1018" y="-33"/>
      <point x="782" y="-33" type="qcurve" smooth="yes"/>
      <point x="542" y="-33"/>
      <point x="356" y="82" type="qcurve" smooth="yes"/>
      <point x="71" y="256"/>
      <point x="72" y="602" type="qcurve" smooth="yes"/>
      <point x="72" y="899"/>
      <point x="260" y="1110" type="qcurve" smooth="yes"/>
      <point x="506" y="1384"/>
      <point x="901" y="1384" type="qcurve" smooth="yes"/>
      <point x="1182" y="1384"/>
      <point x="1356" y="1229" type="qcurve" smooth="yes"/>
      <point x="1526" y="1075"/>
      <point x="1526" y="848" type="qcurve" smooth="yes"/>
      <point x="1526" y="674"/>
      <point x="1411" y="539" type="qcurve" smooth="yes"/>
      <point x="1253" y="353"/>
      <point x="975" y="352" type="qcurve" smooth="yes"/>
      <point x="873" y="352"/>
      <point x="846" y="389" type="qcurve" smooth="yes"/>
      <point x="832" y="407"/>
      <point x="831" y="436" type="qcurve" smooth="yes"/>
      <point x="831" y="463"/>
      <point x="850" y="518" type="qcurve"/>
      <point x="840" y="524" type="line"/>
      <point x="688" y="358"/>
      <point x="590" y="358" type="qcurve" smooth="yes"/>
      <point x="477" y="358"/>
      <point x="477" y="494" type="qcurve" smooth="yes"/>
      <point x="477" y="611"/>
      <point x="555" y="752" type="qcurve" smooth="yes"/>
      <point x="641" y="908"/>
      <point x="762" y="975" type="qcurve" smooth="yes"/>
      <point x="832" y="1014"/>
      <point x="899" y="1014" type="qcurve" smooth="yes"/>
      <point x="960" y="1014"/>
      <point x="991" y="983" type="qcurve"/>
      <point x="1012" y="1034" type="line" smooth="yes"/>
      <point x="1024" y="1067"/>
      <point x="1085" y="1049" type="qcurve" smooth="yes"/>
      <point x="1134" y="1035"/>
      <point x="1128" y="1010" type="qcurve" smooth="yes"/>
      <point x="987" y="532" type="line" smooth="yes"/>
      <point x="979" y="501"/>
      <point x="979" y="471" type="qcurve" smooth="yes"/>
      <point x="979" y="430"/>
      <point x="1001" y="430" type="qcurve" smooth="yes"/>
      <point x="1163" y="430"/>
      <point x="1274" y="539" type="qcurve" smooth="yes"/>
      <point x="1397" y="662"/>
      <point x="1397" y="840" type="qcurve" smooth="yes"/>
      <point x="1397" y="1026"/>
      <point x="1268" y="1153" type="qcurve" smooth="yes"/>
      <point x="1121" y="1298"/>
      <point x="883" y="1298" type="qcurve" smooth="yes"/>
      <point x="631" y="1298"/>
      <point x="459" y="1124" type="qcurve" smooth="yes"/>
      <point x="254" y="919"/>
      <point x="254" y="604" type="qcurve" smooth="yes"/>
      <point x="254" y="424"/>
      <point x="350" y="283" type="qcurve" smooth="yes"/>
      <point x="506" y="56"/>
      <point x="844" y="55" type="qcurve" smooth="yes"/>
      <point x="1002" y="55"/>
      <point x="1167" y="127" type="qcurve" smooth="yes"/>
      <point x="1186" y="134"/>
    </contour>
    <contour>
      <point x="967" y="920" type="line"/>
      <point x="947" y="967"/>
      <point x="883" y="967" type="qcurve" smooth="yes"/>
      <point x="803" y="967"/>
      <point x="725" y="821" type="qcurve" smooth="yes"/>
      <point x="631" y="649"/>
      <point x="629" y="518" type="qcurve" smooth="yes"/>
      <point x="629" y="448"/>
      <point x="659" y="449" type="qcurve" smooth="yes"/>
      <point x="712" y="449"/>
      <point x="825" y="580" type="qcurve" smooth="yes"/>
      <point x="886" y="652"/>
      <point x="924" y="772" type="qcurve" smooth="yes"/>
    </contour>
  </outline>
</glyph>
<glyph name="A" format="1">
  <advance width="1400"/>
  <unicode hex="0041"/>
  <outline>
    <contour>
      <point x="674" y="1425" type="move" name="Anchor1"/>
    </contour>
    <contour>
      <point x="674" y="1425" type="move" name="Anchor-1"/>
    </contour>
    <contour>
      <point x="1196" y="203" type="line" smooth="yes"/>
      <point x="1237" y="86"/>
      <point x="1399" y="86" type="qcurve" smooth="yes"/>
      <point x="1413" y="86"/>
      <point x="1413" y="-6"/>
      <point x="1399" y="-6" type="qcurve" smooth="yes"/>
      <point x="1284" y="0"/>
      <point x="983" y="0"/>
      <point x="858" y="-6" type="qcurve" smooth="yes"/>
      <point x="844" y="-6"/>
      <point x="844" y="86"/>
      <point x="858" y="86" type="qcurve" smooth="yes"/>
      <point x="954" y="86"/>
      <point x="954" y="152" type="qcurve" smooth="yes"/>
      <point x="954" y="172"/>
      <point x="944" y="203" type="qcurve" smooth="yes"/>
      <point x="844" y="500" type="line" smooth="yes"/>
      <point x="838" y="523"/>
      <point x="811" y="522" type="qcurve" smooth="yes"/>
      <point x="436" y="522" type="line" smooth="yes"/>
      <point x="416" y="522"/>
      <point x="406" y="494" type="qcurve" smooth="yes"/>
      <point x="297" y="201" type="line" smooth="yes"/>
      <point x="289" y="176"/>
      <point x="287" y="160" type="qcurve" smooth="yes"/>
      <point x="287" y="86"/>
      <point x="434" y="86" type="qcurve" smooth="yes"/>
      <point x="446" y="86"/>
      <point x="446" y="-6"/>
      <point x="434" y="-6" type="qcurve" smooth="yes"/>
      <point x="350" y="0"/>
      <point x="51" y="0"/>
      <point x="-27" y="-6" type="qcurve" smooth="yes"/>
      <point x="-41" y="-6"/>
      <point x="-41" y="86"/>
      <point x="-27" y="86" type="qcurve" smooth="yes"/>
      <point x="125" y="86"/>
      <point x="174" y="217" type="qcurve" smooth="yes"/>
      <point x="545" y="1186" type="line" smooth="yes"/>
      <point x="557" y="1217"/>
      <point x="557" y="1231"/>
      <point x="528" y="1260"/>
      <point x="528" y="1268" type="qcurve" smooth="yes"/>
      <point x="528" y="1282"/>
      <point x="596" y="1305"/>
      <point x="735" y="1389"/>
      <point x="756" y="1389" type="qcurve" smooth="yes"/>
      <point x="789" y="1389"/>
      <point x="811" y="1294"/>
      <point x="852" y="1178" type="qcurve" smooth="yes"/>
    </contour>
    <contour>
      <point x="649" y="1067" type="line" smooth="yes"/>
      <point x="645" y="1083"/>
      <point x="633" y="1083" type="qcurve" smooth="yes"/>
      <point x="623" y="1083"/>
      <point x="616" y="1067" type="qcurve" smooth="yes"/>
      <point x="459" y="635" type="line"/>
      <point x="455" y="618" type="line" smooth="yes"/>
      <point x="455" y="608"/>
      <point x="475" y="606" type="qcurve" smooth="yes"/>
      <point x="768" y="606" type="line" smooth="yes"/>
      <point x="797" y="606"/>
      <point x="797" y="629" type="qcurve" smooth="yes"/>
      <point x="797" y="635"/>
      <point x="793" y="643" type="qcurve" smooth="yes"/>
    </contour>
  </outline>
</glyph>
<glyph name="B" format="1">
  <advance width="1298"/>
  <unicode hex="0042"/>
  <outline>
    <contour>
      <point x="76" y="-6" type="qcurve" smooth="yes"/>
      <point x="62" y="-6"/>
      <point x="62" y="86"/>
      <point x="76" y="86" type="qcurve" smooth="yes"/>
      <point x="160" y="86"/>
      <point x="238" y="160"/>
      <point x="238" y="203" type="qcurve" smooth="yes"/>
      <point x="238" y="1155" type="line" smooth="yes"/>
      <point x="238" y="1264"/>
      <point x="66" y="1266" type="qcurve" smooth="yes"/>
      <point x="52" y="1266"/>
      <point x="52" y="1358"/>
      <point x="66" y="1358" type="qcurve" smooth="yes"/>
      <point x="209" y="1352"/>
      <point x="399" y="1352"/>
      <point x="578" y="1358"/>
      <point x="639" y="1358" type="qcurve" smooth="yes"/>
      <point x="856" y="1358"/>
      <point x="1083" y="1174"/>
      <point x="1083" y="1018" type="qcurve" smooth="yes"/>
      <point x="1083" y="932"/>
      <point x="981" y="788"/>
      <point x="903" y="752" type="qcurve"/>
      <point x="885" y="742"/>
      <point x="885" y="727"/>
      <point x="905" y="719" type="qcurve"/>
      <point x="1022" y="680"/>
      <point x="1180" y="487"/>
      <point x="1180" y="371" type="qcurve" smooth="yes"/>
      <point x="1180" y="219"/>
      <point x="952" y="-6"/>
      <point x="643" y="-6" type="qcurve" smooth="yes"/>
      <point x="598" y="-6"/>
      <point x="430" y="0"/>
      <point x="291" y="0"/>
    </contour>
    <contour>
      <point x="481" y="797" type="line" smooth="yes"/>
      <point x="481" y="777"/>
      <point x="498.5" y="772.5" type="qcurve" smooth="yes"/>
      <point x="516" y="768"/>
      <point x="553" y="768" type="qcurve" smooth="yes"/>
      <point x="698" y="768"/>
      <point x="840" y="903"/>
      <point x="840" y="1014" type="qcurve" smooth="yes"/>
      <point x="840" y="1143"/>
      <point x="668" y="1280"/>
      <point x="500" y="1280" type="qcurve" smooth="yes"/>
      <point x="482" y="1280"/>
      <point x="481" y="1262" type="qcurve"/>
    </contour>
    <contour>
      <point x="481" y="250" type="line" smooth="yes"/>
      <point x="481" y="76"/>
      <point x="631" y="76" type="qcurve"/>
      <point x="909" y="86"/>
      <point x="909" y="371" type="qcurve" smooth="yes"/>
      <point x="909" y="510"/>
      <point x="723" y="672"/>
      <point x="506" y="674" type="qcurve"/>
      <point x="481" y="672"/>
      <point x="481" y="639" type="qcurve" smooth="yes"/>
    </contour>
  </outline>
</glyph>
<glyph name="C" format="1">
  <advance width="1347"/>
  <unicode hex="0043"/>
  <outline>
    <contour>
      <point x="55" y="647" type="qcurve" smooth="yes"/>
      <point x="55" y="960"/>
      <point x="465" y="1384"/>
      <point x="795" y="1384" type="qcurve" smooth="yes"/>
      <point x="924" y="1384"/>
      <point x="1133" y="1341" type="qcurve" smooth="yes"/>
      <point x="1188" y="1331"/>
      <point x="1239" y="1329" type="qcurve"/>
      <point x="1272" y="1239"/>
      <point x="1280" y="1004" type="qcurve" smooth="yes"/>
      <point x="1280" y="986"/>
      <point x="1188" y="979"/>
      <point x="1186" y="995" type="qcurve" smooth="yes"/>
      <point x="1176" y="1106"/>
      <point x="1065" y="1239"/>
      <point x="897" y="1296"/>
      <point x="788" y="1296" type="qcurve" smooth="yes"/>
      <point x="581" y="1296"/>
      <point x="328" y="961"/>
      <point x="328" y="705" type="qcurve" smooth="yes"/>
      <point x="328" y="408"/>
      <point x="608" y="68"/>
      <point x="784" y="68" type="qcurve" smooth="yes"/>
      <point x="1126" y="68"/>
      <point x="1225" y="344" type="qcurve" smooth="yes"/>
      <point x="1231" y="362"/>
      <point x="1321" y="342"/>
      <point x="1321" y="322" type="qcurve" smooth="yes"/>
      <point x="1317" y="265"/>
      <point x="1241" y="72"/>
      <point x="1217" y="37" type="qcurve"/>
      <point x="1170" y="31"/>
      <point x="1128" y="16" type="qcurve" smooth="yes"/>
      <point x="974" y="-27"/>
      <point x="770" y="-27" type="qcurve" smooth="yes"/>
      <point x="477" y="-27"/>
      <point x="55" y="352"/>
    </contour>
  </outline>
</glyph>
<glyph name="D" format="1">
  <advance width="1566"/>
  <unicode hex="0044"/>
  <outline>
    <contour>
      <point x="238" y="203" type="qcurve" smooth="yes"/>
      <point x="238" y="1155" type="line" smooth="yes"/>
      <point x="238" y="1264"/>
      <point x="66" y="1266" type="qcurve" smooth="yes"/>
      <point x="52" y="1266"/>
      <point x="52" y="1358"/>
      <point x="66" y="1358" type="qcurve"/>
      <point x="209" y="1352"/>
      <point x="399" y="1352"/>
      <point x="645" y="1358"/>
      <point x="719" y="1358" type="qcurve" smooth="yes"/>
      <point x="1049" y="1358"/>
      <point x="1487" y="1020"/>
      <point x="1487" y="725" type="qcurve" smooth="yes"/>
      <point x="1487" y="387"/>
      <point x="1090" y="-6"/>
      <point x="766" y="-6" type="qcurve" smooth="yes"/>
      <point x="703" y="-6"/>
      <point x="414" y="0"/>
      <point x="207" y="0"/>
      <point x="76" y="-6" type="qcurve"/>
      <point x="61" y="-6"/>
      <point x="61" y="86"/>
      <point x="76" y="86" type="qcurve" smooth="yes"/>
      <point x="238" y="86"/>
    </contour>
    <contour>
      <point x="481" y="272" type="line" smooth="yes"/>
      <point x="481" y="122"/>
      <point x="567" y="86" type="qcurve"/>
      <point x="606" y="72"/>
      <point x="698" y="72" type="qcurve" smooth="yes"/>
      <point x="915" y="72"/>
      <point x="1214" y="412"/>
      <point x="1214" y="717" type="qcurve" smooth="yes"/>
      <point x="1214" y="930"/>
      <point x="909" y="1280"/>
      <point x="637" y="1280" type="qcurve" smooth="yes"/>
      <point x="557" y="1280" type="line" smooth="yes"/>
      <point x="481" y="1280"/>
      <point x="481" y="1200" type="qcurve" smooth="yes"/>
    </contour>
  </outline>
</glyph>
<glyph name="E" format="1">
  <advance width="1249"/>
  <unicode hex="0045"/>
  <outline>
    <contour>
      <point x="627" y="1425" type="move" name="Anchor1"/>
    </contour>
    <contour>
      <point x="627" y="1425" type="move" name="Anchor-1"/>
    </contour>
    <contour>
      <point x="238" y="203" type="qcurve" smooth="yes"/>
      <point x="238" y="1155" type="line" smooth="yes"/>
      <point x="238" y="1264"/>
      <point x="66" y="1266" type="qcurve" smooth="yes"/>
      <point x="52" y="1266"/>
      <point x="52" y="1358"/>
      <point x="66" y="1358" type="qcurve" smooth="yes"/>
      <point x="209" y="1352"/>
      <point x="521" y="1352"/>
      <point x="950" y="1358"/>
      <point x="1071" y="1358" type="qcurve" smooth="yes"/>
      <point x="1128" y="1358"/>
      <point x="1128" y="1307" type="qcurve" smooth="yes"/>
      <point x="1128" y="1001" type="line" smooth="yes"/>
      <point x="1128" y="984"/>
      <point x="1028" y="984"/>
      <point x="1028" y="1001" type="qcurve" smooth="yes"/>
      <point x="1028" y="1130"/>
      <point x="930" y="1206" type="qcurve" smooth="yes"/>
      <point x="869" y="1253"/>
      <point x="805" y="1255" type="qcurve" smooth="yes"/>
      <point x="508" y="1266" type="line" smooth="yes"/>
      <point x="481" y="1266"/>
      <point x="481" y="1225" type="qcurve" smooth="yes"/>
      <point x="481" y="717" type="line" smooth="yes"/>
      <point x="481" y="688"/>
      <point x="510" y="686" type="qcurve"/>
      <point x="645" y="686" type="line" smooth="yes"/>
      <point x="768" y="686"/>
      <point x="768" y="778" type="qcurve" smooth="yes"/>
      <point x="768" y="877" type="line" smooth="yes"/>
      <point x="768" y="891"/>
      <point x="872" y="891"/>
      <point x="872" y="877" type="qcurve"/>
      <point x="866" y="809"/>
      <point x="866" y="481"/>
      <point x="872" y="420" type="qcurve"/>
      <point x="872" y="406"/>
      <point x="768" y="403"/>
      <point x="768" y="420" type="qcurve" smooth="yes"/>
      <point x="768" y="506" type="line" smooth="yes"/>
      <point x="768" y="594"/>
      <point x="645" y="594" type="qcurve" smooth="yes"/>
      <point x="510" y="594" type="line" smooth="yes"/>
      <point x="481" y="594"/>
      <point x="481" y="563" type="qcurve" smooth="yes"/>
      <point x="481" y="221" type="line" smooth="yes"/>
      <point x="481" y="143"/>
      <point x="555" y="106" type="qcurve" smooth="yes"/>
      <point x="594" y="86"/>
      <point x="637" y="86" type="qcurve" smooth="yes"/>
      <point x="860" y="90" type="line" smooth="yes"/>
      <point x="1018" y="92"/>
      <point x="1065" y="227" type="qcurve" smooth="yes"/>
      <point x="1083" y="276"/>
      <point x="1083" y="344" type="qcurve" smooth="yes"/>
      <point x="1083" y="360"/>
      <point x="1186" y="360"/>
      <point x="1186" y="344" type="qcurve" smooth="yes"/>
      <point x="1186" y="57" type="line" smooth="yes"/>
      <point x="1186" y="-6"/>
      <point x="1067" y="-6" type="qcurve" smooth="yes"/>
      <point x="881" y="-6"/>
      <point x="535" y="0"/>
      <point x="211" y="0"/>
      <point x="76" y="-6" type="qcurve" smooth="yes"/>
      <point x="61" y="-6"/>
      <point x="61" y="86"/>
      <point x="76" y="86" type="qcurve" smooth="yes"/>
      <point x="238" y="86"/>
    </contour>
  </outline>
</glyph>
<glyph name="F" format="1">
  <advance width="1189"/>
  <unicode hex="0046"/>
  <outline>
    <contour>
      <point x="238" y="203" type="qcurve" smooth="yes"/>
      <point x="238" y="1155" type="line" smooth="yes"/>
      <point x="238" y="1264"/>
      <point x="66" y="1266" type="qcurve" smooth="yes"/>
      <point x="52" y="1266"/>
      <point x="52" y="1358"/>
      <point x="66" y="1358" type="qcurve" smooth="yes"/>
      <point x="209" y="1352"/>
      <point x="497" y="1352"/>
      <point x="942" y="1358"/>
      <point x="1069" y="1358" type="qcurve" smooth="yes"/>
      <point x="1128" y="1358"/>
      <point x="1128" y="1307" type="qcurve" smooth="yes"/>
      <point x="1128" y="1001" type="line" smooth="yes"/>
      <point x="1128" y="984"/>
      <point x="1028" y="984"/>
      <point x="1028" y="1001" type="qcurve" smooth="yes"/>
      <point x="1028" y="1114"/>
      <point x="885" y="1251"/>
      <point x="805" y="1255" type="qcurve" smooth="yes"/>
      <point x="590" y="1265"/>
      <point x="508" y="1266" type="qcurve" smooth="yes"/>
      <point x="481" y="1266"/>
      <point x="481" y="1225" type="qcurve" smooth="yes"/>
      <point x="481" y="756" type="line" smooth="yes"/>
      <point x="481" y="725"/>
      <point x="510" y="725" type="qcurve" smooth="yes"/>
      <point x="645" y="725" type="line" smooth="yes"/>
      <point x="737" y="725"/>
      <point x="737" y="815" type="qcurve" smooth="yes"/>
      <point x="737" y="952" type="line" smooth="yes"/>
      <point x="737" y="967"/>
      <point x="842" y="967"/>
      <point x="842" y="952" type="qcurve"/>
      <point x="836" y="884"/>
      <point x="836" y="469"/>
      <point x="842" y="399" type="qcurve"/>
      <point x="842" y="386"/>
      <point x="737" y="386"/>
      <point x="737" y="399" type="qcurve" smooth="yes"/>
      <point x="737" y="543" type="line" smooth="yes"/>
      <point x="737" y="631"/>
      <point x="645" y="633" type="qcurve"/>
      <point x="510" y="633" type="line" smooth="yes"/>
      <point x="481" y="633"/>
      <point x="481" y="602" type="qcurve" smooth="yes"/>
      <point x="481" y="203" type="line" smooth="yes"/>
      <point x="481" y="86"/>
      <point x="635" y="86" type="qcurve" smooth="yes"/>
      <point x="648" y="86"/>
      <point x="648" y="-6"/>
      <point x="635" y="-6" type="qcurve" smooth="yes"/>
      <point x="541" y="0"/>
      <point x="180" y="0"/>
      <point x="76" y="-6" type="qcurve" smooth="yes"/>
      <point x="61" y="-6"/>
      <point x="61" y="86"/>
      <point x="76" y="86" type="qcurve" smooth="yes"/>
      <point x="238" y="86"/>
    </contour>
  </outline>
</glyph>
<glyph name="G" format="1">
  <advance width="1441"/>
  <unicode hex="0047"/>
  <outline>
    <contour>
      <point x="832" y="569"/>
      <point x="846" y="569" type="qcurve"/>
      <point x="905" y="563"/>
      <point x="1331" y="563"/>
      <point x="1391" y="569" type="qcurve"/>
      <point x="1404" y="569"/>
      <point x="1404" y="477"/>
      <point x="1391" y="477" type="qcurve" smooth="yes"/>
      <point x="1282" y="477"/>
      <point x="1282" y="401" type="qcurve" smooth="yes"/>
      <point x="1282" y="160" type="line" smooth="yes"/>
      <point x="1282" y="115"/>
      <point x="1325" y="115" type="qcurve" smooth="yes"/>
      <point x="1339" y="115"/>
      <point x="1339" y="35"/>
      <point x="1325" y="35" type="qcurve" smooth="yes"/>
      <point x="1276" y="35"/>
      <point x="903" y="-27"/>
      <point x="770" y="-27" type="qcurve" smooth="yes"/>
      <point x="508" y="-27"/>
      <point x="307" y="127" type="qcurve"/>
      <point x="55" y="326"/>
      <point x="55" y="647" type="qcurve" smooth="yes"/>
      <point x="55" y="913"/>
      <point x="207" y="1110" type="qcurve" smooth="yes"/>
      <point x="420" y="1384"/>
      <point x="795" y="1384" type="qcurve" smooth="yes"/>
      <point x="926" y="1384"/>
      <point x="1112" y="1348" type="qcurve"/>
      <point x="1182" y="1330"/>
      <point x="1239" y="1329" type="qcurve"/>
      <point x="1268" y="1270"/>
      <point x="1278" y="1055" type="qcurve"/>
      <point x="1280" y="1004" type="line" smooth="yes"/>
      <point x="1280" y="986"/>
      <point x="1190" y="979"/>
      <point x="1186" y="995" type="qcurve"/>
      <point x="1168" y="1204"/>
      <point x="975" y="1270" type="qcurve"/>
      <point x="895" y="1296"/>
      <point x="788" y="1296" type="qcurve" smooth="yes"/>
      <point x="581" y="1296"/>
      <point x="328" y="961"/>
      <point x="328" y="705" type="qcurve" smooth="yes"/>
      <point x="328" y="381"/>
      <point x="629" y="68"/>
      <point x="784" y="68" type="qcurve" smooth="yes"/>
      <point x="895" y="68"/>
      <point x="1038" y="117"/>
      <point x="1038" y="160" type="qcurve" smooth="yes"/>
      <point x="1038" y="401" type="line" smooth="yes"/>
      <point x="1038" y="477"/>
      <point x="926" y="477" type="qcurve" smooth="yes"/>
      <point x="846" y="477" type="line" smooth="yes"/>
      <point x="832" y="477"/>
    </contour>
  </outline>
</glyph>
<glyph name="H" format="1">
  <advance width="1685"/>
  <unicode hex="0048"/>
  <outline>
    <contour>
      <point x="1432" y="203" type="line" smooth="yes"/>
      <point x="1432" y="86"/>
      <point x="1591" y="86" type="qcurve" smooth="yes"/>
      <point x="1606" y="86"/>
      <point x="1606" y="-6"/>
      <point x="1591" y="-6" type="qcurve"/>
      <point x="1464" y="0"/>
      <point x="1159" y="0"/>
      <point x="1026" y="-6" type="qcurve"/>
      <point x="1012" y="-6"/>
      <point x="1012" y="86"/>
      <point x="1026" y="86" type="qcurve" smooth="yes"/>
      <point x="1188" y="86"/>
      <point x="1188" y="203" type="qcurve" smooth="yes"/>
      <point x="1188" y="618" type="line" smooth="yes"/>
      <point x="1188" y="653"/>
      <point x="1153" y="653" type="qcurve" smooth="yes"/>
      <point x="516" y="653" type="line" smooth="yes"/>
      <point x="481" y="653"/>
      <point x="481" y="618" type="qcurve" smooth="yes"/>
      <point x="481" y="203" type="line" smooth="yes"/>
      <point x="481" y="86"/>
      <point x="639" y="86" type="qcurve" smooth="yes"/>
      <point x="653" y="86"/>
      <point x="653" y="-6"/>
      <point x="639" y="-6" type="qcurve"/>
      <point x="506" y="0"/>
      <point x="200" y="0"/>
      <point x="76" y="-6" type="qcurve"/>
      <point x="61" y="-6"/>
      <point x="61" y="86"/>
      <point x="76" y="86" type="qcurve" smooth="yes"/>
      <point x="238" y="86"/>
      <point x="238" y="203" type="qcurve" smooth="yes"/>
      <point x="238" y="1153" type="line" smooth="yes"/>
      <point x="238" y="1270"/>
      <point x="76" y="1270" type="qcurve" smooth="yes"/>
      <point x="62" y="1270"/>
      <point x="62" y="1364"/>
      <point x="76" y="1364" type="qcurve"/>
      <point x="123" y="1359"/>
      <point x="596" y="1359"/>
      <point x="643" y="1364" type="qcurve"/>
      <point x="658" y="1364"/>
      <point x="658" y="1270"/>
      <point x="643" y="1270" type="qcurve" smooth="yes"/>
      <point x="481" y="1270"/>
      <point x="481" y="1153" type="qcurve" smooth="yes"/>
      <point x="481" y="782" type="line" smooth="yes"/>
      <point x="481" y="748"/>
      <point x="516" y="748" type="qcurve" smooth="yes"/>
      <point x="1153" y="748" type="line" smooth="yes"/>
      <point x="1188" y="748"/>
      <point x="1188" y="782" type="qcurve" smooth="yes"/>
      <point x="1188" y="1153" type="line" smooth="yes"/>
      <point x="1188" y="1270"/>
      <point x="1028" y="1270" type="qcurve" smooth="yes"/>
      <point x="1014" y="1270"/>
      <point x="1014" y="1364"/>
      <point x="1028" y="1364" type="qcurve"/>
      <point x="1073" y="1358"/>
      <point x="1549" y="1358"/>
      <point x="1595" y="1364" type="qcurve"/>
      <point x="1610" y="1364"/>
      <point x="1610" y="1270"/>
      <point x="1595" y="1270" type="qcurve" smooth="yes"/>
      <point x="1432" y="1270"/>
      <point x="1432" y="1153" type="qcurve" smooth="yes"/>
    </contour>
  </outline>
</glyph>
<glyph name="I" format="1">
  <advance width="733"/>
  <unicode hex="0049"/>
  <outline>
    <contour>
      <point x="362" y="1425" type="move" name="Anchor1"/>
    </contour>
    <contour>
      <point x="362" y="1425" type="move" name="Anchor-1"/>
    </contour>
    <contour>
      <point x="76" y="-6" type="qcurve"/>
      <point x="61" y="-6"/>
      <point x="61" y="86"/>
      <point x="76" y="86" type="qcurve" smooth="yes"/>
      <point x="238" y="86"/>
      <point x="238" y="203" type="qcurve" smooth="yes"/>
      <point x="238" y="1153" type="line" smooth="yes"/>
      <point x="238" y="1270"/>
      <point x="76" y="1270" type="qcurve" smooth="yes"/>
      <point x="62" y="1270"/>
      <point x="62" y="1364"/>
      <point x="76" y="1364" type="qcurve"/>
      <point x="123" y="1358"/>
      <point x="596" y="1358"/>
      <point x="643" y="1364" type="qcurve"/>
      <point x="657" y="1364"/>
      <point x="657" y="1270"/>
      <point x="643" y="1270" type="qcurve" smooth="yes"/>
      <point x="481" y="1270"/>
      <point x="481" y="1153" type="qcurve" smooth="yes"/>
      <point x="481" y="203" type="line" smooth="yes"/>
      <point x="481" y="86"/>
      <point x="639" y="86" type="qcurve" smooth="yes"/>
      <point x="653" y="86"/>
      <point x="653" y="-6"/>
      <point x="639" y="-6" type="qcurve"/>
      <point x="506" y="0"/>
      <point x="200" y="0"/>
    </contour>
  </outline>
</glyph>
<glyph name="J" format="1">
  <advance width="716"/>
  <unicode hex="004A"/>
  <outline>
    <contour>
      <point x="-131" y="-276" type="qcurve" smooth="yes"/>
      <point x="-131" y="-215.838"/>
      <point x="-48.4998" y="-158"/>
      <point x="8" y="-158" type="qcurve" smooth="yes"/>
      <point x="82" y="-158"/>
      <point x="137" y="-215" type="qcurve" smooth="yes"/>
      <point x="162" y="-242"/>
      <point x="174" y="-276" type="qcurve"/>
      <point x="207" y="-251"/>
      <point x="231" y="-195" type="qcurve"/>
      <point x="256" y="-107"/>
      <point x="256" y="254" type="qcurve" smooth="yes"/>
      <point x="256" y="1153" type="line" smooth="yes"/>
      <point x="256" y="1270"/>
      <point x="86" y="1270" type="qcurve" smooth="yes"/>
      <point x="72" y="1270"/>
      <point x="72" y="1364"/>
      <point x="86" y="1364" type="qcurve"/>
      <point x="133" y="1359"/>
      <point x="627" y="1359"/>
      <point x="674" y="1364" type="qcurve"/>
      <point x="688" y="1364"/>
      <point x="688" y="1270"/>
      <point x="674" y="1270" type="qcurve" smooth="yes"/>
      <point x="502" y="1270"/>
      <point x="502" y="1153" type="qcurve" smooth="yes"/>
      <point x="502" y="629" type="line" smooth="yes"/>
      <point x="502" y="523"/>
      <point x="492" y="195" type="qcurve"/>
      <point x="492" y="-33"/>
      <point x="332" y="-299"/>
      <point x="205" y="-371" type="qcurve"/>
      <point x="119" y="-418"/>
      <point x="33" y="-420" type="qcurve"/>
      <point x="-18" y="-420"/>
      <point x="-131" y="-344"/>
    </contour>
  </outline>
</glyph>
<glyph name="K" format="1">
  <advance width="1380"/>
  <unicode hex="004B"/>
  <outline>
    <contour>
      <point x="1145" y="190" type="line" smooth="yes"/>
      <point x="1223" y="100"/>
      <point x="1323" y="88" type="qcurve" smooth="yes"/>
      <point x="1346" y="86"/>
      <point x="1382" y="86" type="qcurve" smooth="yes"/>
      <point x="1397" y="86"/>
      <point x="1397" y="-6"/>
      <point x="1382" y="-6" type="qcurve"/>
      <point x="1249" y="0"/>
      <point x="944" y="0"/>
      <point x="805" y="-6" type="qcurve"/>
      <point x="791" y="-6"/>
      <point x="791" y="86"/>
      <point x="805" y="86" type="qcurve" smooth="yes"/>
      <point x="889" y="86"/>
      <point x="889" y="125" type="qcurve" smooth="yes"/>
      <point x="889" y="152"/>
      <point x="848" y="203" type="qcurve" smooth="yes"/>
      <point x="590" y="524" type="line"/>
      <point x="527" y="598"/>
      <point x="481" y="598"/>
      <point x="481" y="569" type="qcurve" smooth="yes"/>
      <point x="481" y="203" type="line" smooth="yes"/>
      <point x="481" y="86"/>
      <point x="637" y="86" type="qcurve" smooth="yes"/>
      <point x="650" y="86"/>
      <point x="650" y="-6"/>
      <point x="637" y="-6" type="qcurve"/>
      <point x="504" y="0"/>
      <point x="200" y="0"/>
      <point x="76" y="-6" type="qcurve"/>
      <point x="61" y="-6"/>
      <point x="61" y="86"/>
      <point x="76" y="86" type="qcurve" smooth="yes"/>
      <point x="238" y="86"/>
      <point x="238" y="203" type="qcurve" smooth="yes"/>
      <point x="238" y="1153" type="line" smooth="yes"/>
      <point x="238" y="1270"/>
      <point x="66" y="1270" type="qcurve" smooth="yes"/>
      <point x="51" y="1270"/>
      <point x="51" y="1364"/>
      <point x="66" y="1364" type="qcurve"/>
      <point x="113" y="1358"/>
      <point x="594" y="1358"/>
      <point x="641" y="1364" type="qcurve"/>
      <point x="655" y="1364"/>
      <point x="655" y="1270"/>
      <point x="641" y="1270" type="qcurve" smooth="yes"/>
      <point x="481" y="1270"/>
      <point x="481" y="1153" type="qcurve" smooth="yes"/>
      <point x="481" y="797" type="line" smooth="yes"/>
      <point x="481" y="770"/>
      <point x="498" y="770" type="qcurve" smooth="yes"/>
      <point x="527" y="770"/>
      <point x="573" y="825" type="qcurve" smooth="yes"/>
      <point x="850" y="1155" type="line" smooth="yes"/>
      <point x="903" y="1218"/>
      <point x="903" y="1270"/>
      <point x="842" y="1270" type="qcurve" smooth="yes"/>
      <point x="829" y="1270"/>
      <point x="829" y="1364"/>
      <point x="842" y="1364" type="qcurve"/>
      <point x="891" y="1359"/>
      <point x="1190" y="1359"/>
      <point x="1237" y="1364" type="qcurve"/>
      <point x="1251" y="1364"/>
      <point x="1251" y="1270"/>
      <point x="1237" y="1270" type="qcurve" smooth="yes"/>
      <point x="1149" y="1270"/>
      <point x="1063" y="1229"/>
      <point x="1024" y="1186" type="qcurve"/>
      <point x="686" y="793" type="line"/>
      <point x="672" y="775"/>
      <point x="672" y="742"/>
      <point x="686" y="725" type="qcurve" smooth="yes"/>
    </contour>
  </outline>
</glyph>
<glyph name="L" format="1">
  <advance width="1357"/>
  <unicode hex="004C"/>
  <outline>
    <contour>
      <point x="481" y="250" type="line" smooth="yes"/>
      <point x="481" y="139"/>
      <point x="549" y="96" type="qcurve"/>
      <point x="584" y="78"/>
      <point x="623" y="78" type="qcurve"/>
      <point x="954" y="90" type="line" smooth="yes"/>
      <point x="1030" y="92"/>
      <point x="1098" y="172" type="qcurve"/>
      <point x="1180" y="276"/>
      <point x="1180" y="391" type="qcurve" smooth="yes"/>
      <point x="1180" y="409"/>
      <point x="1280" y="409"/>
      <point x="1280" y="391" type="qcurve" smooth="yes"/>
      <point x="1280" y="57" type="line" smooth="yes"/>
      <point x="1280" y="14"/>
      <point x="1266" y="4" type="qcurve"/>
      <point x="1258" y="-6"/>
      <point x="1163" y="-6" type="qcurve" smooth="yes"/>
      <point x="977" y="-6"/>
      <point x="463" y="0"/>
      <point x="282" y="0"/>
      <point x="76" y="-6" type="qcurve"/>
      <point x="61" y="-6"/>
      <point x="61" y="86"/>
      <point x="76" y="86" type="qcurve" smooth="yes"/>
      <point x="238" y="86"/>
      <point x="238" y="213" type="qcurve" smooth="yes"/>
      <point x="238" y="1153" type="line" smooth="yes"/>
      <point x="238" y="1270"/>
      <point x="66" y="1270" type="qcurve" smooth="yes"/>
      <point x="51" y="1270"/>
      <point x="51" y="1364"/>
      <point x="66" y="1364" type="qcurve"/>
      <point x="113" y="1359"/>
      <point x="588" y="1359"/>
      <point x="637" y="1364" type="qcurve"/>
      <point x="650" y="1364"/>
      <point x="650" y="1270"/>
      <point x="637" y="1270" type="qcurve" smooth="yes"/>
      <point x="481" y="1270"/>
      <point x="481" y="1153" type="qcurve" smooth="yes"/>
    </contour>
  </outline>
</glyph>
<glyph name="M" format="1">
  <advance width="1814"/>
  <unicode hex="004D"/>
  <outline>
    <contour>
      <point x="1608" y="209" type="line" smooth="yes"/>
      <point x="1610" y="86"/>
      <point x="1769" y="86" type="qcurve" smooth="yes"/>
      <point x="1784" y="86"/>
      <point x="1784" y="-6"/>
      <point x="1769" y="-6" type="qcurve"/>
      <point x="1642" y="0"/>
      <point x="1362" y="0"/>
      <point x="1221" y="-6" type="qcurve"/>
      <point x="1206" y="-6"/>
      <point x="1206" y="86"/>
      <point x="1221" y="86" type="qcurve" smooth="yes"/>
      <point x="1374" y="86"/>
      <point x="1374" y="209" type="qcurve"/>
      <point x="1368" y="877" type="line" smooth="yes"/>
      <point x="1368" y="897"/>
      <point x="1354" y="897"/>
      <point x="1346" y="881" type="qcurve" smooth="yes"/>
      <point x="895" y="4" type="line" smooth="yes"/>
      <point x="883" y="-18"/>
      <point x="842" y="-18"/>
      <point x="834" y="4" type="qcurve"/>
      <point x="375" y="969" type="line" smooth="yes"/>
      <point x="365" y="989"/>
      <point x="352" y="989"/>
      <point x="348" y="963" type="qcurve"/>
      <point x="299" y="207" type="line"/>
      <point x="299" y="174" type="line" smooth="yes"/>
      <point x="299" y="86"/>
      <point x="469" y="86" type="qcurve" smooth="yes"/>
      <point x="482" y="86"/>
      <point x="482" y="-6"/>
      <point x="469" y="-6" type="qcurve"/>
      <point x="336" y="0"/>
      <point x="103" y="0"/>
      <point x="41" y="-6" type="qcurve"/>
      <point x="27" y="-6"/>
      <point x="27" y="86"/>
      <point x="41" y="86" type="qcurve" smooth="yes"/>
      <point x="188" y="86"/>
      <point x="193" y="211" type="qcurve"/>
      <point x="254" y="1116" type="line"/>
      <point x="254" y="1161" type="line" smooth="yes"/>
      <point x="254" y="1270"/>
      <point x="80" y="1270" type="qcurve" smooth="yes"/>
      <point x="68" y="1270"/>
      <point x="68" y="1364"/>
      <point x="80" y="1364" type="qcurve"/>
      <point x="162" y="1358"/>
      <point x="254" y="1358" type="qcurve" smooth="yes"/>
      <point x="350" y="1358" type="line" smooth="yes"/>
      <point x="416" y="1358"/>
      <point x="469" y="1270" type="qcurve"/>
      <point x="907" y="356" type="line" smooth="yes"/>
      <point x="917" y="336"/>
      <point x="946" y="336"/>
      <point x="958" y="358" type="qcurve" smooth="yes"/>
      <point x="1427" y="1276" type="line" smooth="yes"/>
      <point x="1470" y="1358"/>
      <point x="1538" y="1358" type="qcurve" smooth="yes"/>
      <point x="1591" y="1358" type="line" smooth="yes"/>
      <point x="1695" y="1358"/>
      <point x="1755" y="1364" type="qcurve"/>
      <point x="1769" y="1364"/>
      <point x="1769" y="1270"/>
      <point x="1755" y="1270" type="qcurve" smooth="yes"/>
      <point x="1651" y="1270"/>
      <point x="1597" y="1182"/>
      <point x="1597" y="1124" type="qcurve" smooth="yes"/>
    </contour>
  </outline>
</glyph>
<glyph name="N" format="1">
  <advance width="1480"/>
  <unicode hex="004E"/>
  <outline>
    <contour>
      <point x="1288" y="76" type="line" smooth="yes"/>
      <point x="1288" y="-20"/>
      <point x="1257" y="-20" type="qcurve" smooth="yes"/>
      <point x="1230" y="-20"/>
      <point x="1184" y="37" type="qcurve" smooth="yes"/>
      <point x="360" y="1014" type="line" smooth="yes"/>
      <point x="348" y="1030"/>
      <point x="342" y="1030" type="qcurve" smooth="yes"/>
      <point x="330" y="1030"/>
      <point x="328" y="1008" type="qcurve" smooth="yes"/>
      <point x="328" y="203" type="line" smooth="yes"/>
      <point x="328" y="86"/>
      <point x="479" y="86" type="qcurve" smooth="yes"/>
      <point x="493" y="86"/>
      <point x="494" y="-8"/>
      <point x="479" y="-6" type="qcurve" smooth="yes"/>
      <point x="387" y="0"/>
      <point x="279" y="0" type="qcurve" smooth="yes"/>
      <point x="177" y="0"/>
      <point x="66" y="-6" type="qcurve" smooth="yes"/>
      <point x="52" y="-8"/>
      <point x="51" y="86"/>
      <point x="66" y="86" type="qcurve" smooth="yes"/>
      <point x="226" y="86"/>
      <point x="223" y="203" type="qcurve" smooth="yes"/>
      <point x="223" y="1155" type="line" smooth="yes"/>
      <point x="223" y="1270"/>
      <point x="51" y="1270" type="qcurve" smooth="yes"/>
      <point x="39" y="1270"/>
      <point x="39" y="1364"/>
      <point x="51" y="1364" type="qcurve" smooth="yes"/>
      <point x="100" y="1360"/>
      <point x="227" y="1358" type="qcurve" smooth="yes"/>
      <point x="311" y="1358"/>
      <point x="326" y="1356" type="qcurve" smooth="yes"/>
      <point x="385" y="1348"/>
      <point x="426" y="1298" type="qcurve" smooth="yes"/>
      <point x="1137" y="432" type="line" smooth="yes"/>
      <point x="1147" y="418"/>
      <point x="1161" y="418" type="qcurve" smooth="yes"/>
      <point x="1186" y="418"/>
      <point x="1186" y="449" type="qcurve" smooth="yes"/>
      <point x="1186" y="1151" type="line" smooth="yes"/>
      <point x="1186" y="1270"/>
      <point x="1032" y="1270" type="qcurve" smooth="yes"/>
      <point x="1018" y="1270"/>
      <point x="1018" y="1364"/>
      <point x="1032" y="1364" type="qcurve" smooth="yes"/>
      <point x="1134" y="1360"/>
      <point x="1231" y="1358" type="qcurve" smooth="yes"/>
      <point x="1331" y="1358"/>
      <point x="1423" y="1364" type="qcurve" smooth="yes"/>
      <point x="1437" y="1364"/>
      <point x="1438" y="1270"/>
      <point x="1423" y="1270" type="qcurve" smooth="yes"/>
      <point x="1288" y="1270"/>
      <point x="1288" y="1151" type="qcurve" smooth="yes"/>
    </contour>
  </outline>
</glyph>
<glyph name="O" format="1">
  <advance width="1523"/>
  <unicode hex="004F"/>
  <outline>
    <contour>
      <point x="750" y="1425" type="move" name="Anchor1"/>
    </contour>
    <contour>
      <point x="750" y="1425" type="move" name="Anchor-1"/>
    </contour>
    <contour>
      <point x="1430" y="664" type="qcurve" smooth="yes"/>
      <point x="1430" y="445"/>
      <point x="1284" y="246" type="qcurve" smooth="yes"/>
      <point x="1081" y="-26"/>
      <point x="741" y="-27" type="qcurve" smooth="yes"/>
      <point x="516" y="-27"/>
      <point x="336" y="96" type="qcurve" smooth="yes"/>
      <point x="55" y="291"/>
      <point x="55" y="668" type="qcurve" smooth="yes"/>
      <point x="55" y="920"/>
      <point x="231" y="1141" type="qcurve" smooth="yes"/>
      <point x="426" y="1385"/>
      <point x="745" y="1384" type="qcurve" smooth="yes"/>
      <point x="991" y="1384"/>
      <point x="1171" y="1231" type="qcurve" smooth="yes"/>
      <point x="1430" y="1006"/>
    </contour>
    <contour>
      <point x="1157" y="649" type="qcurve" smooth="yes"/>
      <point x="1157" y="905"/>
      <point x="1032" y="1087" type="qcurve" smooth="yes"/>
      <point x="891" y="1298"/>
      <point x="739" y="1296" type="qcurve" smooth="yes"/>
      <point x="585" y="1296"/>
      <point x="473" y="1167" type="qcurve" smooth="yes"/>
      <point x="328" y="1001"/>
      <point x="328" y="725" type="qcurve" smooth="yes"/>
      <point x="328" y="422"/>
      <point x="481" y="229" type="qcurve" smooth="yes"/>
      <point x="610" y="67"/>
      <point x="756" y="68" type="qcurve" smooth="yes"/>
      <point x="1020" y="68"/>
      <point x="1112" y="346" type="qcurve" smooth="yes"/>
      <point x="1157" y="477"/>
    </contour>
  </outline>
</glyph>
<glyph name="P" format="1">
  <advance width="1212"/>
  <unicode hex="0050"/>
  <outline>
    <contour>
      <point x="481" y="203" type="line" smooth="yes"/>
      <point x="481" y="86"/>
      <point x="649" y="86" type="qcurve" smooth="yes"/>
      <point x="663" y="86"/>
      <point x="664" y="-6"/>
      <point x="649" y="-6" type="qcurve" smooth="yes"/>
      <point x="522" y="0"/>
      <point x="360" y="0" type="qcurve" smooth="yes"/>
      <point x="213" y="0"/>
      <point x="80" y="-6" type="qcurve" smooth="yes"/>
      <point x="68" y="-6"/>
      <point x="68" y="86"/>
      <point x="80" y="86" type="qcurve" smooth="yes"/>
      <point x="238" y="86"/>
      <point x="238" y="203" type="qcurve" smooth="yes"/>
      <point x="238" y="1155" type="line" smooth="yes"/>
      <point x="238" y="1264"/>
      <point x="68" y="1266" type="qcurve" smooth="yes"/>
      <point x="54" y="1266"/>
      <point x="53" y="1358"/>
      <point x="68" y="1358" type="qcurve" smooth="yes"/>
      <point x="211" y="1352"/>
      <point x="354" y="1352" type="qcurve" smooth="yes"/>
      <point x="413" y="1352"/>
      <point x="578" y="1358"/>
      <point x="659" y="1358" type="qcurve" smooth="yes"/>
      <point x="876" y="1358"/>
      <point x="1022" y="1257" type="qcurve" smooth="yes"/>
      <point x="1180" y="1146"/>
      <point x="1180" y="969" type="qcurve" smooth="yes"/>
      <point x="1180" y="779"/>
      <point x="1008" y="678" type="qcurve" smooth="yes"/>
      <point x="869" y="596"/>
      <point x="653" y="596" type="qcurve" smooth="yes"/>
      <point x="563" y="596"/>
      <point x="516" y="600" type="qcurve" smooth="yes"/>
      <point x="481" y="602"/>
      <point x="481" y="569" type="qcurve" smooth="yes"/>
    </contour>
    <contour>
      <point x="924" y="969" type="qcurve" smooth="yes"/>
      <point x="924" y="1090"/>
      <point x="842" y="1174" type="qcurve" smooth="yes"/>
      <point x="744" y="1278"/>
      <point x="563" y="1278" type="qcurve" smooth="yes"/>
      <point x="497" y="1278"/>
      <point x="485" y="1264" type="qcurve" smooth="yes"/>
      <point x="481" y="1258"/>
      <point x="481" y="1249" type="qcurve" smooth="yes"/>
      <point x="481" y="717" type="line" smooth="yes"/>
      <point x="481" y="686"/>
      <point x="512" y="680" type="qcurve" smooth="yes"/>
      <point x="549" y="676"/>
      <point x="592" y="676" type="qcurve" smooth="yes"/>
      <point x="842" y="676"/>
      <point x="903" y="848" type="qcurve" smooth="yes"/>
      <point x="924" y="901"/>
    </contour>
  </outline>
</glyph>
<glyph name="Q" format="1">
  <advance width="1488"/>
  <unicode hex="0051"/>
  <outline>
    <contour>
      <point x="1430" y="659" type="qcurve" smooth="yes"/>
      <point x="1430" y="444"/>
      <point x="1282" y="238" type="qcurve" smooth="yes"/>
      <point x="1212" y="140"/>
      <point x="1092" y="59" type="qcurve" smooth="yes"/>
      <point x="1069" y="45"/>
      <point x="1069" y="20"/>
      <point x="1092" y="4" type="qcurve" smooth="yes"/>
      <point x="1350" y="-166"/>
      <point x="1632" y="-248" type="qcurve" smooth="yes"/>
      <point x="1663" y="-256" type="line" smooth="yes"/>
      <point x="1683" y="-262"/>
      <point x="1686" y="-291" type="qcurve" smooth="yes"/>
      <point x="1686" y="-301"/>
      <point x="1681" y="-315" type="qcurve" smooth="yes"/>
      <point x="1667" y="-364"/>
      <point x="1640" y="-358" type="qcurve" smooth="yes"/>
      <point x="1239" y="-282"/>
      <point x="653" y="-59" type="qcurve" smooth="yes"/>
      <point x="500" y="0" type="line" smooth="yes"/>
      <point x="467" y="12"/>
      <point x="344" y="86" type="qcurve" smooth="yes"/>
      <point x="213" y="168"/>
      <point x="53" y="475"/>
      <point x="55" y="662" type="qcurve" smooth="yes"/>
      <point x="55" y="924"/>
      <point x="233" y="1139" type="qcurve" smooth="yes"/>
      <point x="438" y="1385"/>
      <point x="745" y="1384" type="qcurve" smooth="yes"/>
      <point x="1005" y="1384"/>
      <point x="1171" y="1231" type="qcurve" smooth="yes"/>
      <point x="1430" y="991"/>
    </contour>
    <contour>
      <point x="1157" y="641" type="qcurve" smooth="yes"/>
      <point x="1157" y="893"/>
      <point x="1036" y="1087" type="qcurve" smooth="yes"/>
      <point x="907" y="1298"/>
      <point x="739" y="1296" type="qcurve" smooth="yes"/>
      <point x="542" y="1296"/>
      <point x="426" y="1104" type="qcurve" smooth="yes"/>
      <point x="328" y="942"/>
      <point x="328" y="717" type="qcurve" smooth="yes"/>
      <point x="328" y="410"/>
      <point x="481" y="219" type="qcurve" smooth="yes"/>
      <point x="608" y="63"/>
      <point x="756" y="66" type="qcurve" smooth="yes"/>
      <point x="1010" y="66"/>
      <point x="1106" y="330" type="qcurve" smooth="yes"/>
      <point x="1157" y="467"/>
    </contour>
  </outline>
</glyph>
<glyph name="R" format="1">
  <advance width="1419"/>
  <unicode hex="0052"/>
  <outline>
    <contour>
      <point x="1212" y="969" type="qcurve" smooth="yes"/>
      <point x="1212" y="717"/>
      <point x="930" y="633" type="qcurve" smooth="yes"/>
      <point x="912" y="629"/>
      <point x="911" y="612" type="qcurve" smooth="yes"/>
      <point x="911" y="602"/>
      <point x="924" y="586" type="qcurve" smooth="yes"/>
      <point x="1055" y="363"/>
      <point x="1249" y="162" type="qcurve" smooth="yes"/>
      <point x="1343" y="62"/>
      <point x="1430" y="45" type="qcurve" smooth="yes"/>
      <point x="1457" y="41"/>
      <point x="1454" y="16" type="qcurve" smooth="yes"/>
      <point x="1454" y="-23"/>
      <point x="1432" y="-20" type="qcurve" smooth="yes"/>
      <point x="1339" y="-25" type="line" smooth="yes"/>
      <point x="1183" y="-25"/>
      <point x="1102" y="31" type="qcurve" smooth="yes"/>
      <point x="961" y="119"/>
      <point x="840" y="291" type="qcurve" smooth="yes"/>
      <point x="709" y="477" type="line"/>
      <point x="646" y="553"/>
      <point x="631" y="565" type="qcurve" smooth="yes"/>
      <point x="606" y="585"/>
      <point x="567" y="588" type="qcurve" smooth="yes"/>
      <point x="500" y="588" type="line" smooth="yes"/>
      <point x="482" y="588"/>
      <point x="481" y="567" type="qcurve" smooth="yes"/>
      <point x="481" y="203" type="line" smooth="yes"/>
      <point x="481" y="86"/>
      <point x="637" y="86" type="qcurve" smooth="yes"/>
      <point x="651" y="86"/>
      <point x="649" y="-6"/>
      <point x="637" y="-6" type="qcurve" smooth="yes"/>
      <point x="504" y="0"/>
      <point x="360" y="0" type="qcurve" smooth="yes"/>
      <point x="208" y="0"/>
      <point x="76" y="-6" type="qcurve" smooth="yes"/>
      <point x="62" y="-6"/>
      <point x="59" y="86"/>
      <point x="76" y="86" type="qcurve" smooth="yes"/>
      <point x="238" y="86"/>
      <point x="238" y="203" type="qcurve" smooth="yes"/>
      <point x="238" y="1155" type="line" smooth="yes"/>
      <point x="238" y="1264"/>
      <point x="66" y="1266" type="qcurve" smooth="yes"/>
      <point x="52" y="1266"/>
      <point x="51" y="1358"/>
      <point x="66" y="1358" type="qcurve" smooth="yes"/>
      <point x="209" y="1352"/>
      <point x="354" y="1352" type="qcurve" smooth="yes"/>
      <point x="409" y="1352"/>
      <point x="567" y="1358"/>
      <point x="659" y="1358" type="qcurve" smooth="yes"/>
      <point x="997" y="1358"/>
      <point x="1141" y="1184" type="qcurve" smooth="yes"/>
      <point x="1212" y="1094"/>
    </contour>
    <contour>
      <point x="958" y="969" type="qcurve" smooth="yes"/>
      <point x="958" y="1104"/>
      <point x="842" y="1196" type="qcurve" smooth="yes"/>
      <point x="736" y="1278"/>
      <point x="563" y="1278" type="qcurve" smooth="yes"/>
      <point x="502" y="1278"/>
      <point x="481" y="1262"/>
      <point x="481" y="1237" type="qcurve" smooth="yes"/>
      <point x="481" y="713" type="line" smooth="yes"/>
      <point x="481" y="680"/>
      <point x="506" y="674" type="qcurve" smooth="yes"/>
      <point x="553" y="666"/>
      <point x="592" y="666" type="qcurve" smooth="yes"/>
      <point x="856" y="666"/>
      <point x="932" y="831" type="qcurve" smooth="yes"/>
      <point x="958" y="893"/>
    </contour>
  </outline>
</glyph>
<glyph name="S" format="1">
  <advance width="1075"/>
  <unicode hex="0053"/>
  <outline>
    <contour>
      <point x="981" y="403" type="qcurve" smooth="yes"/>
      <point x="981" y="223"/>
      <point x="870" y="102" type="qcurve" smooth="yes"/>
      <point x="751" y="-27"/>
      <point x="555" y="-27" type="qcurve" smooth="yes"/>
      <point x="412" y="-27"/>
      <point x="307" y="8" type="qcurve"/>
      <point x="164" y="72" type="line"/>
      <point x="111" y="234"/>
      <point x="111" y="385" type="qcurve" smooth="yes"/>
      <point x="111" y="410"/>
      <point x="158" y="410" type="qcurve" smooth="yes"/>
      <point x="205" y="412"/>
      <point x="209" y="391" type="qcurve" smooth="yes"/>
      <point x="219" y="274"/>
      <point x="299" y="184" type="qcurve" smooth="yes"/>
      <point x="403" y="65"/>
      <point x="571" y="68" type="qcurve" smooth="yes"/>
      <point x="643" y="68"/>
      <point x="700" y="125" type="qcurve" smooth="yes"/>
      <point x="772" y="195"/>
      <point x="770" y="307" type="qcurve" smooth="yes"/>
      <point x="770" y="514"/>
      <point x="502" y="584" type="qcurve" smooth="yes"/>
      <point x="105" y="684"/>
      <point x="104" y="1032" type="qcurve" smooth="yes"/>
      <point x="104" y="1173"/>
      <point x="233" y="1290" type="qcurve" smooth="yes"/>
      <point x="337" y="1384"/>
      <point x="524" y="1384" type="qcurve" smooth="yes"/>
      <point x="645" y="1384"/>
      <point x="737" y="1364" type="qcurve" smooth="yes"/>
      <point x="792" y="1352"/>
      <point x="801" y="1352" type="qcurve" smooth="yes"/>
      <point x="836" y="1354" type="line"/>
      <point x="838" y="1354" type="line"/>
      <point x="875" y="1235"/>
      <point x="887" y="1083" type="qcurve" smooth="yes"/>
      <point x="889" y="1056"/>
      <point x="842" y="1051" type="qcurve" smooth="yes"/>
      <point x="797" y="1045"/>
      <point x="791" y="1063" type="qcurve" smooth="yes"/>
      <point x="760" y="1180"/>
      <point x="625" y="1300"/>
      <point x="506" y="1300" type="qcurve" smooth="yes"/>
      <point x="412" y="1300"/>
      <point x="352" y="1217" type="qcurve" smooth="yes"/>
      <point x="311" y="1162"/>
      <point x="311" y="1075" type="qcurve" smooth="yes"/>
      <point x="311" y="895"/>
      <point x="559" y="834" type="qcurve" smooth="yes"/>
      <point x="981" y="733"/>
    </contour>
  </outline>
</glyph>
<glyph name="T" format="1">
  <advance width="1298"/>
  <unicode hex="0054"/>
  <outline>
    <contour>
      <point x="772" y="203" type="line" smooth="yes"/>
      <point x="772" y="86"/>
      <point x="944" y="86" type="qcurve" smooth="yes"/>
      <point x="956" y="86"/>
      <point x="956" y="-6"/>
      <point x="944" y="-6" type="qcurve" smooth="yes"/>
      <point x="858" y="0"/>
      <point x="444" y="0"/>
      <point x="348" y="-6" type="qcurve" smooth="yes"/>
      <point x="334" y="-6"/>
      <point x="336" y="86"/>
      <point x="348" y="86" type="qcurve" smooth="yes"/>
      <point x="528" y="86"/>
      <point x="528" y="203" type="qcurve" smooth="yes"/>
      <point x="528" y="1237" type="line" smooth="yes"/>
      <point x="528" y="1266"/>
      <point x="502" y="1266" type="qcurve" smooth="yes"/>
      <point x="358" y="1266" type="line" smooth="yes"/>
      <point x="272" y="1266"/>
      <point x="135" y="1120"/>
      <point x="135" y="1008" type="qcurve" smooth="yes"/>
      <point x="135" y="992"/>
      <point x="35" y="991"/>
      <point x="35" y="1008" type="qcurve" smooth="yes"/>
      <point x="35" y="1307" type="line" smooth="yes"/>
      <point x="35" y="1342"/>
      <point x="49" y="1348" type="qcurve" smooth="yes"/>
      <point x="74" y="1358"/>
      <point x="147" y="1358" type="qcurve" smooth="yes"/>
      <point x="335" y="1352"/>
      <point x="950" y="1352"/>
      <point x="1163" y="1358" type="qcurve" smooth="yes"/>
      <point x="1247" y="1358"/>
      <point x="1260" y="1341" type="qcurve" smooth="yes"/>
      <point x="1268" y="1331"/>
      <point x="1268" y="1307" type="qcurve" smooth="yes"/>
      <point x="1268" y="1008" type="line" smooth="yes"/>
      <point x="1268" y="992"/>
      <point x="1165" y="991"/>
      <point x="1165" y="1008" type="qcurve" smooth="yes"/>
      <point x="1165" y="1137"/>
      <point x="1010" y="1266"/>
      <point x="934" y="1266" type="qcurve" smooth="yes"/>
      <point x="807" y="1266" type="line" smooth="yes"/>
      <point x="774" y="1266"/>
      <point x="772" y="1237" type="qcurve" smooth="yes"/>
    </contour>
  </outline>
</glyph>
<glyph name="U" format="1">
  <advance width="1511"/>
  <unicode hex="0055"/>
  <outline>
    <contour>
      <point x="817" y="1425" type="move" name="Anchor1"/>
    </contour>
    <contour>
      <point x="817" y="1425" type="move" name="Anchor-1"/>
    </contour>
    <contour>
      <point x="1323" y="881" type="line" smooth="yes"/>
      <point x="1323" y="605"/>
      <point x="1311" y="465" type="qcurve" smooth="yes"/>
      <point x="1295" y="219"/>
      <point x="1155" y="90" type="qcurve" smooth="yes"/>
      <point x="1028" y="-29"/>
      <point x="772" y="-27" type="qcurve" smooth="yes"/>
      <point x="616" y="-27"/>
      <point x="506" y="14" type="qcurve" smooth="yes"/>
      <point x="348" y="75"/>
      <point x="287" y="201" type="qcurve" smooth="yes"/>
      <point x="236" y="307"/>
      <point x="223" y="545" type="qcurve"/>
      <point x="223" y="1153" type="line" smooth="yes"/>
      <point x="223" y="1270"/>
      <point x="68" y="1270" type="qcurve" smooth="yes"/>
      <point x="54" y="1270"/>
      <point x="53" y="1364"/>
      <point x="68" y="1364" type="qcurve" smooth="yes"/>
      <point x="215" y="1360"/>
      <point x="348" y="1358" type="qcurve" smooth="yes"/>
      <point x="493" y="1358"/>
      <point x="641" y="1364" type="qcurve" smooth="yes"/>
      <point x="655" y="1364"/>
      <point x="655" y="1270"/>
      <point x="641" y="1270" type="qcurve" smooth="yes"/>
      <point x="467" y="1270"/>
      <point x="469" y="1153" type="qcurve" smooth="yes"/>
      <point x="469" y="686" type="line"/>
      <point x="479" y="406" type="line" smooth="yes"/>
      <point x="481" y="281"/>
      <point x="535" y="203" type="qcurve" smooth="yes"/>
      <point x="625" y="68"/>
      <point x="811" y="68" type="qcurve" smooth="yes"/>
      <point x="983" y="68"/>
      <point x="1087" y="172" type="qcurve" smooth="yes"/>
      <point x="1177" y="264"/>
      <point x="1178" y="496" type="qcurve" smooth="yes"/>
      <point x="1178" y="1153" type="line" smooth="yes"/>
      <point x="1178" y="1270"/>
      <point x="1020" y="1270" type="qcurve" smooth="yes"/>
      <point x="1006" y="1270"/>
      <point x="1006" y="1364"/>
      <point x="1020" y="1364" type="qcurve" smooth="yes"/>
      <point x="1157" y="1360"/>
      <point x="1249" y="1358" type="qcurve" smooth="yes"/>
      <point x="1341" y="1358"/>
      <point x="1477" y="1364" type="qcurve" smooth="yes"/>
      <point x="1491" y="1364"/>
      <point x="1491" y="1270"/>
      <point x="1477" y="1270" type="qcurve" smooth="yes"/>
      <point x="1323" y="1270"/>
      <point x="1323" y="1153" type="qcurve" smooth="yes"/>
    </contour>
  </outline>
</glyph>
<glyph name="V" format="1">
  <advance width="1357"/>
  <unicode hex="0056"/>
  <outline>
    <contour>
      <point x="698" y="6" type="line" smooth="yes"/>
      <point x="678" y="-39"/>
      <point x="647" y="-39" type="qcurve" smooth="yes"/>
      <point x="612" y="-39"/>
      <point x="596" y="6" type="qcurve" smooth="yes"/>
      <point x="172" y="1153" type="line" smooth="yes"/>
      <point x="131" y="1270"/>
      <point x="31" y="1270" type="qcurve" smooth="yes"/>
      <point x="17" y="1270"/>
      <point x="16" y="1364"/>
      <point x="31" y="1364" type="qcurve" smooth="yes"/>
      <point x="76" y="1360"/>
      <point x="262" y="1358" type="qcurve" smooth="yes"/>
      <point x="471" y="1358"/>
      <point x="518" y="1364" type="qcurve" smooth="yes"/>
      <point x="530" y="1364"/>
      <point x="530" y="1270"/>
      <point x="518" y="1270" type="qcurve" smooth="yes"/>
      <point x="393" y="1270"/>
      <point x="393" y="1206" type="qcurve" smooth="yes"/>
      <point x="393" y="1183"/>
      <point x="406" y="1153" type="qcurve" smooth="yes"/>
      <point x="686" y="379" type="line" smooth="yes"/>
      <point x="694" y="359"/>
      <point x="713" y="358" type="qcurve" smooth="yes"/>
      <point x="729" y="358"/>
      <point x="737" y="383" type="qcurve" smooth="yes"/>
      <point x="1032" y="1147" type="line" smooth="yes"/>
      <point x="1042" y="1178"/>
      <point x="1042" y="1198" type="qcurve" smooth="yes"/>
      <point x="1038" y="1270"/>
      <point x="944" y="1270" type="qcurve" smooth="yes"/>
      <point x="930" y="1270"/>
      <point x="930" y="1364"/>
      <point x="944" y="1364" type="qcurve" smooth="yes"/>
      <point x="991" y="1360"/>
      <point x="1151" y="1358" type="qcurve" smooth="yes"/>
      <point x="1317" y="1358"/>
      <point x="1364" y="1364" type="qcurve" smooth="yes"/>
      <point x="1378" y="1364"/>
      <point x="1378" y="1270"/>
      <point x="1364" y="1270" type="qcurve" smooth="yes"/>
      <point x="1217" y="1270"/>
      <point x="1182" y="1186" type="qcurve" smooth="yes"/>
    </contour>
  </outline>
</glyph>
<glyph name="W" format="1">
  <advance width="2011"/>
  <unicode hex="0057"/>
  <outline>
    <contour>
      <point x="1860" y="1186" type="qcurve" smooth="yes"/>
      <point x="1323" y="6" type="line" smooth="yes"/>
      <point x="1300" y="-39"/>
      <point x="1272" y="-39" type="qcurve" smooth="yes"/>
      <point x="1245" y="-39"/>
      <point x="1214" y="25" type="qcurve" smooth="yes"/>
      <point x="1010" y="481" type="line" smooth="yes"/>
      <point x="1002" y="499"/>
      <point x="995" y="500" type="qcurve" smooth="yes"/>
      <point x="987" y="500"/>
      <point x="979" y="479" type="qcurve" smooth="yes"/>
      <point x="762" y="6" type="line" smooth="yes"/>
      <point x="742" y="-39"/>
      <point x="684" y="-39"/>
      <point x="655" y="25" type="qcurve" smooth="yes"/>
      <point x="150" y="1153" type="line" smooth="yes"/>
      <point x="99" y="1270"/>
      <point x="6" y="1270" type="qcurve" smooth="yes"/>
      <point x="-8" y="1270"/>
      <point x="-8" y="1364"/>
      <point x="6" y="1364" type="qcurve" smooth="yes"/>
      <point x="53" y="1360"/>
      <point x="221" y="1358" type="qcurve" smooth="yes"/>
      <point x="407" y="1358"/>
      <point x="457" y="1364" type="qcurve" smooth="yes"/>
      <point x="471" y="1364"/>
      <point x="471" y="1270"/>
      <point x="457" y="1270" type="qcurve" smooth="yes"/>
      <point x="387" y="1270"/>
      <point x="385" y="1225" type="qcurve" smooth="yes"/>
      <point x="389" y="1184"/>
      <point x="406" y="1153" type="qcurve" smooth="yes"/>
      <point x="756" y="375" type="line" smooth="yes"/>
      <point x="764" y="359"/>
      <point x="778" y="356" type="qcurve" smooth="yes"/>
      <point x="790" y="356"/>
      <point x="799" y="375" type="qcurve" smooth="yes"/>
      <point x="920" y="639" type="line" smooth="yes"/>
      <point x="926" y="653"/>
      <point x="926" y="670"/>
      <point x="920" y="686" type="qcurve" smooth="yes"/>
      <point x="684" y="1208" type="line" smooth="yes"/>
      <point x="655" y="1269"/>
      <point x="602" y="1270" type="qcurve" smooth="yes"/>
      <point x="588" y="1270"/>
      <point x="588" y="1364"/>
      <point x="602" y="1364" type="qcurve" smooth="yes"/>
      <point x="649" y="1360"/>
      <point x="811" y="1358" type="qcurve" smooth="yes"/>
      <point x="967" y="1358"/>
      <point x="1014" y="1364" type="qcurve" smooth="yes"/>
      <point x="1028" y="1364"/>
      <point x="1028" y="1270"/>
      <point x="1014" y="1270" type="qcurve" smooth="yes"/>
      <point x="944" y="1270"/>
      <point x="944" y="1229" type="qcurve" smooth="yes"/>
      <point x="944" y="1196"/>
      <point x="965" y="1153" type="qcurve" smooth="yes"/>
      <point x="1038" y="991" type="line" smooth="yes"/>
      <point x="1046" y="973"/>
      <point x="1057" y="973" type="qcurve" smooth="yes"/>
      <point x="1069" y="973"/>
      <point x="1081" y="997" type="qcurve" smooth="yes"/>
      <point x="1151" y="1147" type="line" smooth="yes"/>
      <point x="1178" y="1202"/>
      <point x="1176" y="1231" type="qcurve" smooth="yes"/>
      <point x="1176" y="1270"/>
      <point x="1122" y="1270" type="qcurve" smooth="yes"/>
      <point x="1108" y="1270"/>
      <point x="1110" y="1364"/>
      <point x="1122" y="1364" type="qcurve" smooth="yes"/>
      <point x="1171" y="1360"/>
      <point x="1298" y="1358" type="qcurve" smooth="yes"/>
      <point x="1433" y="1358"/>
      <point x="1483" y="1364" type="qcurve" smooth="yes"/>
      <point x="1497" y="1364"/>
      <point x="1497" y="1270"/>
      <point x="1483" y="1270" type="qcurve" smooth="yes"/>
      <point x="1338" y="1270"/>
      <point x="1298" y="1186" type="qcurve" smooth="yes"/>
      <point x="1141" y="838" type="line" smooth="yes"/>
      <point x="1131" y="813"/>
      <point x="1130" y="799" type="qcurve" smooth="yes"/>
      <point x="1130" y="787"/>
      <point x="1135" y="774" type="qcurve" smooth="yes"/>
      <point x="1317" y="377" type="line" smooth="yes"/>
      <point x="1325" y="359"/>
      <point x="1339" y="358" type="qcurve" smooth="yes"/>
      <point x="1351" y="358"/>
      <point x="1358" y="375" type="qcurve" smooth="yes"/>
      <point x="1710" y="1147" type="line" smooth="yes"/>
      <point x="1730" y="1192"/>
      <point x="1731" y="1221" type="qcurve" smooth="yes"/>
      <point x="1731" y="1270"/>
      <point x="1665" y="1270" type="qcurve" smooth="yes"/>
      <point x="1651" y="1270"/>
      <point x="1651" y="1364"/>
      <point x="1665" y="1364" type="qcurve" smooth="yes"/>
      <point x="1710" y="1360"/>
      <point x="1853" y="1358" type="qcurve" smooth="yes"/>
      <point x="1994" y="1358"/>
      <point x="2042" y="1364" type="qcurve" smooth="yes"/>
      <point x="2056" y="1364"/>
      <point x="2056" y="1270"/>
      <point x="2042" y="1270" type="qcurve" smooth="yes"/>
      <point x="1899" y="1272"/>
    </contour>
  </outline>
</glyph>
<glyph name="X" format="1">
  <advance width="1380"/>
  <unicode hex="0058"/>
  <outline>
    <contour>
      <point x="1151" y="203" type="line" smooth="yes"/>
      <point x="1233" y="86"/>
      <point x="1368" y="86" type="qcurve" smooth="yes"/>
      <point x="1382" y="86"/>
      <point x="1384" y="-6"/>
      <point x="1368" y="-6" type="qcurve" smooth="yes"/>
      <point x="1288" y="0"/>
      <point x="1096" y="0" type="qcurve" smooth="yes"/>
      <point x="922" y="0"/>
      <point x="825" y="-6" type="qcurve" smooth="yes"/>
      <point x="811" y="-6"/>
      <point x="811" y="86"/>
      <point x="825" y="86" type="qcurve" smooth="yes"/>
      <point x="934" y="86"/>
      <point x="934" y="133" type="qcurve" smooth="yes"/>
      <point x="934" y="162"/>
      <point x="897" y="209" type="qcurve" smooth="yes"/>
      <point x="655" y="526" type="line" smooth="yes"/>
      <point x="645" y="540"/>
      <point x="633" y="543" type="qcurve" smooth="yes"/>
      <point x="619" y="543"/>
      <point x="606" y="526" type="qcurve" smooth="yes"/>
      <point x="436" y="299" type="line" smooth="yes"/>
      <point x="370" y="211"/>
      <point x="369" y="156" type="qcurve" smooth="yes"/>
      <point x="367" y="86"/>
      <point x="469" y="86" type="qcurve" smooth="yes"/>
      <point x="483" y="86"/>
      <point x="481" y="-6"/>
      <point x="469" y="-6" type="qcurve" smooth="yes"/>
      <point x="391" y="0"/>
      <point x="238" y="0" type="qcurve" smooth="yes"/>
      <point x="11" y="0"/>
      <point x="-33" y="-6" type="qcurve" smooth="yes"/>
      <point x="-45" y="-6"/>
      <point x="-45" y="86"/>
      <point x="-33" y="86" type="qcurve" smooth="yes"/>
      <point x="119" y="86"/>
      <point x="188" y="172" type="qcurve" smooth="yes"/>
      <point x="555" y="631" type="line" smooth="yes"/>
      <point x="567" y="647"/>
      <point x="567" y="664" type="qcurve" smooth="yes"/>
      <point x="567" y="678"/>
      <point x="555" y="694" type="qcurve" smooth="yes"/>
      <point x="199" y="1194" type="line" smooth="yes"/>
      <point x="146" y="1270"/>
      <point x="20" y="1270" type="qcurve" smooth="yes"/>
      <point x="6" y="1270"/>
      <point x="6" y="1364"/>
      <point x="20" y="1364" type="qcurve" smooth="yes"/>
      <point x="67" y="1360"/>
      <point x="311" y="1358" type="qcurve" smooth="yes"/>
      <point x="553" y="1358"/>
      <point x="602" y="1364" type="qcurve" smooth="yes"/>
      <point x="616" y="1364"/>
      <point x="616" y="1270"/>
      <point x="602" y="1270" type="qcurve" smooth="yes"/>
      <point x="477" y="1270"/>
      <point x="477" y="1214" type="qcurve" smooth="yes"/>
      <point x="477" y="1191"/>
      <point x="506" y="1153" type="qcurve" smooth="yes"/>
      <point x="702" y="879" type="line" smooth="yes"/>
      <point x="712" y="865"/>
      <point x="723" y="864" type="qcurve" smooth="yes"/>
      <point x="735" y="864"/>
      <point x="745" y="879" type="qcurve" smooth="yes"/>
      <point x="961" y="1147" type="line" smooth="yes"/>
      <point x="996" y="1190"/>
      <point x="995" y="1217" type="qcurve" smooth="yes"/>
      <point x="995" y="1270"/>
      <point x="913" y="1270" type="qcurve" smooth="yes"/>
      <point x="899" y="1270"/>
      <point x="899" y="1364"/>
      <point x="913" y="1364" type="qcurve" smooth="yes"/>
      <point x="960" y="1360"/>
      <point x="1135" y="1358" type="qcurve" smooth="yes"/>
      <point x="1307" y="1358"/>
      <point x="1356" y="1364" type="qcurve" smooth="yes"/>
      <point x="1370" y="1364"/>
      <point x="1370" y="1270"/>
      <point x="1356" y="1270" type="qcurve" smooth="yes"/>
      <point x="1239" y="1270"/>
      <point x="1147" y="1186" type="qcurve" smooth="yes"/>
      <point x="1114" y="1155"/>
      <point x="1063" y="1092" type="qcurve" smooth="yes"/>
      <point x="811" y="782" type="line" smooth="yes"/>
      <point x="795" y="762"/>
      <point x="793" y="745" type="qcurve" smooth="yes"/>
      <point x="793" y="731"/>
      <point x="805" y="713" type="qcurve" smooth="yes"/>
    </contour>
  </outline>
</glyph>
<glyph name="Y" format="1">
  <advance width="1323"/>
  <unicode hex="0059"/>
  <outline>
    <contour>
      <point x="719" y="1425" type="move" name="Anchor1"/>
    </contour>
    <contour>
      <point x="719" y="1425" type="move" name="Anchor-1"/>
    </contour>
    <contour>
      <point x="758" y="203" type="line" smooth="yes"/>
      <point x="758" y="86"/>
      <point x="905" y="86" type="qcurve" smooth="yes"/>
      <point x="917" y="86"/>
      <point x="920" y="-6"/>
      <point x="905" y="-6" type="qcurve" smooth="yes"/>
      <point x="839" y="0"/>
      <point x="438" y="0"/>
      <point x="367" y="-6" type="qcurve" smooth="yes"/>
      <point x="353" y="-6"/>
      <point x="352" y="86"/>
      <point x="367" y="86" type="qcurve" smooth="yes"/>
      <point x="514" y="86"/>
      <point x="514" y="203" type="qcurve" smooth="yes"/>
      <point x="514" y="494" type="line" smooth="yes"/>
      <point x="514" y="562"/>
      <point x="504" y="588" type="qcurve" smooth="yes"/>
      <point x="496" y="611"/>
      <point x="449" y="684" type="qcurve" smooth="yes"/>
      <point x="152" y="1153" type="line" smooth="yes"/>
      <point x="101" y="1235"/>
      <point x="49" y="1257" type="qcurve" smooth="yes"/>
      <point x="20" y="1269"/>
      <point x="-12" y="1270" type="qcurve" smooth="yes"/>
      <point x="-26" y="1270"/>
      <point x="-29" y="1364"/>
      <point x="-12" y="1364" type="qcurve" smooth="yes"/>
      <point x="35" y="1360"/>
      <point x="248" y="1358" type="qcurve" smooth="yes"/>
      <point x="463" y="1358"/>
      <point x="514" y="1364" type="qcurve" smooth="yes"/>
      <point x="528" y="1364"/>
      <point x="528" y="1270"/>
      <point x="514" y="1270" type="qcurve" smooth="yes"/>
      <point x="403" y="1270"/>
      <point x="403" y="1217" type="qcurve" smooth="yes"/>
      <point x="403" y="1186"/>
      <point x="424" y="1153" type="qcurve" smooth="yes"/>
      <point x="678" y="750" type="line" smooth="yes"/>
      <point x="688" y="734"/>
      <point x="698" y="731" type="qcurve" smooth="yes"/>
      <point x="708" y="731"/>
      <point x="721" y="752" type="qcurve" smooth="yes"/>
      <point x="987" y="1147" type="line" smooth="yes"/>
      <point x="1010" y="1182"/>
      <point x="1012" y="1206" type="qcurve" smooth="yes"/>
      <point x="1012" y="1269"/>
      <point x="905" y="1270" type="qcurve" smooth="yes"/>
      <point x="891" y="1270"/>
      <point x="891" y="1364"/>
      <point x="905" y="1364" type="qcurve" smooth="yes"/>
      <point x="950" y="1360"/>
      <point x="1126" y="1358" type="qcurve" smooth="yes"/>
      <point x="1310" y="1358"/>
      <point x="1360" y="1364" type="qcurve" smooth="yes"/>
      <point x="1374" y="1364"/>
      <point x="1374" y="1270"/>
      <point x="1360" y="1270" type="qcurve" smooth="yes"/>
      <point x="1251" y="1270"/>
      <point x="1182" y="1202" type="qcurve" smooth="yes"/>
      <point x="1149" y="1167" type="line"/>
      <point x="811" y="686" type="line" smooth="yes"/>
      <point x="772" y="631"/>
      <point x="766" y="608" type="qcurve" smooth="yes"/>
      <point x="758" y="579"/>
      <point x="758" y="500" type="qcurve" smooth="yes"/>
    </contour>
  </outline>
</glyph>
<glyph name="Z" format="1">
  <advance width="1316"/>
  <unicode hex="005A"/>
  <outline>
    <contour>
      <point x="1270" y="18" type="qcurve" smooth="yes"/>
      <point x="1270" y="-29"/>
      <point x="1253" y="-29" type="qcurve" smooth="yes"/>
      <point x="1228" y="-29"/>
      <point x="1176" y="-20" type="qcurve" smooth="yes"/>
      <point x="1045" y="0"/>
      <point x="594" y="0" type="qcurve" smooth="yes"/>
      <point x="145" y="0" type="line" smooth="yes"/>
      <point x="75" y="0"/>
      <point x="76" y="49" type="qcurve" smooth="yes"/>
      <point x="76" y="76"/>
      <point x="92" y="96" type="qcurve" smooth="yes"/>
      <point x="965" y="1237" type="line" smooth="yes"/>
      <point x="975" y="1249"/>
      <point x="975" y="1257" type="qcurve" smooth="yes"/>
      <point x="975" y="1273"/>
      <point x="934" y="1274" type="qcurve" smooth="yes"/>
      <point x="422" y="1274" type="line" smooth="yes"/>
      <point x="379" y="1274"/>
      <point x="350" y="1247" type="qcurve" smooth="yes"/>
      <point x="311" y="1216"/>
      <point x="254" y="1075" type="qcurve" smooth="yes"/>
      <point x="223" y="999"/>
      <point x="219" y="975" type="qcurve" smooth="yes"/>
      <point x="219" y="965"/>
      <point x="195" y="963" type="qcurve" smooth="yes"/>
      <point x="179" y="963"/>
      <point x="162" y="967" type="qcurve" smooth="yes"/>
      <point x="137" y="975"/>
      <point x="137" y="987" type="qcurve" smooth="yes"/>
      <point x="168" y="1223"/>
      <point x="168" y="1321" type="qcurve" smooth="yes"/>
      <point x="168" y="1368"/>
      <point x="209" y="1368" type="qcurve" smooth="yes"/>
      <point x="211" y="1368"/>
      <point x="268" y="1360" type="qcurve" smooth="yes"/>
      <point x="315" y="1354"/>
      <point x="330" y="1352" type="qcurve" smooth="yes"/>
      <point x="838" y="1352" type="line"/>
      <point x="1219" y="1358" type="line" smooth="yes"/>
      <point x="1285" y="1358"/>
      <point x="1284" y="1325" type="qcurve" smooth="yes"/>
      <point x="1284" y="1300"/>
      <point x="1260" y="1268" type="qcurve" smooth="yes"/>
      <point x="426" y="125" type="line" smooth="yes"/>
      <point x="420" y="115"/>
      <point x="420" y="106" type="qcurve" smooth="yes"/>
      <point x="420" y="86"/>
      <point x="453" y="86" type="qcurve" smooth="yes"/>
      <point x="865" y="86"/>
      <point x="1044" y="98" type="qcurve" smooth="yes"/>
      <point x="1097" y="102"/>
      <point x="1184" y="250" type="qcurve" smooth="yes"/>
      <point x="1225" y="320"/>
      <point x="1235" y="354" type="qcurve" smooth="yes"/>
      <point x="1237" y="360"/>
      <point x="1253" y="362" type="qcurve" smooth="yes"/>
      <point x="1288" y="362"/>
      <point x="1309" y="344" type="qcurve" smooth="yes"/>
      <point x="1315" y="338"/>
      <point x="1315" y="330" type="qcurve" smooth="yes"/>
      <point x="1270" y="157"/>
    </contour>
  </outline>
</glyph>
<glyph name="bracketleft" format="1">
  <advance width="796"/>
  <unicode hex="005B"/>
  <outline>
    <contour>
      <point x="754" y="-354" type="qcurve" smooth="yes"/>
      <point x="317" y="-354" type="line" smooth="yes"/>
      <point x="294" y="-354"/>
      <point x="295" y="-332" type="qcurve" smooth="yes"/>
      <point x="295" y="1511" type="line" smooth="yes"/>
      <point x="295" y="1529"/>
      <point x="315" y="1530" type="qcurve" smooth="yes"/>
      <point x="754" y="1530" type="line" smooth="yes"/>
      <point x="774" y="1530"/>
      <point x="774" y="1434"/>
      <point x="754" y="1434" type="qcurve" smooth="yes"/>
      <point x="528" y="1434" type="line" smooth="yes"/>
      <point x="508" y="1434"/>
      <point x="508" y="1411" type="qcurve" smooth="yes"/>
      <point x="508" y="-229" type="line" smooth="yes"/>
      <point x="508" y="-258"/>
      <point x="522" y="-258" type="qcurve" smooth="yes"/>
      <point x="754" y="-258" type="line" smooth="yes"/>
      <point x="774" y="-258"/>
      <point x="774" y="-354"/>
    </contour>
  </outline>
</glyph>
<glyph name="backslash" format="1">
  <advance width="714"/>
  <unicode hex="005C"/>
  <outline>
    <contour>
      <point x="731" y="31" type="line" smooth="yes"/>
      <point x="741" y="6"/>
      <point x="664" y="-18" type="qcurve" smooth="yes"/>
      <point x="637" y="-26"/>
      <point x="616" y="-29" type="qcurve" smooth="yes"/>
      <point x="598" y="-29"/>
      <point x="594" y="-18" type="qcurve" smooth="yes"/>
      <point x="-14" y="1425" type="line" smooth="yes"/>
      <point x="-26" y="1454"/>
      <point x="43" y="1483" type="qcurve" smooth="yes"/>
      <point x="74" y="1495"/>
      <point x="96" y="1493" type="qcurve" smooth="yes"/>
      <point x="121" y="1493"/>
      <point x="125" y="1481" type="qcurve" smooth="yes"/>
    </contour>
  </outline>
</glyph>
<glyph name="bracketright" format="1">
  <advance width="796"/>
  <unicode hex="005D"/>
  <outline>
    <contour>
      <point x="504" y="-332" type="line" smooth="yes"/>
      <point x="504" y="-355"/>
      <point x="481" y="-354" type="qcurve" smooth="yes"/>
      <point x="47" y="-354" type="line" smooth="yes"/>
      <point x="27" y="-354"/>
      <point x="27" y="-258"/>
      <point x="47" y="-258" type="qcurve" smooth="yes"/>
      <point x="279" y="-258" type="line" smooth="yes"/>
      <point x="293" y="-258"/>
      <point x="293" y="-233" type="qcurve" smooth="yes"/>
      <point x="293" y="1411" type="line" smooth="yes"/>
      <point x="293" y="1434"/>
      <point x="274" y="1434" type="qcurve" smooth="yes"/>
      <point x="47" y="1434" type="line" smooth="yes"/>
      <point x="27" y="1434"/>
      <point x="27" y="1530"/>
      <point x="47" y="1530" type="qcurve" smooth="yes"/>
      <point x="483" y="1530" type="line" smooth="yes"/>
      <point x="503" y="1530"/>
      <point x="504" y="1511" type="qcurve" smooth="yes"/>
    </contour>
  </outline>
</glyph>
<glyph name="asciicircum" format="1">
  <advance width="1093"/>
  <unicode hex="005E"/>
  <outline>
    <contour>
      <point x="1044" y="535" type="line"/>
      <point x="825" y="535" type="line"/>
      <point x="549" y="1112" type="line"/>
      <point x="270" y="535" type="line"/>
      <point x="49" y="535" type="line"/>
      <point x="471" y="1372" type="line"/>
      <point x="625" y="1372" type="line"/>
    </contour>
  </outline>
</glyph>
<glyph name="grave" format="1">
  <advance width="567"/>
  <unicode hex="0060"/>
  <outline>
    <contour>
      <point x="461" y="1114" type="line" smooth="yes"/>
      <point x="469" y="1091"/>
      <point x="469" y="1073" type="qcurve" smooth="yes"/>
      <point x="469" y="1020"/>
      <point x="426" y="1020" type="qcurve" smooth="yes"/>
      <point x="391" y="1020"/>
      <point x="358" y="1069" type="qcurve" smooth="yes"/>
      <point x="188" y="1319" type="line" smooth="yes"/>
      <point x="184" y="1327"/>
      <point x="184" y="1333" type="qcurve" smooth="yes"/>
      <point x="184" y="1366"/>
      <point x="242" y="1397" type="qcurve" smooth="yes"/>
      <point x="285" y="1420"/>
      <point x="315" y="1419" type="qcurve" smooth="yes"/>
      <point x="340" y="1419"/>
      <point x="344" y="1407" type="qcurve" smooth="yes"/>
    </contour>
  </outline>
</glyph>
<glyph name="a" format="1">
  <advance width="858"/>
  <unicode hex="0061"/>
  <outline>
    <contour>
      <point x="371" y="899" type="move" name="Anchor1"/>
    </contour>
    <contour>
      <point x="391" y="-76" type="move" name="Anchor0"/>
    </contour>
    <contour>
      <point x="371" y="899" type="move" name="Anchor-1"/>
    </contour>
    <contour>
      <point x="391" y="-76" type="move" name="Anchor-0"/>
    </contour>
    <contour>
      <point x="866" y="88" type="qcurve" smooth="yes"/>
      <point x="809" y="-25"/>
      <point x="676" y="-25" type="qcurve" smooth="yes"/>
      <point x="584" y="-25"/>
      <point x="514" y="57" type="qcurve" smooth="yes"/>
      <point x="500" y="75"/>
      <point x="494" y="76" type="qcurve" smooth="yes"/>
      <point x="482" y="76"/>
      <point x="465" y="59" type="qcurve" smooth="yes"/>
      <point x="383" y="-23"/>
      <point x="266" y="-23" type="qcurve" smooth="yes"/>
      <point x="141" y="-23"/>
      <point x="88" y="61" type="qcurve" smooth="yes"/>
      <point x="61" y="104"/>
      <point x="63" y="162" type="qcurve" smooth="yes"/>
      <point x="63" y="283"/>
      <point x="274" y="393" type="qcurve"/>
      <point x="426" y="465" type="line" smooth="yes"/>
      <point x="461" y="485"/>
      <point x="461" y="512" type="qcurve" smooth="yes"/>
      <point x="461" y="702" type="line" smooth="yes"/>
      <point x="461" y="774"/>
      <point x="356" y="774" type="qcurve" smooth="yes"/>
      <point x="276" y="774"/>
      <point x="240" y="723" type="qcurve" smooth="yes"/>
      <point x="232" y="709"/>
      <point x="229" y="647" type="qcurve" smooth="yes"/>
      <point x="229" y="612"/>
      <point x="225" y="596" type="qcurve" smooth="yes"/>
      <point x="200" y="508"/>
      <point x="133" y="508" type="qcurve" smooth="yes"/>
      <point x="43" y="508"/>
      <point x="43" y="586" type="qcurve" smooth="yes"/>
      <point x="43" y="654"/>
      <point x="98" y="729" type="qcurve" smooth="yes"/>
      <point x="129" y="772"/>
      <point x="164" y="795" type="qcurve" smooth="yes"/>
      <point x="285" y="871"/>
      <point x="428" y="870" type="qcurve" smooth="yes"/>
      <point x="541" y="870"/>
      <point x="623" y="813" type="qcurve" smooth="yes"/>
      <point x="689" y="770"/>
      <point x="690" y="707" type="qcurve" smooth="yes"/>
      <point x="690" y="199" type="line" smooth="yes"/>
      <point x="690" y="84"/>
      <point x="758" y="86" type="qcurve" smooth="yes"/>
      <point x="789" y="84"/>
      <point x="829" y="121" type="qcurve" smooth="yes"/>
      <point x="837" y="129"/>
      <point x="856" y="113" type="qcurve" smooth="yes"/>
      <point x="870" y="98"/>
    </contour>
    <contour>
      <point x="461" y="193" type="qcurve" smooth="yes"/>
      <point x="461" y="375" type="line" smooth="yes"/>
      <point x="461" y="398"/>
      <point x="446" y="397" type="qcurve" smooth="yes"/>
      <point x="440" y="397"/>
      <point x="434" y="395" type="qcurve" smooth="yes"/>
      <point x="293" y="323"/>
      <point x="293" y="205" type="qcurve" smooth="yes"/>
      <point x="293" y="88"/>
      <point x="365" y="88" type="qcurve" smooth="yes"/>
      <point x="461" y="89"/>
    </contour>
  </outline>
</glyph>
<glyph name="b" format="1">
  <advance width="1048"/>
  <unicode hex="0062"/>
  <outline>
    <contour>
      <point x="479" y="1544" type="move" name="Anchor1"/>
    </contour>
    <contour>
      <point x="532" y="-76" type="move" name="Anchor0"/>
    </contour>
    <contour>
      <point x="479" y="1544" type="move" name="Anchor-1"/>
    </contour>
    <contour>
      <point x="532" y="-76" type="move" name="Anchor-0"/>
    </contour>
    <contour>
      <point x="981" y="440" type="qcurve" smooth="yes"/>
      <point x="981" y="233"/>
      <point x="868" y="104" type="qcurve" smooth="yes"/>
      <point x="757" y="-23"/>
      <point x="537" y="-23" type="qcurve" smooth="yes"/>
      <point x="480" y="-23"/>
      <point x="408" y="6" type="qcurve" smooth="yes"/>
      <point x="353" y="31"/>
      <point x="303" y="31" type="qcurve" smooth="yes"/>
      <point x="287" y="31"/>
      <point x="248" y="-2" type="qcurve" smooth="yes"/>
      <point x="229" y="-18" type="line" smooth="yes"/>
      <point x="225" y="-20"/>
      <point x="215" y="-20" type="qcurve" smooth="yes"/>
      <point x="184" y="-20"/>
      <point x="141" y="12" type="qcurve" smooth="yes"/>
      <point x="123" y="26"/>
      <point x="123" y="35" type="qcurve" smooth="yes"/>
      <point x="129" y="66"/>
      <point x="129" y="279" type="qcurve" smooth="yes"/>
      <point x="129" y="1161" type="line" smooth="yes"/>
      <point x="129" y="1286"/>
      <point x="35" y="1286" type="qcurve" smooth="yes"/>
      <point x="19" y="1286"/>
      <point x="18" y="1323" type="qcurve" smooth="yes"/>
      <point x="18" y="1362"/>
      <point x="35" y="1360" type="qcurve" smooth="yes"/>
      <point x="84" y="1360"/>
      <point x="221" y="1425" type="qcurve" smooth="yes"/>
      <point x="289" y="1458"/>
      <point x="309" y="1477" type="qcurve" smooth="yes"/>
      <point x="321" y="1487"/>
      <point x="338" y="1487" type="qcurve" smooth="yes"/>
      <point x="365" y="1487"/>
      <point x="367" y="1462" type="qcurve" smooth="yes"/>
      <point x="358" y="1286" type="line"/>
      <point x="358" y="840" type="line" smooth="yes"/>
      <point x="358" y="811"/>
      <point x="375" y="811" type="qcurve" smooth="yes"/>
      <point x="383" y="811"/>
      <point x="393" y="819" type="qcurve" smooth="yes"/>
      <point x="467" y="870"/>
      <point x="561" y="870" type="qcurve" smooth="yes"/>
      <point x="737" y="870"/>
      <point x="856" y="752" type="qcurve" smooth="yes"/>
      <point x="981" y="626"/>
    </contour>
    <contour>
      <point x="727" y="428" type="qcurve" smooth="yes"/>
      <point x="727" y="586"/>
      <point x="659" y="682" type="qcurve" smooth="yes"/>
      <point x="600" y="768"/>
      <point x="502" y="770" type="qcurve" smooth="yes"/>
      <point x="430" y="770"/>
      <point x="389" y="727" type="qcurve" smooth="yes"/>
      <point x="358" y="696"/>
      <point x="358" y="647" type="qcurve" smooth="yes"/>
      <point x="358" y="297" type="line" smooth="yes"/>
      <point x="358" y="180"/>
      <point x="430" y="111" type="qcurve" smooth="yes"/>
      <point x="485" y="58"/>
      <point x="565" y="57" type="qcurve" smooth="yes"/>
      <point x="727" y="57"/>
    </contour>
  </outline>
</glyph>
<glyph name="c" format="1">
  <advance width="878"/>
  <unicode hex="0063"/>
  <outline>
    <contour>
      <point x="494" y="899" type="move" name="Anchor1"/>
    </contour>
    <contour>
      <point x="457" y="-76" type="move" name="Anchor0"/>
    </contour>
    <contour>
      <point x="494" y="899" type="move" name="Anchor-1"/>
    </contour>
    <contour>
      <point x="457" y="-76" type="move" name="Anchor-0"/>
    </contour>
    <contour>
      <point x="709" y="621" type="qcurve" smooth="yes"/>
      <point x="672" y="621"/>
      <point x="653" y="649" type="qcurve" smooth="yes"/>
      <point x="614" y="715" type="line" smooth="yes"/>
      <point x="575" y="774"/>
      <point x="502" y="774" type="qcurve" smooth="yes"/>
      <point x="420" y="774"/>
      <point x="360" y="682" type="qcurve" smooth="yes"/>
      <point x="294" y="580"/>
      <point x="295" y="436" type="qcurve" smooth="yes"/>
      <point x="295" y="303"/>
      <point x="383" y="209" type="qcurve" smooth="yes"/>
      <point x="463" y="125"/>
      <point x="563" y="125" type="qcurve" smooth="yes"/>
      <point x="672" y="125"/>
      <point x="750" y="180" type="qcurve" smooth="yes"/>
      <point x="766" y="192"/>
      <point x="797" y="150" type="qcurve" smooth="yes"/>
      <point x="824" y="107"/>
      <point x="805" y="96" type="qcurve" smooth="yes"/>
      <point x="723" y="43" type="line"/>
      <point x="606" y="-23"/>
      <point x="457" y="-23" type="qcurve" smooth="yes"/>
      <point x="318" y="-23"/>
      <point x="207" y="76" type="qcurve" smooth="yes"/>
      <point x="68" y="199"/>
      <point x="66" y="387" type="qcurve" smooth="yes"/>
      <point x="66" y="557"/>
      <point x="172" y="694" type="qcurve" smooth="yes"/>
      <point x="307" y="870"/>
      <point x="522" y="870" type="qcurve" smooth="yes"/>
      <point x="657" y="870"/>
      <point x="745" y="825" type="qcurve" smooth="yes"/>
      <point x="784" y="805"/>
      <point x="799" y="780" type="qcurve" smooth="yes"/>
      <point x="805" y="764"/>
      <point x="805" y="739" type="qcurve" smooth="yes"/>
      <point x="805" y="688"/>
      <point x="774" y="655" type="qcurve" smooth="yes"/>
      <point x="740" y="621"/>
    </contour>
  </outline>
</glyph>
<glyph name="d" format="1">
  <advance width="1034"/>
  <unicode hex="0064"/>
  <outline>
    <contour>
      <point x="471" y="1544" type="move" name="Anchor1"/>
    </contour>
    <contour>
      <point x="492" y="-76" type="move" name="Anchor0"/>
    </contour>
    <contour>
      <point x="471" y="1544" type="move" name="Anchor-1"/>
    </contour>
    <contour>
      <point x="492" y="-76" type="move" name="Anchor-0"/>
    </contour>
    <contour>
      <point x="1022" y="31" type="qcurve" smooth="yes"/>
      <point x="993" y="19"/>
      <point x="866" y="-4" type="qcurve"/>
      <point x="764" y="-31"/>
      <point x="735" y="-35" type="qcurve" smooth="yes"/>
      <point x="723" y="-35" type="line" smooth="yes"/>
      <point x="713" y="-35"/>
      <point x="713" y="10" type="qcurve" smooth="yes"/>
      <point x="713" y="39" type="line" smooth="yes"/>
      <point x="713" y="62"/>
      <point x="702" y="61" type="qcurve" smooth="yes"/>
      <point x="690" y="61"/>
      <point x="674" y="47" type="qcurve" smooth="yes"/>
      <point x="580" y="-23"/>
      <point x="479" y="-23" type="qcurve" smooth="yes"/>
      <point x="235" y="-23"/>
      <point x="125" y="152" type="qcurve" smooth="yes"/>
      <point x="53" y="263"/>
      <point x="53" y="418" type="qcurve" smooth="yes"/>
      <point x="53" y="594"/>
      <point x="174" y="721" type="qcurve" smooth="yes"/>
      <point x="321" y="871"/>
      <point x="567" y="870" type="qcurve" smooth="yes"/>
      <point x="616" y="870"/>
      <point x="647" y="866" type="qcurve" smooth="yes"/>
      <point x="674" y="864"/>
      <point x="674" y="889" type="qcurve" smooth="yes"/>
      <point x="674" y="1161" type="line" smooth="yes"/>
      <point x="674" y="1286"/>
      <point x="582" y="1286" type="qcurve" smooth="yes"/>
      <point x="566" y="1286"/>
      <point x="565" y="1323" type="qcurve" smooth="yes"/>
      <point x="565" y="1362"/>
      <point x="582" y="1360" type="qcurve" smooth="yes"/>
      <point x="631" y="1360"/>
      <point x="768" y="1427" type="qcurve" smooth="yes"/>
      <point x="834" y="1460"/>
      <point x="852" y="1477" type="qcurve" smooth="yes"/>
      <point x="864" y="1487"/>
      <point x="879" y="1487" type="qcurve" smooth="yes"/>
      <point x="910" y="1487"/>
      <point x="909" y="1454" type="qcurve" smooth="yes"/>
      <point x="903" y="1384"/>
      <point x="903" y="1286" type="qcurve" smooth="yes"/>
      <point x="903" y="256" type="line" smooth="yes"/>
      <point x="903" y="166"/>
      <point x="913" y="139" type="qcurve" smooth="yes"/>
      <point x="927" y="98"/>
      <point x="967" y="98" type="qcurve" smooth="yes"/>
      <point x="979" y="98"/>
      <point x="999" y="104" type="qcurve" smooth="yes"/>
      <point x="1015" y="108"/>
      <point x="1026" y="74" type="qcurve" smooth="yes"/>
      <point x="1034" y="35"/>
    </contour>
    <contour>
      <point x="674" y="141" type="qcurve" smooth="yes"/>
      <point x="674" y="694" type="line" smooth="yes"/>
      <point x="674" y="737"/>
      <point x="670" y="745" type="qcurve" smooth="yes"/>
      <point x="666" y="755"/>
      <point x="653" y="764" type="qcurve" smooth="yes"/>
      <point x="606" y="793"/>
      <point x="541" y="793" type="qcurve" smooth="yes"/>
      <point x="408" y="793"/>
      <point x="344" y="649" type="qcurve" smooth="yes"/>
      <point x="305" y="561"/>
      <point x="307" y="444" type="qcurve" smooth="yes"/>
      <point x="307" y="251"/>
      <point x="385" y="141" type="qcurve" smooth="yes"/>
      <point x="444" y="59"/>
      <point x="530" y="61" type="qcurve" smooth="yes"/>
      <point x="616" y="61"/>
      <point x="659" y="113" type="qcurve" smooth="yes"/>
      <point x="674" y="131"/>
    </contour>
  </outline>
</glyph>
<glyph name="e" format="1">
  <advance width="874"/>
  <unicode hex="0065"/>
  <outline>
    <contour>
      <point x="461" y="899" type="move" name="Anchor1"/>
    </contour>
    <contour>
      <point x="434" y="-76" type="move" name="Anchor0"/>
    </contour>
    <contour>
      <point x="461" y="899" type="move" name="Anchor-1"/>
    </contour>
    <contour>
      <point x="434" y="-76" type="move" name="Anchor-0"/>
    </contour>
    <contour>
      <point x="809" y="612" type="qcurve" smooth="yes"/>
      <point x="809" y="536"/>
      <point x="719" y="537" type="qcurve" smooth="yes"/>
      <point x="334" y="537" type="line" smooth="yes"/>
      <point x="297" y="537"/>
      <point x="297" y="510" type="qcurve" smooth="yes"/>
      <point x="297" y="272"/>
      <point x="410" y="176" type="qcurve" smooth="yes"/>
      <point x="471" y="123"/>
      <point x="561" y="123" type="qcurve" smooth="yes"/>
      <point x="643" y="123"/>
      <point x="727" y="178" type="qcurve" smooth="yes"/>
      <point x="747" y="188"/>
      <point x="776" y="152" type="qcurve" smooth="yes"/>
      <point x="803" y="117"/>
      <point x="791" y="106" type="qcurve" smooth="yes"/>
      <point x="744" y="57"/>
      <point x="657" y="18" type="qcurve" smooth="yes"/>
      <point x="569" y="-23"/>
      <point x="455" y="-23" type="qcurve" smooth="yes"/>
      <point x="320" y="-23"/>
      <point x="213" y="86" type="qcurve" smooth="yes"/>
      <point x="70" y="229"/>
      <point x="68" y="436" type="qcurve" smooth="yes"/>
      <point x="68" y="602"/>
      <point x="174" y="727" type="qcurve" smooth="yes"/>
      <point x="297" y="870"/>
      <point x="461" y="870" type="qcurve" smooth="yes"/>
      <point x="639" y="870"/>
      <point x="743" y="752" type="qcurve"/>
      <point x="809" y="661"/>
    </contour>
    <contour>
      <point x="309" y="653" type="qcurve" smooth="yes"/>
      <point x="309" y="626"/>
      <point x="346" y="627" type="qcurve" smooth="yes"/>
      <point x="549" y="627" type="line" smooth="yes"/>
      <point x="586" y="627"/>
      <point x="586" y="651" type="qcurve" smooth="yes"/>
      <point x="586" y="719"/>
      <point x="530" y="764" type="qcurve" smooth="yes"/>
      <point x="495" y="793"/>
      <point x="463" y="791" type="qcurve" smooth="yes"/>
      <point x="400" y="791"/>
      <point x="350" y="748" type="qcurve" smooth="yes"/>
      <point x="309" y="708"/>
    </contour>
  </outline>
</glyph>
<glyph name="f" format="1">
  <advance width="581"/>
  <unicode hex="0066"/>
  <outline>
    <contour>
      <point x="553" y="1544" type="move" name="Anchor1"/>
    </contour>
    <contour>
      <point x="285" y="-76" type="move" name="Anchor0"/>
    </contour>
    <contour>
      <point x="553" y="1544" type="move" name="Anchor-1"/>
    </contour>
    <contour>
      <point x="285" y="-76" type="move" name="Anchor-0"/>
    </contour>
    <contour>
      <point x="608" y="799" type="qcurve" smooth="yes"/>
      <point x="608" y="746"/>
      <point x="594" y="745" type="qcurve" smooth="yes"/>
      <point x="430" y="745" type="line" smooth="yes"/>
      <point x="393" y="745"/>
      <point x="393" y="709" type="qcurve" smooth="yes"/>
      <point x="393" y="135" type="line" smooth="yes"/>
      <point x="393" y="67"/>
      <point x="526" y="68" type="qcurve" smooth="yes"/>
      <point x="542" y="68"/>
      <point x="543" y="-8"/>
      <point x="526" y="-8" type="qcurve" smooth="yes"/>
      <point x="446" y="0"/>
      <point x="287" y="0" type="qcurve" smooth="yes"/>
      <point x="140" y="0"/>
      <point x="55" y="-8" type="qcurve" smooth="yes"/>
      <point x="41" y="-8"/>
      <point x="41" y="68"/>
      <point x="55" y="68" type="qcurve" smooth="yes"/>
      <point x="164" y="68"/>
      <point x="164" y="135" type="qcurve" smooth="yes"/>
      <point x="164" y="709" type="line" smooth="yes"/>
      <point x="164" y="746"/>
      <point x="127" y="745" type="qcurve" smooth="yes"/>
      <point x="72" y="745" type="line" smooth="yes"/>
      <point x="56" y="745"/>
      <point x="55" y="819"/>
      <point x="72" y="819" type="qcurve" smooth="yes"/>
      <point x="119" y="819"/>
      <point x="164" y="885"/>
      <point x="164" y="932" type="qcurve" smooth="yes"/>
      <point x="164" y="1077"/>
      <point x="231" y="1210" type="qcurve" smooth="yes"/>
      <point x="264" y="1276"/>
      <point x="309" y="1321" type="qcurve" smooth="yes"/>
      <point x="467" y="1487"/>
      <point x="674" y="1487" type="qcurve" smooth="yes"/>
      <point x="797" y="1487"/>
      <point x="858" y="1427" type="qcurve" smooth="yes"/>
      <point x="897" y="1390"/>
      <point x="897" y="1343" type="qcurve" smooth="yes"/>
      <point x="897" y="1288"/>
      <point x="844" y="1247" type="qcurve" smooth="yes"/>
      <point x="813" y="1222"/>
      <point x="784" y="1223" type="qcurve" smooth="yes"/>
      <point x="684" y="1223"/>
      <point x="637" y="1313" type="qcurve" smooth="yes"/>
      <point x="608" y="1370"/>
      <point x="559" y="1374" type="qcurve" smooth="yes"/>
      <point x="502" y="1374"/>
      <point x="463" y="1321" type="qcurve" smooth="yes"/>
      <point x="393" y="1225"/>
      <point x="393" y="1049" type="qcurve" smooth="yes"/>
      <point x="393" y="887" type="line" smooth="yes"/>
      <point x="393" y="850"/>
      <point x="430" y="850" type="qcurve" smooth="yes"/>
      <point x="594" y="850" type="line" smooth="yes"/>
      <point x="608" y="850"/>
    </contour>
  </outline>
</glyph>
<glyph name="h" format="1">
  <advance width="1091"/>
  <unicode hex="0068"/>
  <outline>
    <contour>
      <point x="479" y="1544" type="move" name="Anchor1"/>
    </contour>
    <contour>
      <point x="561" y="-76" type="move" name="Anchor0"/>
    </contour>
    <contour>
      <point x="479" y="1544" type="move" name="Anchor-1"/>
    </contour>
    <contour>
      <point x="561" y="-76" type="move" name="Anchor-0"/>
    </contour>
    <contour>
      <point x="1079" y="-8" type="qcurve" smooth="yes"/>
      <point x="999" y="0"/>
      <point x="858" y="0" type="qcurve" smooth="yes"/>
      <point x="708" y="0"/>
      <point x="629" y="-8" type="qcurve" smooth="yes"/>
      <point x="613" y="-8"/>
      <point x="612" y="68"/>
      <point x="629" y="68" type="qcurve" smooth="yes"/>
      <point x="733" y="68"/>
      <point x="733" y="131" type="qcurve" smooth="yes"/>
      <point x="733" y="555" type="line" smooth="yes"/>
      <point x="733" y="631"/>
      <point x="688" y="694" type="qcurve" smooth="yes"/>
      <point x="639" y="762"/>
      <point x="565" y="762" type="qcurve" smooth="yes"/>
      <point x="475" y="762"/>
      <point x="422" y="698" type="qcurve" smooth="yes"/>
      <point x="393" y="663"/>
      <point x="393" y="627" type="qcurve" smooth="yes"/>
      <point x="393" y="143" type="line" smooth="yes"/>
      <point x="393" y="67"/>
      <point x="496" y="68" type="qcurve" smooth="yes"/>
      <point x="510" y="68"/>
      <point x="512" y="-8"/>
      <point x="496" y="-8" type="qcurve" smooth="yes"/>
      <point x="412" y="0"/>
      <point x="287" y="0" type="qcurve" smooth="yes"/>
      <point x="135" y="0"/>
      <point x="51" y="-8" type="qcurve" smooth="yes"/>
      <point x="37" y="-8"/>
      <point x="37" y="68"/>
      <point x="51" y="68" type="qcurve" smooth="yes"/>
      <point x="164" y="68"/>
      <point x="164" y="137" type="qcurve" smooth="yes"/>
      <point x="164" y="1161" type="line" smooth="yes"/>
      <point x="164" y="1286"/>
      <point x="72" y="1286" type="qcurve" smooth="yes"/>
      <point x="56" y="1286"/>
      <point x="55" y="1323" type="qcurve" smooth="yes"/>
      <point x="55" y="1362"/>
      <point x="72" y="1360" type="qcurve" smooth="yes"/>
      <point x="121" y="1360"/>
      <point x="256" y="1427" type="qcurve" smooth="yes"/>
      <point x="322" y="1460"/>
      <point x="342" y="1477" type="qcurve" smooth="yes"/>
      <point x="354" y="1487"/>
      <point x="371" y="1487" type="qcurve" smooth="yes"/>
      <point x="398" y="1487"/>
      <point x="399" y="1460" type="qcurve" smooth="yes"/>
      <point x="397" y="1374"/>
      <point x="393" y="1286" type="qcurve" smooth="yes"/>
      <point x="393" y="821" type="line" smooth="yes"/>
      <point x="393" y="798"/>
      <point x="403" y="799" type="qcurve" smooth="yes"/>
      <point x="411" y="799"/>
      <point x="426" y="809" type="qcurve" smooth="yes"/>
      <point x="508" y="870"/>
      <point x="637" y="870" type="qcurve" smooth="yes"/>
      <point x="817" y="870"/>
      <point x="907" y="733" type="qcurve" smooth="yes"/>
      <point x="962" y="649"/>
      <point x="963" y="557" type="qcurve" smooth="yes"/>
      <point x="963" y="143" type="line" smooth="yes"/>
      <point x="969" y="67"/>
      <point x="1079" y="68" type="qcurve" smooth="yes"/>
      <point x="1095" y="68"/>
      <point x="1095" y="-8"/>
    </contour>
  </outline>
</glyph>
<glyph name="i" format="1">
  <advance width="522"/>
  <unicode hex="0069"/>
  <outline>
    <contour>
      <point x="260" y="1380" type="move" name="Anchor1"/>
    </contour>
    <contour>
      <point x="283" y="-76" type="move" name="Anchor0"/>
    </contour>
    <contour>
      <point x="260" y="1380" type="move" name="Anchor-1"/>
    </contour>
    <contour>
      <point x="283" y="-76" type="move" name="Anchor-0"/>
    </contour>
    <contour>
      <point x="496" y="-8" type="qcurve" smooth="yes"/>
      <point x="412" y="0"/>
      <point x="287" y="0" type="qcurve" smooth="yes"/>
      <point x="144" y="0"/>
      <point x="59" y="-8" type="qcurve" smooth="yes"/>
      <point x="45" y="-8"/>
      <point x="43" y="68"/>
      <point x="59" y="68" type="qcurve" smooth="yes"/>
      <point x="163" y="68"/>
      <point x="164" y="143" type="qcurve" smooth="yes"/>
      <point x="164" y="557" type="line" smooth="yes"/>
      <point x="164" y="682"/>
      <point x="72" y="682" type="qcurve" smooth="yes"/>
      <point x="56" y="682"/>
      <point x="55" y="756"/>
      <point x="72" y="756" type="qcurve" smooth="yes"/>
      <point x="121" y="756"/>
      <point x="258" y="823" type="qcurve" smooth="yes"/>
      <point x="321" y="854"/>
      <point x="342" y="872" type="qcurve" smooth="yes"/>
      <point x="354" y="882"/>
      <point x="373" y="883" type="qcurve" smooth="yes"/>
      <point x="402" y="883"/>
      <point x="399" y="856" type="qcurve" smooth="yes"/>
      <point x="393" y="768"/>
      <point x="393" y="682" type="qcurve" smooth="yes"/>
      <point x="393" y="143" type="line" smooth="yes"/>
      <point x="393" y="67"/>
      <point x="496" y="68" type="qcurve" smooth="yes"/>
      <point x="510" y="68"/>
      <point x="510" y="-8"/>
    </contour>
    <contour>
      <point x="401" y="1186" type="qcurve" smooth="yes"/>
      <point x="401" y="1114"/>
      <point x="342" y="1073" type="qcurve" smooth="yes"/>
      <point x="303" y="1046"/>
      <point x="256" y="1049" type="qcurve" smooth="yes"/>
      <point x="180" y="1049"/>
      <point x="139" y="1106" type="qcurve" smooth="yes"/>
      <point x="112" y="1143"/>
      <point x="113" y="1186" type="qcurve" smooth="yes"/>
      <point x="113" y="1256"/>
      <point x="170" y="1296" type="qcurve" smooth="yes"/>
      <point x="209" y="1325"/>
      <point x="256" y="1323" type="qcurve" smooth="yes"/>
      <point x="334" y="1323"/>
      <point x="375" y="1266" type="qcurve" smooth="yes"/>
      <point x="401" y="1227"/>
    </contour>
  </outline>
</glyph>
<glyph name="j" format="1">
  <advance width="497"/>
  <unicode hex="006A"/>
  <outline>
    <contour>
      <point x="227" y="1380" type="move" name="Anchor1"/>
    </contour>
    <contour>
      <point x="227" y="1380" type="move" name="Anchor-1"/>
    </contour>
    <contour>
      <point x="373" y="1188" type="qcurve" smooth="yes"/>
      <point x="373" y="1116"/>
      <point x="313" y="1075" type="qcurve" smooth="yes"/>
      <point x="274" y="1048"/>
      <point x="227" y="1049" type="qcurve" smooth="yes"/>
      <point x="153" y="1049"/>
      <point x="111" y="1104" type="qcurve" smooth="yes"/>
      <point x="82" y="1141"/>
      <point x="82" y="1188" type="qcurve" smooth="yes"/>
      <point x="82" y="1256"/>
      <point x="139" y="1296" type="qcurve" smooth="yes"/>
      <point x="178" y="1325"/>
      <point x="227" y="1325" type="qcurve" smooth="yes"/>
      <point x="301" y="1325"/>
      <point x="344" y="1270" type="qcurve" smooth="yes"/>
      <point x="373" y="1231"/>
    </contour>
    <contour>
      <point x="375" y="856" type="qcurve" smooth="yes"/>
      <point x="367" y="764"/>
      <point x="367" y="682" type="qcurve" smooth="yes"/>
      <point x="367" y="139" type="line" smooth="yes"/>
      <point x="367" y="-47"/>
      <point x="356" y="-129" type="qcurve" smooth="yes"/>
      <point x="331" y="-303"/>
      <point x="248" y="-416" type="qcurve" smooth="yes"/>
      <point x="172" y="-518"/>
      <point x="41" y="-547" type="qcurve" smooth="yes"/>
      <point x="4" y="-555"/>
      <point x="-33" y="-555" type="qcurve" smooth="yes"/>
      <point x="-92" y="-555"/>
      <point x="-150" y="-512" type="qcurve" smooth="yes"/>
      <point x="-193" y="-477"/>
      <point x="-193" y="-426" type="qcurve" smooth="yes"/>
      <point x="-193" y="-369"/>
      <point x="-141" y="-340" type="qcurve" smooth="yes"/>
      <point x="-114" y="-326"/>
      <point x="-84" y="-324" type="qcurve" smooth="yes"/>
      <point x="-37" y="-324"/>
      <point x="-4" y="-377" type="qcurve" smooth="yes"/>
      <point x="39" y="-451"/>
      <point x="76" y="-449" type="qcurve" smooth="yes"/>
      <point x="121" y="-449"/>
      <point x="131" y="-358" type="qcurve" smooth="yes"/>
      <point x="135" y="-315"/>
      <point x="137" y="-229" type="qcurve" smooth="yes"/>
      <point x="137" y="557" type="line" smooth="yes"/>
      <point x="137" y="682"/>
      <point x="45" y="682" type="qcurve" smooth="yes"/>
      <point x="31" y="682"/>
      <point x="31" y="756"/>
      <point x="45" y="756" type="qcurve" smooth="yes"/>
      <point x="96" y="756"/>
      <point x="233" y="823" type="qcurve" smooth="yes"/>
      <point x="296" y="854"/>
      <point x="317" y="872" type="qcurve" smooth="yes"/>
      <point x="331" y="882"/>
      <point x="346" y="883" type="qcurve" smooth="yes"/>
      <point x="375" y="883"/>
    </contour>
  </outline>
</glyph>
<glyph name="k" format="1">
  <advance width="1071"/>
  <unicode hex="006B"/>
  <outline>
    <contour>
      <point x="508" y="1544" type="move" name="Anchor1"/>
    </contour>
    <contour>
      <point x="557" y="-76" type="move" name="Anchor0"/>
    </contour>
    <contour>
      <point x="508" y="1544" type="move" name="Anchor-1"/>
    </contour>
    <contour>
      <point x="557" y="-76" type="move" name="Anchor-0"/>
    </contour>
    <contour>
      <point x="1079" y="-8" type="qcurve" smooth="yes"/>
      <point x="999" y="0"/>
      <point x="700" y="0"/>
      <point x="616" y="-8" type="qcurve" smooth="yes"/>
      <point x="602" y="-8"/>
      <point x="600" y="68"/>
      <point x="616" y="68" type="qcurve" smooth="yes"/>
      <point x="690" y="68"/>
      <point x="690" y="96" type="qcurve" smooth="yes"/>
      <point x="690" y="112"/>
      <point x="664" y="145" type="qcurve" smooth="yes"/>
      <point x="469" y="369" type="line" smooth="yes"/>
      <point x="444" y="400"/>
      <point x="410" y="399" type="qcurve" smooth="yes"/>
      <point x="394" y="399"/>
      <point x="393" y="365" type="qcurve" smooth="yes"/>
      <point x="393" y="143" type="line" smooth="yes"/>
      <point x="393" y="67"/>
      <point x="502" y="68" type="qcurve" smooth="yes"/>
      <point x="516" y="68"/>
      <point x="516" y="-8"/>
      <point x="502" y="-8" type="qcurve" smooth="yes"/>
      <point x="418" y="0"/>
      <point x="287" y="0" type="qcurve" smooth="yes"/>
      <point x="133" y="0"/>
      <point x="49" y="-8" type="qcurve" smooth="yes"/>
      <point x="35" y="-8"/>
      <point x="35" y="68"/>
      <point x="49" y="68" type="qcurve" smooth="yes"/>
      <point x="164" y="68"/>
      <point x="164" y="139" type="qcurve" smooth="yes"/>
      <point x="164" y="1161" type="line"/>
      <point x="156" y="1280"/>
      <point x="72" y="1286" type="qcurve" smooth="yes"/>
      <point x="56" y="1286"/>
      <point x="55" y="1360"/>
      <point x="72" y="1360" type="qcurve" smooth="yes"/>
      <point x="121" y="1360"/>
      <point x="256" y="1427" type="qcurve" smooth="yes"/>
      <point x="322" y="1460"/>
      <point x="342" y="1477" type="qcurve" smooth="yes"/>
      <point x="354" y="1487"/>
      <point x="371" y="1487" type="qcurve" smooth="yes"/>
      <point x="398" y="1487"/>
      <point x="399" y="1460" type="qcurve" smooth="yes"/>
      <point x="393" y="1374"/>
      <point x="393" y="1286" type="qcurve" smooth="yes"/>
      <point x="393" y="528" type="line" smooth="yes"/>
      <point x="393" y="491"/>
      <point x="414" y="492" type="qcurve" smooth="yes"/>
      <point x="457" y="492"/>
      <point x="494" y="530" type="qcurve" smooth="yes"/>
      <point x="647" y="700" type="line" smooth="yes"/>
      <point x="680" y="737"/>
      <point x="680" y="754" type="qcurve" smooth="yes"/>
      <point x="680" y="785"/>
      <point x="596" y="784" type="qcurve" smooth="yes"/>
      <point x="580" y="784"/>
      <point x="580" y="856"/>
      <point x="596" y="856" type="qcurve" smooth="yes"/>
      <point x="655" y="850"/>
      <point x="813" y="850" type="qcurve" smooth="yes"/>
      <point x="952" y="850"/>
      <point x="1016" y="856" type="qcurve" smooth="yes"/>
      <point x="1030" y="856"/>
      <point x="1030" y="784"/>
      <point x="1016" y="784" type="qcurve" smooth="yes"/>
      <point x="912" y="784"/>
      <point x="834" y="713" type="qcurve" smooth="yes"/>
      <point x="625" y="524" type="line" smooth="yes"/>
      <point x="615" y="514"/>
      <point x="614" y="506" type="qcurve" smooth="yes"/>
      <point x="614" y="492"/>
      <point x="625" y="479" type="qcurve" smooth="yes"/>
      <point x="954" y="121" type="line" smooth="yes"/>
      <point x="1001" y="68"/>
      <point x="1079" y="68" type="qcurve" smooth="yes"/>
      <point x="1095" y="68"/>
      <point x="1095" y="-8"/>
    </contour>
  </outline>
</glyph>
<glyph name="l" format="1">
  <advance width="522"/>
  <unicode hex="006C"/>
  <outline>
    <contour>
      <point x="258" y="1544" type="move" name="Anchor1"/>
    </contour>
    <contour>
      <point x="283" y="-76" type="move" name="Anchor0"/>
    </contour>
    <contour>
      <point x="258" y="1544" type="move" name="Anchor-1"/>
    </contour>
    <contour>
      <point x="283" y="-76" type="move" name="Anchor-0"/>
    </contour>
    <contour>
      <point x="496" y="-8" type="qcurve" smooth="yes"/>
      <point x="412" y="0"/>
      <point x="287" y="0" type="qcurve" smooth="yes"/>
      <point x="144" y="0"/>
      <point x="59" y="-8" type="qcurve" smooth="yes"/>
      <point x="45" y="-8"/>
      <point x="43" y="68"/>
      <point x="59" y="68" type="qcurve" smooth="yes"/>
      <point x="163" y="68"/>
      <point x="164" y="135" type="qcurve" smooth="yes"/>
      <point x="164" y="1161" type="line" smooth="yes"/>
      <point x="164" y="1286"/>
      <point x="72" y="1286" type="qcurve" smooth="yes"/>
      <point x="56" y="1286"/>
      <point x="55" y="1360"/>
      <point x="72" y="1360" type="qcurve" smooth="yes"/>
      <point x="121" y="1360"/>
      <point x="256" y="1427" type="qcurve" smooth="yes"/>
      <point x="322" y="1460"/>
      <point x="342" y="1477" type="qcurve" smooth="yes"/>
      <point x="354" y="1487"/>
      <point x="369" y="1487" type="qcurve" smooth="yes"/>
      <point x="400" y="1487"/>
      <point x="399" y="1454" type="qcurve" smooth="yes"/>
      <point x="393" y="1378"/>
      <point x="393" y="1286" type="qcurve" smooth="yes"/>
      <point x="393" y="143" type="line" smooth="yes"/>
      <point x="393" y="67"/>
      <point x="496" y="68" type="qcurve" smooth="yes"/>
      <point x="510" y="68"/>
      <point x="510" y="-8"/>
    </contour>
  </outline>
</glyph>
<glyph name="m" format="1">
  <advance width="1628"/>
  <unicode hex="006D"/>
  <outline>
    <contour>
      <point x="874" y="899" type="move" name="Anchor1"/>
    </contour>
    <contour>
      <point x="815" y="-76" type="move" name="Anchor0"/>
    </contour>
    <contour>
      <point x="874" y="899" type="move" name="Anchor-1"/>
    </contour>
    <contour>
      <point x="815" y="-76" type="move" name="Anchor-0"/>
    </contour>
    <contour>
      <point x="1587" y="-8" type="qcurve" smooth="yes"/>
      <point x="1507" y="0"/>
      <point x="1366" y="0" type="qcurve" smooth="yes"/>
      <point x="1231" y="0"/>
      <point x="1151" y="-8" type="qcurve" smooth="yes"/>
      <point x="1135" y="-8"/>
      <point x="1135" y="68"/>
      <point x="1151" y="68" type="qcurve" smooth="yes"/>
      <point x="1251" y="68"/>
      <point x="1251" y="135" type="qcurve" smooth="yes"/>
      <point x="1251" y="610" type="line" smooth="yes"/>
      <point x="1251" y="762"/>
      <point x="1100" y="762" type="qcurve" smooth="yes"/>
      <point x="1030" y="762"/>
      <point x="981" y="700" type="qcurve" smooth="yes"/>
      <point x="936" y="645"/>
      <point x="936" y="569" type="qcurve" smooth="yes"/>
      <point x="936" y="139" type="line" smooth="yes"/>
      <point x="936" y="67"/>
      <point x="1040" y="68" type="qcurve" smooth="yes"/>
      <point x="1056" y="68"/>
      <point x="1057" y="-8"/>
      <point x="1040" y="-8" type="qcurve" smooth="yes"/>
      <point x="960" y="0"/>
      <point x="821" y="0" type="qcurve" smooth="yes"/>
      <point x="690" y="0"/>
      <point x="606" y="-8" type="qcurve" smooth="yes"/>
      <point x="592" y="-8"/>
      <point x="592" y="68"/>
      <point x="606" y="68" type="qcurve" smooth="yes"/>
      <point x="706" y="68"/>
      <point x="707" y="131" type="qcurve" smooth="yes"/>
      <point x="707" y="565" type="line" smooth="yes"/>
      <point x="707" y="698"/>
      <point x="662" y="739" type="qcurve" smooth="yes"/>
      <point x="635" y="762"/>
      <point x="565" y="762" type="qcurve" smooth="yes"/>
      <point x="514" y="762"/>
      <point x="469" y="729" type="qcurve" smooth="yes"/>
      <point x="393" y="672"/>
      <point x="393" y="604" type="qcurve" smooth="yes"/>
      <point x="393" y="133" type="line" smooth="yes"/>
      <point x="393" y="67"/>
      <point x="492" y="68" type="qcurve" smooth="yes"/>
      <point x="506" y="68"/>
      <point x="508" y="-8"/>
      <point x="492" y="-8" type="qcurve" smooth="yes"/>
      <point x="408" y="0"/>
      <point x="272" y="0" type="qcurve" smooth="yes"/>
      <point x="135" y="0"/>
      <point x="51" y="-8" type="qcurve" smooth="yes"/>
      <point x="37" y="-8"/>
      <point x="37" y="68"/>
      <point x="51" y="68" type="qcurve" smooth="yes"/>
      <point x="164" y="68"/>
      <point x="164" y="137" type="qcurve" smooth="yes"/>
      <point x="164" y="551" type="line" smooth="yes"/>
      <point x="164" y="682"/>
      <point x="72" y="682" type="qcurve" smooth="yes"/>
      <point x="56" y="682"/>
      <point x="55" y="756"/>
      <point x="72" y="756" type="qcurve" smooth="yes"/>
      <point x="121" y="756"/>
      <point x="258" y="823" type="qcurve" smooth="yes"/>
      <point x="321" y="854"/>
      <point x="342" y="872" type="qcurve" smooth="yes"/>
      <point x="354" y="882"/>
      <point x="371" y="883" type="qcurve" smooth="yes"/>
      <point x="400" y="883"/>
      <point x="399" y="858" type="qcurve" smooth="yes"/>
      <point x="393" y="788" type="line" smooth="yes"/>
      <point x="393" y="770"/>
      <point x="401" y="768" type="qcurve" smooth="yes"/>
      <point x="409" y="768"/>
      <point x="420" y="778" type="qcurve" smooth="yes"/>
      <point x="502" y="870"/>
      <point x="639" y="870" type="qcurve" smooth="yes"/>
      <point x="780" y="870"/>
      <point x="854" y="743" type="qcurve" smooth="yes"/>
      <point x="862" y="727"/>
      <point x="870" y="727" type="qcurve" smooth="yes"/>
      <point x="880" y="727"/>
      <point x="897" y="745" type="qcurve" smooth="yes"/>
      <point x="977" y="829"/>
      <point x="1083" y="858" type="qcurve" smooth="yes"/>
      <point x="1126" y="870"/>
      <point x="1167" y="870" type="qcurve" smooth="yes"/>
      <point x="1294" y="870"/>
      <point x="1372" y="801" type="qcurve" smooth="yes"/>
      <point x="1481" y="705"/>
      <point x="1481" y="553" type="qcurve" smooth="yes"/>
      <point x="1481" y="139" type="line" smooth="yes"/>
      <point x="1481" y="67"/>
      <point x="1587" y="68" type="qcurve" smooth="yes"/>
      <point x="1603" y="68"/>
      <point x="1603" y="-8"/>
    </contour>
  </outline>
</glyph>
<glyph name="n" format="1">
  <advance width="1085"/>
  <unicode hex="006E"/>
  <outline>
    <contour>
      <point x="651" y="899" type="move" name="Anchor1"/>
    </contour>
    <contour>
      <point x="547" y="-76" type="move" name="Anchor0"/>
    </contour>
    <contour>
      <point x="651" y="899" type="move" name="Anchor-1"/>
    </contour>
    <contour>
      <point x="547" y="-76" type="move" name="Anchor-0"/>
    </contour>
    <contour>
      <point x="1069" y="-8" type="qcurve" smooth="yes"/>
      <point x="963" y="0"/>
      <point x="754" y="0"/>
      <point x="633" y="-8" type="qcurve" smooth="yes"/>
      <point x="619" y="-8"/>
      <point x="618" y="68"/>
      <point x="633" y="68" type="qcurve" smooth="yes"/>
      <point x="733" y="68"/>
      <point x="733" y="129" type="qcurve" smooth="yes"/>
      <point x="733" y="537" type="line" smooth="yes"/>
      <point x="733" y="687"/>
      <point x="676" y="737" type="qcurve" smooth="yes"/>
      <point x="647" y="762"/>
      <point x="580" y="762" type="qcurve" smooth="yes"/>
      <point x="519" y="762"/>
      <point x="461" y="713" type="qcurve" smooth="yes"/>
      <point x="393" y="656"/>
      <point x="393" y="592" type="qcurve" smooth="yes"/>
      <point x="393" y="143" type="line" smooth="yes"/>
      <point x="393" y="67"/>
      <point x="492" y="68" type="qcurve" smooth="yes"/>
      <point x="506" y="68"/>
      <point x="508" y="-8"/>
      <point x="492" y="-8" type="qcurve" smooth="yes"/>
      <point x="408" y="0"/>
      <point x="276" y="0" type="qcurve" smooth="yes"/>
      <point x="141" y="0"/>
      <point x="57" y="-8" type="qcurve" smooth="yes"/>
      <point x="43" y="-8"/>
      <point x="43" y="68"/>
      <point x="57" y="68" type="qcurve" smooth="yes"/>
      <point x="163" y="68"/>
      <point x="164" y="143" type="qcurve" smooth="yes"/>
      <point x="164" y="549" type="line" smooth="yes"/>
      <point x="164" y="682"/>
      <point x="72" y="682" type="qcurve" smooth="yes"/>
      <point x="56" y="682"/>
      <point x="55" y="756"/>
      <point x="72" y="756" type="qcurve" smooth="yes"/>
      <point x="121" y="756"/>
      <point x="258" y="823" type="qcurve" smooth="yes"/>
      <point x="321" y="854"/>
      <point x="342" y="872" type="qcurve" smooth="yes"/>
      <point x="354" y="882"/>
      <point x="369" y="883" type="qcurve" smooth="yes"/>
      <point x="398" y="883"/>
      <point x="399" y="856" type="qcurve" smooth="yes"/>
      <point x="393" y="788" type="line" smooth="yes"/>
      <point x="393" y="770"/>
      <point x="412" y="768"/>
      <point x="420" y="778" type="qcurve" smooth="yes"/>
      <point x="463" y="833"/>
      <point x="557" y="858" type="qcurve" smooth="yes"/>
      <point x="598" y="868"/>
      <point x="653" y="870" type="qcurve" smooth="yes"/>
      <point x="841" y="870"/>
      <point x="928" y="684" type="qcurve" smooth="yes"/>
      <point x="965" y="610"/>
      <point x="963" y="465" type="qcurve" smooth="yes"/>
      <point x="963" y="135" type="line" smooth="yes"/>
      <point x="963" y="67"/>
      <point x="1069" y="68" type="qcurve" smooth="yes"/>
      <point x="1085" y="68"/>
      <point x="1085" y="-8"/>
    </contour>
  </outline>
</glyph>
<glyph name="o" format="1">
  <advance width="1030"/>
  <unicode hex="006F"/>
  <outline>
    <contour>
      <point x="510" y="899" type="move" name="Anchor1"/>
    </contour>
    <contour>
      <point x="512" y="-76" type="move" name="Anchor0"/>
    </contour>
    <contour>
      <point x="510" y="899" type="move" name="Anchor-1"/>
    </contour>
    <contour>
      <point x="512" y="-76" type="move" name="Anchor-0"/>
    </contour>
    <contour>
      <point x="969" y="426" type="qcurve" smooth="yes"/>
      <point x="969" y="217"/>
      <point x="846" y="94" type="qcurve" smooth="yes"/>
      <point x="727" y="-25"/>
      <point x="518" y="-23" type="qcurve" smooth="yes"/>
      <point x="334" y="-23"/>
      <point x="205" y="98" type="qcurve" smooth="yes"/>
      <point x="66" y="229"/>
      <point x="66" y="424" type="qcurve" smooth="yes"/>
      <point x="66" y="594"/>
      <point x="176" y="721" type="qcurve" smooth="yes"/>
      <point x="307" y="871"/>
      <point x="516" y="870" type="qcurve" smooth="yes"/>
      <point x="733" y="870"/>
      <point x="866" y="713" type="qcurve" smooth="yes"/>
      <point x="969" y="590"/>
    </contour>
    <contour>
      <point x="715" y="420" type="qcurve" smooth="yes"/>
      <point x="715" y="604"/>
      <point x="643" y="713" type="qcurve" smooth="yes"/>
      <point x="590" y="795"/>
      <point x="518" y="793" type="qcurve" smooth="yes"/>
      <point x="436" y="793"/>
      <point x="379" y="688" type="qcurve" smooth="yes"/>
      <point x="320" y="579"/>
      <point x="319" y="420" type="qcurve" smooth="yes"/>
      <point x="319" y="236"/>
      <point x="391" y="133" type="qcurve" smooth="yes"/>
      <point x="442" y="61"/>
      <point x="516" y="61" type="qcurve" smooth="yes"/>
      <point x="610" y="61"/>
      <point x="666" y="174" type="qcurve" smooth="yes"/>
      <point x="715" y="275"/>
    </contour>
  </outline>
</glyph>
<glyph name="p" format="1">
  <advance width="1007"/>
  <unicode hex="0070"/>
  <outline>
    <contour>
      <point x="508" y="899" type="move" name="Anchor1"/>
    </contour>
    <contour>
      <point x="508" y="899" type="move" name="Anchor-1"/>
    </contour>
    <contour>
      <point x="958" y="475" type="qcurve" smooth="yes"/>
      <point x="958" y="127"/>
      <point x="758" y="23" type="qcurve" smooth="yes"/>
      <point x="670" y="-22"/>
      <point x="526" y="-23" type="qcurve" smooth="yes"/>
      <point x="436" y="-23"/>
      <point x="399" y="-4" type="qcurve" smooth="yes"/>
      <point x="391" y="0"/>
      <point x="385" y="0" type="qcurve" smooth="yes"/>
      <point x="367" y="0"/>
      <point x="367" y="-27" type="qcurve" smooth="yes"/>
      <point x="367" y="-397" type="line" smooth="yes"/>
      <point x="367" y="-483"/>
      <point x="508" y="-483" type="qcurve" smooth="yes"/>
      <point x="522" y="-483"/>
      <point x="522" y="-559"/>
      <point x="508" y="-559" type="qcurve" smooth="yes"/>
      <point x="424" y="-551"/>
      <point x="256" y="-551" type="qcurve" smooth="yes"/>
      <point x="113" y="-551"/>
      <point x="33" y="-559" type="qcurve" smooth="yes"/>
      <point x="17" y="-559"/>
      <point x="16" y="-483"/>
      <point x="33" y="-483" type="qcurve" smooth="yes"/>
      <point x="135" y="-483"/>
      <point x="137" y="-399" type="qcurve" smooth="yes"/>
      <point x="137" y="549" type="line" smooth="yes"/>
      <point x="137" y="682"/>
      <point x="45" y="682" type="qcurve" smooth="yes"/>
      <point x="31" y="682"/>
      <point x="31" y="756"/>
      <point x="45" y="756" type="qcurve" smooth="yes"/>
      <point x="100" y="756"/>
      <point x="236" y="825" type="qcurve" smooth="yes"/>
      <point x="293" y="856"/>
      <point x="313" y="872" type="qcurve" smooth="yes"/>
      <point x="327" y="882"/>
      <point x="340" y="883" type="qcurve" smooth="yes"/>
      <point x="367" y="883"/>
      <point x="371" y="862" type="qcurve" smooth="yes"/>
      <point x="367" y="815" type="line" smooth="yes"/>
      <point x="367" y="790"/>
      <point x="381" y="791" type="qcurve" smooth="yes"/>
      <point x="393" y="791"/>
      <point x="408" y="809" type="qcurve" smooth="yes"/>
      <point x="437" y="842"/>
      <point x="492" y="860" type="qcurve" smooth="yes"/>
      <point x="523" y="868"/>
      <point x="559" y="870" type="qcurve" smooth="yes"/>
      <point x="709" y="870"/>
      <point x="801" y="805" type="qcurve" smooth="yes"/>
      <point x="958" y="690"/>
    </contour>
    <contour>
      <point x="725" y="401" type="qcurve" smooth="yes"/>
      <point x="725" y="626"/>
      <point x="641" y="719" type="qcurve" smooth="yes"/>
      <point x="590" y="770"/>
      <point x="518" y="770" type="qcurve" smooth="yes"/>
      <point x="432" y="770"/>
      <point x="379" y="686" type="qcurve" smooth="yes"/>
      <point x="367" y="668"/>
      <point x="367" y="616" type="qcurve" smooth="yes"/>
      <point x="367" y="178" type="line" smooth="yes"/>
      <point x="373" y="59"/>
      <point x="545" y="59" type="qcurve" smooth="yes"/>
      <point x="633" y="59"/>
      <point x="688" y="199" type="qcurve" smooth="yes"/>
      <point x="725" y="290"/>
    </contour>
  </outline>
</glyph>
<glyph name="r" format="1">
  <advance width="753"/>
  <unicode hex="0072"/>
  <outline>
    <contour>
      <point x="457" y="899" type="move" name="Anchor1"/>
    </contour>
    <contour>
      <point x="379" y="-76" type="move" name="Anchor0"/>
    </contour>
    <contour>
      <point x="457" y="899" type="move" name="Anchor-1"/>
    </contour>
    <contour>
      <point x="379" y="-76" type="move" name="Anchor-0"/>
    </contour>
    <contour>
      <point x="756" y="752" type="qcurve" smooth="yes"/>
      <point x="756" y="693"/>
      <point x="715" y="657" type="qcurve" smooth="yes"/>
      <point x="688" y="632"/>
      <point x="653" y="633" type="qcurve" smooth="yes"/>
      <point x="602" y="633"/>
      <point x="551" y="684" type="qcurve" smooth="yes"/>
      <point x="528" y="707"/>
      <point x="502" y="707" type="qcurve" smooth="yes"/>
      <point x="459" y="707"/>
      <point x="426" y="649" type="qcurve" smooth="yes"/>
      <point x="393" y="594"/>
      <point x="393" y="522" type="qcurve" smooth="yes"/>
      <point x="393" y="143" type="line" smooth="yes"/>
      <point x="393" y="67"/>
      <point x="496" y="68" type="qcurve" smooth="yes"/>
      <point x="510" y="68"/>
      <point x="512" y="-8"/>
      <point x="496" y="-8" type="qcurve" smooth="yes"/>
      <point x="412" y="0"/>
      <point x="287" y="0" type="qcurve" smooth="yes"/>
      <point x="144" y="0"/>
      <point x="59" y="-8" type="qcurve" smooth="yes"/>
      <point x="45" y="-8"/>
      <point x="43" y="68"/>
      <point x="59" y="68" type="qcurve" smooth="yes"/>
      <point x="163" y="68"/>
      <point x="164" y="143" type="qcurve" smooth="yes"/>
      <point x="164" y="549" type="line" smooth="yes"/>
      <point x="164" y="682"/>
      <point x="72" y="682" type="qcurve" smooth="yes"/>
      <point x="56" y="682"/>
      <point x="55" y="756"/>
      <point x="72" y="756" type="qcurve" smooth="yes"/>
      <point x="123" y="756"/>
      <point x="262" y="825" type="qcurve" smooth="yes"/>
      <point x="321" y="856"/>
      <point x="342" y="872" type="qcurve" smooth="yes"/>
      <point x="354" y="882"/>
      <point x="371" y="883" type="qcurve" smooth="yes"/>
      <point x="396" y="883"/>
      <point x="399" y="862" type="qcurve" smooth="yes"/>
      <point x="393" y="788" type="line" smooth="yes"/>
      <point x="393" y="765"/>
      <point x="420" y="766"/>
      <point x="442" y="791" type="qcurve" smooth="yes"/>
      <point x="510" y="871"/>
      <point x="610" y="870" type="qcurve" smooth="yes"/>
      <point x="680" y="870"/>
      <point x="725" y="825" type="qcurve" smooth="yes"/>
      <point x="756" y="795"/>
    </contour>
  </outline>
</glyph>
<glyph name="s" format="1">
  <advance width="747"/>
  <unicode hex="0073"/>
  <outline>
    <contour>
      <point x="385" y="899" type="move" name="Anchor1"/>
    </contour>
    <contour>
      <point x="342" y="-76" type="move" name="Anchor0"/>
    </contour>
    <contour>
      <point x="385" y="899" type="move" name="Anchor-1"/>
    </contour>
    <contour>
      <point x="342" y="-76" type="move" name="Anchor-0"/>
    </contour>
    <contour>
      <point x="346" y="-23" type="qcurve" smooth="yes"/>
      <point x="201" y="-23"/>
      <point x="106" y="37" type="qcurve"/>
      <point x="77" y="105"/>
      <point x="78" y="258" type="qcurve" smooth="yes"/>
      <point x="78" y="276"/>
      <point x="113" y="276" type="qcurve" smooth="yes"/>
      <point x="152" y="276"/>
      <point x="154" y="260" type="qcurve" smooth="yes"/>
      <point x="158" y="207"/>
      <point x="221" y="133" type="qcurve" smooth="yes"/>
      <point x="287" y="57"/>
      <point x="379" y="57" type="qcurve" smooth="yes"/>
      <point x="428" y="57"/>
      <point x="469" y="98" type="qcurve" smooth="yes"/>
      <point x="502" y="133"/>
      <point x="502" y="174" type="qcurve" smooth="yes"/>
      <point x="502" y="295"/>
      <point x="330" y="340" type="qcurve" smooth="yes"/>
      <point x="154" y="387"/>
      <point x="92" y="489" type="qcurve" smooth="yes"/>
      <point x="61" y="540"/>
      <point x="63" y="612" type="qcurve" smooth="yes"/>
      <point x="63" y="727"/>
      <point x="164" y="801" type="qcurve" smooth="yes"/>
      <point x="256" y="871"/>
      <point x="387" y="870" type="qcurve" smooth="yes"/>
      <point x="510" y="870"/>
      <point x="604" y="834" type="qcurve"/>
      <point x="643" y="730"/>
      <point x="643" y="643" type="qcurve" smooth="yes"/>
      <point x="643" y="625"/>
      <point x="612" y="625" type="qcurve" smooth="yes"/>
      <point x="579" y="625"/>
      <point x="578" y="635" type="qcurve" smooth="yes"/>
      <point x="560" y="686"/>
      <point x="498" y="748" type="qcurve" smooth="yes"/>
      <point x="457" y="789"/>
      <point x="373" y="788" type="qcurve" smooth="yes"/>
      <point x="312" y="788"/>
      <point x="274" y="737" type="qcurve" smooth="yes"/>
      <point x="251" y="706"/>
      <point x="252" y="674" type="qcurve" smooth="yes"/>
      <point x="252" y="574"/>
      <point x="420" y="532" type="qcurve" smooth="yes"/>
      <point x="580" y="491"/>
      <point x="643" y="416" type="qcurve" smooth="yes"/>
      <point x="692" y="355"/>
      <point x="694" y="258" type="qcurve" smooth="yes"/>
      <point x="694" y="125"/>
      <point x="584" y="43" type="qcurve" smooth="yes"/>
      <point x="489" y="-25"/>
    </contour>
  </outline>
</glyph>
<glyph name="t" format="1">
  <advance width="669"/>
  <unicode hex="0074"/>
  <outline>
    <contour>
      <point x="330" y="1079" type="move" name="Anchor1"/>
    </contour>
    <contour>
      <point x="391" y="-76" type="move" name="Anchor0"/>
    </contour>
    <contour>
      <point x="330" y="1079" type="move" name="Anchor-1"/>
    </contour>
    <contour>
      <point x="391" y="-76" type="move" name="Anchor-0"/>
    </contour>
    <contour>
      <point x="686" y="90" type="qcurve" smooth="yes"/>
      <point x="577" y="-23"/>
      <point x="412" y="-23" type="qcurve" smooth="yes"/>
      <point x="193" y="-21"/>
      <point x="160" y="160" type="qcurve" smooth="yes"/>
      <point x="154" y="193"/>
      <point x="154" y="233" type="qcurve" smooth="yes"/>
      <point x="154" y="715" type="line" smooth="yes"/>
      <point x="154" y="746"/>
      <point x="123" y="745" type="qcurve" smooth="yes"/>
      <point x="68" y="745" type="line" smooth="yes"/>
      <point x="52" y="745"/>
      <point x="51" y="819"/>
      <point x="68" y="819" type="qcurve" smooth="yes"/>
      <point x="129" y="819"/>
      <point x="201" y="879" type="qcurve" smooth="yes"/>
      <point x="271" y="936"/>
      <point x="293" y="1004" type="qcurve" smooth="yes"/>
      <point x="297" y="1016"/>
      <point x="336" y="1006" type="qcurve" smooth="yes"/>
      <point x="379" y="994"/>
      <point x="385" y="975" type="qcurve" smooth="yes"/>
      <point x="385" y="881" type="line" smooth="yes"/>
      <point x="385" y="850"/>
      <point x="416" y="850" type="qcurve" smooth="yes"/>
      <point x="631" y="850" type="line" smooth="yes"/>
      <point x="645" y="850"/>
      <point x="645" y="745"/>
      <point x="631" y="745" type="qcurve" smooth="yes"/>
      <point x="416" y="745" type="line" smooth="yes"/>
      <point x="385" y="745"/>
      <point x="385" y="715" type="qcurve" smooth="yes"/>
      <point x="385" y="299" type="line" smooth="yes"/>
      <point x="385" y="178"/>
      <point x="420" y="139" type="qcurve" smooth="yes"/>
      <point x="447" y="108"/>
      <point x="506" y="109" type="qcurve" smooth="yes"/>
      <point x="557" y="109"/>
      <point x="633" y="156" type="qcurve" smooth="yes"/>
      <point x="643" y="164"/>
      <point x="672" y="131" type="qcurve" smooth="yes"/>
      <point x="690" y="108"/>
      <point x="688" y="96" type="qcurve" smooth="yes"/>
      <point x="688" y="92"/>
    </contour>
  </outline>
</glyph>
<glyph name="u" format="1">
  <advance width="1026"/>
  <unicode hex="0075"/>
  <outline>
    <contour>
      <point x="506" y="899" type="move" name="Anchor1"/>
    </contour>
    <contour>
      <point x="475" y="-76" type="move" name="Anchor0"/>
    </contour>
    <contour>
      <point x="506" y="899" type="move" name="Anchor-1"/>
    </contour>
    <contour>
      <point x="475" y="-76" type="move" name="Anchor-0"/>
    </contour>
    <contour>
      <point x="1038" y="31" type="qcurve" smooth="yes"/>
      <point x="1030" y="29"/>
      <point x="934" y="10" type="qcurve" smooth="yes"/>
      <point x="907" y="6"/>
      <point x="883" y="0" type="qcurve" smooth="yes"/>
      <point x="828" y="-12"/>
      <point x="768" y="-31" type="qcurve" smooth="yes"/>
      <point x="756" y="-35"/>
      <point x="743" y="-35" type="qcurve" smooth="yes"/>
      <point x="729" y="-35"/>
      <point x="729" y="10" type="qcurve" smooth="yes"/>
      <point x="729" y="57" type="line" smooth="yes"/>
      <point x="729" y="80"/>
      <point x="705" y="80"/>
      <point x="690" y="66" type="qcurve" smooth="yes"/>
      <point x="598" y="-22"/>
      <point x="444" y="-23" type="qcurve" smooth="yes"/>
      <point x="317" y="-23"/>
      <point x="274" y="12" type="qcurve" smooth="yes"/>
      <point x="127" y="131"/>
      <point x="127" y="309" type="qcurve" smooth="yes"/>
      <point x="127" y="655" type="line" smooth="yes"/>
      <point x="127" y="757"/>
      <point x="43" y="758" type="qcurve" smooth="yes"/>
      <point x="29" y="758"/>
      <point x="29" y="831"/>
      <point x="43" y="831" type="qcurve" smooth="yes"/>
      <point x="156" y="831"/>
      <point x="266" y="850" type="qcurve" smooth="yes"/>
      <point x="297" y="854"/>
      <point x="317" y="854" type="qcurve" smooth="yes"/>
      <point x="362" y="854"/>
      <point x="362" y="811" type="qcurve" smooth="yes"/>
      <point x="356" y="713"/>
      <point x="356" y="649" type="qcurve" smooth="yes"/>
      <point x="356" y="307" type="line" smooth="yes"/>
      <point x="356" y="184"/>
      <point x="406" y="125" type="qcurve" smooth="yes"/>
      <point x="435" y="92"/>
      <point x="504" y="92" type="qcurve" smooth="yes"/>
      <point x="567" y="92"/>
      <point x="637" y="147" type="qcurve" smooth="yes"/>
      <point x="690" y="190"/>
      <point x="690" y="240" type="qcurve" smooth="yes"/>
      <point x="690" y="655" type="line" smooth="yes"/>
      <point x="690" y="757"/>
      <point x="606" y="758" type="qcurve" smooth="yes"/>
      <point x="590" y="758"/>
      <point x="590" y="831"/>
      <point x="606" y="831" type="qcurve" smooth="yes"/>
      <point x="717" y="831"/>
      <point x="836" y="850" type="qcurve" smooth="yes"/>
      <point x="861" y="854"/>
      <point x="874" y="854" type="qcurve" smooth="yes"/>
      <point x="927" y="854"/>
      <point x="928" y="817" type="qcurve" smooth="yes"/>
      <point x="920" y="723"/>
      <point x="920" y="662" type="qcurve" smooth="yes"/>
      <point x="920" y="256" type="line" smooth="yes"/>
      <point x="920" y="166"/>
      <point x="930" y="139" type="qcurve" smooth="yes"/>
      <point x="944" y="98"/>
      <point x="981" y="98" type="qcurve" smooth="yes"/>
      <point x="993" y="98"/>
      <point x="1016" y="104" type="qcurve" smooth="yes"/>
      <point x="1032" y="108"/>
      <point x="1042" y="72" type="qcurve" smooth="yes"/>
      <point x="1044" y="58"/>
      <point x="1044" y="49" type="qcurve" smooth="yes"/>
      <point x="1044" y="33"/>
    </contour>
  </outline>
</glyph>
<glyph name="v" format="1">
  <advance width="923"/>
  <unicode hex="0076"/>
  <outline>
    <contour>
      <point x="510" y="899" type="move" name="Anchor1"/>
    </contour>
    <contour>
      <point x="461" y="-76" type="move" name="Anchor0"/>
    </contour>
    <contour>
      <point x="510" y="899" type="move" name="Anchor-1"/>
    </contour>
    <contour>
      <point x="461" y="-76" type="move" name="Anchor-0"/>
    </contour>
    <contour>
      <point x="113" y="713" type="line" smooth="yes"/>
      <point x="82" y="785"/>
      <point x="12" y="784" type="qcurve" smooth="yes"/>
      <point x="-2" y="784"/>
      <point x="-2" y="856"/>
      <point x="12" y="856" type="qcurve" smooth="yes"/>
      <point x="75" y="850"/>
      <point x="205" y="850" type="qcurve" smooth="yes"/>
      <point x="361" y="850"/>
      <point x="424" y="856" type="qcurve" smooth="yes"/>
      <point x="438" y="856"/>
      <point x="438" y="784"/>
      <point x="424" y="784" type="qcurve" smooth="yes"/>
      <point x="354" y="784"/>
      <point x="354" y="739" type="qcurve" smooth="yes"/>
      <point x="354" y="721"/>
      <point x="356" y="713" type="qcurve" smooth="yes"/>
      <point x="502" y="256" type="line" smooth="yes"/>
      <point x="506" y="242"/>
      <point x="514" y="242" type="qcurve" smooth="yes"/>
      <point x="520" y="242"/>
      <point x="528" y="256" type="qcurve" smooth="yes"/>
      <point x="684" y="707" type="line" smooth="yes"/>
      <point x="688" y="719"/>
      <point x="688" y="731" type="qcurve" smooth="yes"/>
      <point x="688" y="784"/>
      <point x="598" y="784" type="qcurve" smooth="yes"/>
      <point x="584" y="784"/>
      <point x="584" y="856"/>
      <point x="598" y="856" type="qcurve" smooth="yes"/>
      <point x="657" y="850"/>
      <point x="778" y="850" type="qcurve" smooth="yes"/>
      <point x="870" y="850"/>
      <point x="934" y="856" type="qcurve" smooth="yes"/>
      <point x="948" y="856"/>
      <point x="948" y="784"/>
      <point x="934" y="784" type="qcurve" smooth="yes"/>
      <point x="836" y="784"/>
      <point x="809" y="713" type="qcurve" smooth="yes"/>
      <point x="551" y="39" type="line" smooth="yes"/>
      <point x="524" y="-22"/>
      <point x="471" y="-23" type="qcurve" smooth="yes"/>
      <point x="420" y="-23"/>
      <point x="399" y="29" type="qcurve" smooth="yes"/>
    </contour>
  </outline>
</glyph>
<glyph name="w" format="1">
  <advance width="1456"/>
  <unicode hex="0077"/>
  <outline>
    <contour>
      <point x="743" y="899" type="move" name="Anchor1"/>
    </contour>
    <contour>
      <point x="735" y="-76" type="move" name="Anchor0"/>
    </contour>
    <contour>
      <point x="743" y="899" type="move" name="Anchor-1"/>
    </contour>
    <contour>
      <point x="735" y="-76" type="move" name="Anchor-0"/>
    </contour>
    <contour>
      <point x="113" y="713" type="line" smooth="yes"/>
      <point x="82" y="785"/>
      <point x="12" y="784" type="qcurve" smooth="yes"/>
      <point x="-2" y="784"/>
      <point x="-2" y="856"/>
      <point x="12" y="856" type="qcurve" smooth="yes"/>
      <point x="75" y="850"/>
      <point x="205" y="850" type="qcurve" smooth="yes"/>
      <point x="361" y="850"/>
      <point x="424" y="856" type="qcurve" smooth="yes"/>
      <point x="438" y="856"/>
      <point x="438" y="784"/>
      <point x="424" y="784" type="qcurve" smooth="yes"/>
      <point x="354" y="784"/>
      <point x="354" y="739" type="qcurve" smooth="yes"/>
      <point x="354" y="721"/>
      <point x="360" y="700" type="qcurve" smooth="yes"/>
      <point x="502" y="256" type="line" smooth="yes"/>
      <point x="506" y="242"/>
      <point x="522" y="242"/>
      <point x="528" y="256" type="qcurve" smooth="yes"/>
      <point x="651" y="614" type="line" smooth="yes"/>
      <point x="655" y="626"/>
      <point x="655" y="647"/>
      <point x="651" y="659" type="qcurve" smooth="yes"/>
      <point x="629" y="713" type="line" smooth="yes"/>
      <point x="598" y="785"/>
      <point x="541" y="784" type="qcurve" smooth="yes"/>
      <point x="525" y="784"/>
      <point x="524" y="856"/>
      <point x="541" y="856" type="qcurve" smooth="yes"/>
      <point x="600" y="850"/>
      <point x="721" y="850" type="qcurve" smooth="yes"/>
      <point x="881" y="850"/>
      <point x="940" y="856" type="qcurve" smooth="yes"/>
      <point x="956" y="856"/>
      <point x="956" y="784"/>
      <point x="940" y="784" type="qcurve" smooth="yes"/>
      <point x="870" y="784"/>
      <point x="870" y="737" type="qcurve" smooth="yes"/>
      <point x="870" y="723"/>
      <point x="877" y="700" type="qcurve" smooth="yes"/>
      <point x="1018" y="256" type="line" smooth="yes"/>
      <point x="1022" y="242"/>
      <point x="1038" y="242"/>
      <point x="1044" y="256" type="qcurve" smooth="yes"/>
      <point x="1200" y="707" type="line" smooth="yes"/>
      <point x="1204" y="719"/>
      <point x="1204" y="731" type="qcurve" smooth="yes"/>
      <point x="1204" y="784"/>
      <point x="1114" y="784" type="qcurve" smooth="yes"/>
      <point x="1100" y="784"/>
      <point x="1100" y="856"/>
      <point x="1114" y="856" type="qcurve" smooth="yes"/>
      <point x="1177" y="850"/>
      <point x="1294" y="850" type="qcurve" smooth="yes"/>
      <point x="1390" y="850"/>
      <point x="1450" y="856" type="qcurve" smooth="yes"/>
      <point x="1464" y="856"/>
      <point x="1464" y="784"/>
      <point x="1450" y="784" type="qcurve" smooth="yes"/>
      <point x="1352" y="784"/>
      <point x="1325" y="713" type="qcurve" smooth="yes"/>
      <point x="1067" y="39" type="line" smooth="yes"/>
      <point x="1044" y="-22"/>
      <point x="938" y="-23"/>
      <point x="915" y="29" type="qcurve" smooth="yes"/>
      <point x="737" y="455" type="line" smooth="yes"/>
      <point x="733" y="467"/>
      <point x="717" y="469"/>
      <point x="711" y="455" type="qcurve" smooth="yes"/>
      <point x="551" y="39" type="line" smooth="yes"/>
      <point x="526" y="-22"/>
      <point x="473" y="-23" type="qcurve" smooth="yes"/>
      <point x="424" y="-23"/>
      <point x="399" y="29" type="qcurve" smooth="yes"/>
    </contour>
  </outline>
</glyph>
<glyph name="x" format="1">
  <advance width="948"/>
  <unicode hex="0078"/>
  <outline>
    <contour>
      <point x="489" y="899" type="move" name="Anchor1"/>
    </contour>
    <contour>
      <point x="446" y="-76" type="move" name="Anchor0"/>
    </contour>
    <contour>
      <point x="489" y="899" type="move" name="Anchor-1"/>
    </contour>
    <contour>
      <point x="446" y="-76" type="move" name="Anchor-0"/>
    </contour>
    <contour>
      <point x="811" y="154" type="line" smooth="yes"/>
      <point x="874" y="68"/>
      <point x="946" y="68" type="qcurve" smooth="yes"/>
      <point x="962" y="68"/>
      <point x="963" y="-8"/>
      <point x="946" y="-8" type="qcurve" smooth="yes"/>
      <point x="866" y="0"/>
      <point x="727" y="0" type="qcurve" smooth="yes"/>
      <point x="577" y="0"/>
      <point x="498" y="-8" type="qcurve" smooth="yes"/>
      <point x="482" y="-8"/>
      <point x="481" y="68"/>
      <point x="498" y="68" type="qcurve" smooth="yes"/>
      <point x="580" y="68"/>
      <point x="580" y="92" type="qcurve" smooth="yes"/>
      <point x="580" y="102"/>
      <point x="549" y="147" type="qcurve" smooth="yes"/>
      <point x="444" y="299" type="line" smooth="yes"/>
      <point x="438" y="307"/>
      <point x="426" y="307" type="qcurve" smooth="yes"/>
      <point x="418" y="307"/>
      <point x="410" y="297" type="qcurve" smooth="yes"/>
      <point x="299" y="164" type="line" smooth="yes"/>
      <point x="252" y="109"/>
      <point x="252" y="90" type="qcurve" smooth="yes"/>
      <point x="252" y="65"/>
      <point x="311" y="68" type="qcurve" smooth="yes"/>
      <point x="327" y="68"/>
      <point x="328" y="-8"/>
      <point x="311" y="-8" type="qcurve" smooth="yes"/>
      <point x="231" y="0"/>
      <point x="147" y="0" type="qcurve" smooth="yes"/>
      <point x="65" y="0"/>
      <point x="-14" y="-8" type="qcurve" smooth="yes"/>
      <point x="-30" y="-8"/>
      <point x="-31" y="68"/>
      <point x="-14" y="68" type="qcurve" smooth="yes"/>
      <point x="86" y="68"/>
      <point x="141" y="135" type="qcurve" smooth="yes"/>
      <point x="346" y="385" type="line" smooth="yes"/>
      <point x="356" y="397"/>
      <point x="356" y="412" type="qcurve" smooth="yes"/>
      <point x="356" y="422"/>
      <point x="350" y="434" type="qcurve" smooth="yes"/>
      <point x="129" y="715" type="line" smooth="yes"/>
      <point x="76" y="785"/>
      <point x="16" y="784" type="qcurve" smooth="yes"/>
      <point x="2" y="784"/>
      <point x="0" y="856"/>
      <point x="16" y="856" type="qcurve" smooth="yes"/>
      <point x="79" y="850"/>
      <point x="229" y="850" type="qcurve" smooth="yes"/>
      <point x="383" y="850"/>
      <point x="442" y="856" type="qcurve" smooth="yes"/>
      <point x="458" y="856"/>
      <point x="459" y="784"/>
      <point x="442" y="784" type="qcurve" smooth="yes"/>
      <point x="381" y="784"/>
      <point x="381" y="756" type="qcurve" smooth="yes"/>
      <point x="381" y="738"/>
      <point x="406" y="702" type="qcurve" smooth="yes"/>
      <point x="481" y="596" type="line" smooth="yes"/>
      <point x="487" y="586"/>
      <point x="500" y="586" type="qcurve" smooth="yes"/>
      <point x="510" y="586"/>
      <point x="518" y="596" type="qcurve" smooth="yes"/>
      <point x="590" y="686" type="line" smooth="yes"/>
      <point x="623" y="729"/>
      <point x="623" y="752" type="qcurve" smooth="yes"/>
      <point x="623" y="785"/>
      <point x="551" y="784" type="qcurve" smooth="yes"/>
      <point x="535" y="784"/>
      <point x="535" y="856"/>
      <point x="551" y="856" type="qcurve" smooth="yes"/>
      <point x="610" y="850"/>
      <point x="717" y="850" type="qcurve" smooth="yes"/>
      <point x="821" y="850"/>
      <point x="885" y="856" type="qcurve" smooth="yes"/>
      <point x="899" y="856"/>
      <point x="899" y="784"/>
      <point x="885" y="784" type="qcurve" smooth="yes"/>
      <point x="822" y="784"/>
      <point x="766" y="719" type="qcurve" smooth="yes"/>
      <point x="584" y="502" type="line" smooth="yes"/>
      <point x="574" y="490"/>
      <point x="573" y="477" type="qcurve" smooth="yes"/>
      <point x="573" y="467"/>
      <point x="584" y="455" type="qcurve" smooth="yes"/>
    </contour>
  </outline>
</glyph>
<glyph name="y" format="1">
  <advance width="882"/>
  <unicode hex="0079"/>
  <outline>
    <contour>
      <point x="430" y="899" type="move" name="Anchor1"/>
    </contour>
    <contour>
      <point x="430" y="899" type="move" name="Anchor-1"/>
    </contour>
    <contour>
      <point x="338" y="-399" type="line" smooth="yes"/>
      <point x="297" y="-505"/>
      <point x="211" y="-541" type="qcurve" smooth="yes"/>
      <point x="178" y="-553"/>
      <point x="141" y="-553" type="qcurve" smooth="yes"/>
      <point x="80" y="-553"/>
      <point x="41" y="-510" type="qcurve" smooth="yes"/>
      <point x="14" y="-479"/>
      <point x="14" y="-442" type="qcurve" smooth="yes"/>
      <point x="14" y="-381"/>
      <point x="74" y="-350" type="qcurve" smooth="yes"/>
      <point x="105" y="-336"/>
      <point x="139" y="-336" type="qcurve" smooth="yes"/>
      <point x="243" y="-336"/>
      <point x="260" y="-297" type="qcurve" smooth="yes"/>
      <point x="338" y="-115" type="line" smooth="yes"/>
      <point x="344" y="-97"/>
      <point x="344" y="-63"/>
      <point x="338" y="-45" type="qcurve" smooth="yes"/>
      <point x="68" y="713" type="line" smooth="yes"/>
      <point x="41" y="785"/>
      <point x="-39" y="784" type="qcurve" smooth="yes"/>
      <point x="-53" y="784"/>
      <point x="-53" y="856"/>
      <point x="-39" y="856" type="qcurve" smooth="yes"/>
      <point x="24" y="850"/>
      <point x="164" y="850" type="qcurve" smooth="yes"/>
      <point x="311" y="850"/>
      <point x="375" y="856" type="qcurve" smooth="yes"/>
      <point x="389" y="856"/>
      <point x="389" y="784"/>
      <point x="375" y="784" type="qcurve" smooth="yes"/>
      <point x="295" y="784"/>
      <point x="295" y="737" type="qcurve" smooth="yes"/>
      <point x="295" y="723"/>
      <point x="303" y="700" type="qcurve" smooth="yes"/>
      <point x="455" y="276" type="line" smooth="yes"/>
      <point x="461" y="256"/>
      <point x="471" y="256" type="qcurve" smooth="yes"/>
      <point x="483" y="256"/>
      <point x="494" y="279" type="qcurve" smooth="yes"/>
      <point x="659" y="700" type="line" smooth="yes"/>
      <point x="663" y="712"/>
      <point x="664" y="723" type="qcurve" smooth="yes"/>
      <point x="664" y="784"/>
      <point x="543" y="784" type="qcurve" smooth="yes"/>
      <point x="527" y="784"/>
      <point x="526" y="856"/>
      <point x="543" y="856" type="qcurve" smooth="yes"/>
      <point x="602" y="850"/>
      <point x="737" y="850" type="qcurve" smooth="yes"/>
      <point x="852" y="850"/>
      <point x="911" y="856" type="qcurve" smooth="yes"/>
      <point x="927" y="856"/>
      <point x="928" y="784"/>
      <point x="911" y="784" type="qcurve" smooth="yes"/>
      <point x="819" y="784"/>
      <point x="786" y="725" type="qcurve"/>
    </contour>
  </outline>
</glyph>
<glyph name="z" format="1">
  <advance width="768"/>
  <unicode hex="007A"/>
  <outline>
    <contour>
      <point x="399" y="899" type="move" name="Anchor1"/>
    </contour>
    <contour>
      <point x="369" y="-76" type="move" name="Anchor0"/>
    </contour>
    <contour>
      <point x="399" y="899" type="move" name="Anchor-1"/>
    </contour>
    <contour>
      <point x="369" y="-76" type="move" name="Anchor-0"/>
    </contour>
    <contour>
      <point x="766" y="264" type="qcurve" smooth="yes"/>
      <point x="741" y="76" type="line" smooth="yes"/>
      <point x="739" y="41"/>
      <point x="739" y="16" type="qcurve" smooth="yes"/>
      <point x="739" y="-25"/>
      <point x="700" y="-25" type="qcurve" smooth="yes"/>
      <point x="690" y="-25"/>
      <point x="604" y="-10" type="qcurve" smooth="yes"/>
      <point x="551" y="0"/>
      <point x="512" y="0" type="qcurve" smooth="yes"/>
      <point x="70" y="0" type="line" smooth="yes"/>
      <point x="29" y="0"/>
      <point x="29" y="37" type="qcurve" smooth="yes"/>
      <point x="29" y="49"/>
      <point x="37" y="68" type="qcurve" smooth="yes"/>
      <point x="393" y="727" type="line" smooth="yes"/>
      <point x="401" y="743"/>
      <point x="401" y="754" type="qcurve" smooth="yes"/>
      <point x="401" y="774"/>
      <point x="373" y="774" type="qcurve" smooth="yes"/>
      <point x="262" y="774" type="line" smooth="yes"/>
      <point x="199" y="774"/>
      <point x="137" y="645" type="qcurve" smooth="yes"/>
      <point x="92" y="543" type="line" smooth="yes"/>
      <point x="88" y="535"/>
      <point x="74" y="535" type="qcurve" smooth="yes"/>
      <point x="56" y="535"/>
      <point x="39" y="547" type="qcurve" smooth="yes"/>
      <point x="27" y="555"/>
      <point x="25" y="569" type="qcurve" smooth="yes"/>
      <point x="54" y="821"/>
      <point x="55" y="825" type="qcurve" smooth="yes"/>
      <point x="61" y="868"/>
      <point x="86" y="870" type="qcurve" smooth="yes"/>
      <point x="244" y="850"/>
      <point x="297" y="850" type="qcurve" smooth="yes"/>
      <point x="645" y="850" type="line" smooth="yes"/>
      <point x="690" y="850"/>
      <point x="690" y="817" type="qcurve" smooth="yes"/>
      <point x="690" y="799"/>
      <point x="682" y="784" type="qcurve" smooth="yes"/>
      <point x="324" y="119" type="line" smooth="yes"/>
      <point x="320" y="113"/>
      <point x="319" y="104" type="qcurve" smooth="yes"/>
      <point x="319" y="79"/>
      <point x="348" y="80" type="qcurve" smooth="yes"/>
      <point x="457" y="80" type="line" smooth="yes"/>
      <point x="588" y="80"/>
      <point x="682" y="285" type="qcurve" smooth="yes"/>
      <point x="686" y="295"/>
      <point x="709" y="297" type="qcurve" smooth="yes"/>
      <point x="717" y="297"/>
      <point x="735" y="293" type="qcurve" smooth="yes"/>
      <point x="766" y="282"/>
    </contour>
  </outline>
</glyph>
<glyph name="braceleft" format="1">
  <advance width="782"/>
  <unicode hex="007B"/>
  <outline>
    <contour>
      <point x="715" y="-319" type="qcurve" smooth="yes"/>
      <point x="539" y="-319"/>
      <point x="475" y="-309" type="qcurve" smooth="yes"/>
      <point x="336" y="-284"/>
      <point x="287" y="-184" type="qcurve" smooth="yes"/>
      <point x="250" y="-112"/>
      <point x="250" y="6" type="qcurve" smooth="yes"/>
      <point x="250" y="430" type="line" smooth="yes"/>
      <point x="250" y="545"/>
      <point x="174" y="573" type="qcurve" smooth="yes"/>
      <point x="143" y="585"/>
      <point x="96" y="586" type="qcurve" smooth="yes"/>
      <point x="82" y="586"/>
      <point x="82" y="647"/>
      <point x="96" y="647" type="qcurve" smooth="yes"/>
      <point x="213" y="647"/>
      <point x="240" y="725" type="qcurve" smooth="yes"/>
      <point x="250" y="754"/>
      <point x="250" y="797" type="qcurve" smooth="yes"/>
      <point x="250" y="1122" type="line" smooth="yes"/>
      <point x="250" y="1341"/>
      <point x="332" y="1419" type="qcurve" smooth="yes"/>
      <point x="393" y="1478"/>
      <point x="537" y="1489" type="qcurve" smooth="yes"/>
      <point x="590" y="1493"/>
      <point x="713" y="1493" type="qcurve" smooth="yes"/>
      <point x="727" y="1493"/>
      <point x="727" y="1417"/>
      <point x="715" y="1417" type="qcurve" smooth="yes"/>
      <point x="582" y="1417"/>
      <point x="530" y="1380" type="qcurve" smooth="yes"/>
      <point x="460" y="1333"/>
      <point x="461" y="1184" type="qcurve" smooth="yes"/>
      <point x="461" y="950" type="line" smooth="yes"/>
      <point x="461" y="807"/>
      <point x="444" y="750" type="qcurve" smooth="yes"/>
      <point x="419" y="666"/>
      <point x="334" y="616" type="qcurve"/>
      <point x="424" y="561"/>
      <point x="449" y="463" type="qcurve" smooth="yes"/>
      <point x="461" y="408"/>
      <point x="461" y="305" type="qcurve" smooth="yes"/>
      <point x="461" y="39" type="line" smooth="yes"/>
      <point x="461" y="-125"/>
      <point x="504" y="-182" type="qcurve" smooth="yes"/>
      <point x="547" y="-243"/>
      <point x="713" y="-244" type="qcurve" smooth="yes"/>
      <point x="729" y="-244"/>
      <point x="729" y="-319"/>
    </contour>
  </outline>
</glyph>
<glyph name="bar" format="1">
  <advance width="534"/>
  <unicode hex="007C"/>
  <outline>
    <contour>
      <point x="197" y="-334" type="line"/>
      <point x="197" y="1434" type="line"/>
      <point x="391" y="1434" type="line"/>
      <point x="391" y="-334" type="line"/>
    </contour>
  </outline>
</glyph>
<glyph name="braceright" format="1">
  <advance width="782"/>
  <unicode hex="007D"/>
  <outline>
    <contour>
      <point x="80" y="-319" type="qcurve" smooth="yes"/>
      <point x="64" y="-319"/>
      <point x="63" y="-244"/>
      <point x="80" y="-244" type="qcurve" smooth="yes"/>
      <point x="215" y="-244"/>
      <point x="264" y="-209" type="qcurve" smooth="yes"/>
      <point x="332" y="-160"/>
      <point x="332" y="39" type="qcurve" smooth="yes"/>
      <point x="332" y="305" type="line" smooth="yes"/>
      <point x="332" y="452"/>
      <point x="365" y="518" type="qcurve" smooth="yes"/>
      <point x="394" y="577"/>
      <point x="461" y="616" type="qcurve"/>
      <point x="371" y="669"/>
      <point x="346" y="766" type="qcurve" smooth="yes"/>
      <point x="334" y="819"/>
      <point x="334" y="950" type="qcurve" smooth="yes"/>
      <point x="334" y="1184" type="line" smooth="yes"/>
      <point x="334" y="1336"/>
      <point x="258" y="1384" type="qcurve" smooth="yes"/>
      <point x="207" y="1417"/>
      <point x="80" y="1417" type="qcurve" smooth="yes"/>
      <point x="64" y="1417"/>
      <point x="63" y="1493"/>
      <point x="80" y="1493" type="qcurve" smooth="yes"/>
      <point x="275" y="1493"/>
      <point x="346" y="1477" type="qcurve" smooth="yes"/>
      <point x="463" y="1450"/>
      <point x="504" y="1360" type="qcurve" smooth="yes"/>
      <point x="543" y="1272"/>
      <point x="543" y="1122" type="qcurve" smooth="yes"/>
      <point x="543" y="797" type="line" smooth="yes"/>
      <point x="543" y="684"/>
      <point x="621" y="657" type="qcurve" smooth="yes"/>
      <point x="652" y="647"/>
      <point x="696" y="647" type="qcurve" smooth="yes"/>
      <point x="712" y="647"/>
      <point x="713" y="586"/>
      <point x="698" y="586" type="qcurve" smooth="yes"/>
      <point x="585" y="586"/>
      <point x="557" y="512" type="qcurve" smooth="yes"/>
      <point x="545" y="479"/>
      <point x="545" y="430" type="qcurve" smooth="yes"/>
      <point x="545" y="6" type="line" smooth="yes"/>
      <point x="545" y="-197"/>
      <point x="426" y="-272" type="qcurve" smooth="yes"/>
      <point x="352" y="-319"/>
    </contour>
  </outline>
</glyph>
<glyph name="asciitilde" format="1">
  <advance width="741"/>
  <unicode hex="007E"/>
  <outline>
    <contour>
      <point x="735" y="518" type="line"/>
      <point x="657" y="430" type="line" smooth="yes"/>
      <point x="573" y="344"/>
      <point x="481" y="346" type="qcurve" smooth="yes"/>
      <point x="430" y="346"/>
      <point x="336" y="389" type="qcurve" smooth="yes"/>
      <point x="248" y="432"/>
      <point x="207" y="436" type="qcurve" smooth="yes"/>
      <point x="197" y="436"/>
      <point x="188" y="438" type="qcurve" smooth="yes"/>
      <point x="143" y="438"/>
      <point x="76" y="383" type="qcurve" smooth="yes"/>
      <point x="59" y="369" type="line"/>
      <point x="59" y="367" type="line" smooth="yes"/>
      <point x="55" y="363"/>
      <point x="47" y="362" type="qcurve" smooth="yes"/>
      <point x="35" y="367" type="line" smooth="yes"/>
      <point x="12" y="377"/>
      <point x="4" y="399" type="qcurve" smooth="yes"/>
      <point x="2" y="412" type="line" smooth="yes"/>
      <point x="2" y="414"/>
      <point x="6" y="416" type="qcurve" smooth="yes"/>
      <point x="70" y="487" type="line" smooth="yes"/>
      <point x="154" y="573"/>
      <point x="260" y="573" type="qcurve" smooth="yes"/>
      <point x="311" y="573"/>
      <point x="408" y="528" type="qcurve" smooth="yes"/>
      <point x="494" y="487"/>
      <point x="530" y="483" type="qcurve" smooth="yes"/>
      <point x="541" y="483" type="line" smooth="yes"/>
      <point x="586" y="483"/>
      <point x="637" y="524" type="qcurve" smooth="yes"/>
      <point x="672" y="555"/>
      <point x="680" y="561" type="qcurve" smooth="yes"/>
      <point x="690" y="563" type="line" smooth="yes"/>
      <point x="713" y="561"/>
      <point x="731" y="539" type="qcurve" smooth="yes"/>
      <point x="737" y="526" type="line"/>
    </contour>
  </outline>
</glyph>
